<?xml version="1.0" encoding="iso-8859-1"?>
<!-- Generator: Adobe Illustrator 24.0.1, SVG Export Plug-In . SVG Version: 6.00 Build 0)  -->
<svg version="1.1" id="Layer_1" xmlns="http://www.w3.org/2000/svg" xmlns:xlink="http://www.w3.org/1999/xlink" x="0px" y="0px"
	 viewBox="0 0 26.2 20.8" enable-background="new 0 0 26.2 20.8" xml:space="preserve">
<g id="Ac_Icon" transform="translate(.2 .2)">
	<path id="Path_2734" fill="#34579D" stroke="#F3F3F3" stroke-width="0.4" d="M13.6,4.2h-1.4c-0.4,0-0.7,0.3-0.7,0.7
		c0,0.4,0.3,0.7,0.7,0.7c0,0,0,0,0,0h1.4c0.4,0,0.7-0.3,0.7-0.7C14.3,4.5,14,4.2,13.6,4.2C13.6,4.2,13.6,4.2,13.6,4.2z"/>
	<path id="Path_2735" fill="#34579D" stroke="#F3F3F3" stroke-width="0.4" d="M24.1,0H1.7C0.8,0,0,0.8,0,1.7v9.3
		c0,0.9,0.8,1.7,1.7,1.7h22.4c0.9,0,1.7-0.8,1.7-1.7V1.7C25.8,0.8,25,0,24.1,0C24.1,0,24.1,0,24.1,0z M21.5,11.2H4.3V9.6h17.2
		L21.5,11.2L21.5,11.2z M24.3,10.9c0,0.1-0.1,0.3-0.3,0.3h-1.2V8.9c0-0.4-0.3-0.7-0.7-0.7c0,0,0,0,0,0H3.6c-0.4,0-0.7,0.3-0.7,0.7
		c0,0,0,0,0,0v2.3H1.7c-0.1,0-0.3-0.1-0.3-0.3V7.1h1.5c0.4,0,0.7-0.3,0.7-0.7S3.3,5.7,2.9,5.7H1.4V4.3h2.9c0.4,0,0.7-0.3,0.7-0.7
		S4.7,2.8,4.3,2.8H1.4V1.7c0-0.1,0.1-0.3,0.3-0.3c0,0,0,0,0,0h22.4c0.1,0,0.3,0.1,0.3,0.3l0,0L24.3,10.9L24.3,10.9z"/>
	<path id="Path_2736" fill="#34579D" stroke="#F3F3F3" stroke-width="0.4" d="M6.4,13.9c-0.4,0-0.7,0.4-0.7,0.8
		c0,1.6-0.5,3.2-1.5,4.5c-0.2,0.3-0.2,0.8,0.1,1c0,0,0,0,0,0c0.3,0.2,0.7,0.2,1-0.1c1.2-1.5,1.9-3.5,1.8-5.5
		C7.2,14.2,6.8,13.9,6.4,13.9z"/>
	<path id="Path_2737" fill="#34579D" stroke="#F3F3F3" stroke-width="0.4" d="M20,14.7c0-0.4-0.3-0.7-0.7-0.8s-0.7,0.3-0.8,0.7
		c0,2,0.6,3.9,1.8,5.5c0.3,0.3,0.7,0.3,1,0.1c0.3-0.2,0.4-0.7,0.1-1c0,0,0,0,0,0C20.5,17.9,20,16.3,20,14.7L20,14.7z"/>
	<path id="Path_2738" fill="#34579D" stroke="#F3F3F3" stroke-width="0.4" d="M12.9,13.8c-0.4,0-0.7,0.3-0.7,0.7c0,0,0,0,0,0v5.2
		c0,0.4,0.3,0.7,0.7,0.7c0.4,0,0.7-0.3,0.7-0.7v-5.2C13.6,14.1,13.3,13.8,12.9,13.8C12.9,13.8,12.9,13.8,12.9,13.8z"/>
</g>
</svg>
