<?xml version="1.0" encoding="iso-8859-1"?>
<!-- Generator: Adobe Illustrator 24.0.1, SVG Export Plug-In . SVG Version: 6.00 Build 0)  -->
<svg version="1.1" id="Ac_illustration" xmlns="http://www.w3.org/2000/svg" xmlns:xlink="http://www.w3.org/1999/xlink" x="0px"
	 y="0px" viewBox="0 0 91 90.9" enable-background="new 0 0 91 90.9" xml:space="preserve">
<path id="Path_3595" fill="#9FB9ED" d="M0,0h45.1c21.6,0.6,51.1,6.2,45.1,32.3c-5.8,25.5-23.4,22.4-28.1,38.8S0,99.4,0,83.4V0z"/>
<path id="Path_3596" fill="#FFFFFF" d="M60.6,5.8C65.8,7,71,9.1,75.1,12.9c2.1,1.9,3.6,4.3,4.6,6.9c0.9,2.6,1.3,5.4,1,8.2
	c-0.3,2.7-0.8,5.4-1.7,8.1c-0.2,0.7-0.4,1.3-0.7,1.9l-0.7,1.9c-0.2,0.6-0.6,1.2-0.9,1.8s-0.6,1.2-0.9,1.8l-1.1,1.7
	c-0.2,0.3-0.3,0.6-0.5,0.9l-0.6,0.8c-0.4,0.5-0.8,1.1-1.2,1.6L71,50c-1.9,1.9-3.9,3.7-6,5.4c-2.1,1.6-4,3.5-5.7,5.5
	c-0.2,0.3-0.4,0.5-0.6,0.8l-0.5,0.8c-0.4,0.5-0.7,1.1-0.9,1.7c-0.3,0.6-0.6,1.2-0.8,1.8l-0.7,1.9l-0.3,1l-0.2,0.5l-0.2,0.5l-0.2,0.5
	l-0.3,0.5c-0.2,0.3-0.4,0.6-0.6,0.9C53,72.9,52,74,51,74.9c-2.1,1.8-4.4,3.3-6.9,4.6c-4.9,2.4-10,4.3-15.4,5.4
	c-5.3,1.2-10.7,1.8-16.2,1.5v-0.2c5.4-0.3,10.7-1.1,15.8-2.6c2.6-0.7,5.1-1.5,7.6-2.5c2.5-0.9,4.9-2,7.3-3.3
	c2.3-1.2,4.5-2.6,6.6-4.3c1-0.8,1.9-1.8,2.6-2.8c0.2-0.3,0.4-0.5,0.5-0.8l0.2-0.4l0.2-0.4l0.2-0.4l0.2-0.4l0.3-0.9
	c0.8-2.7,2.2-5.2,4-7.3c1.8-2,3.9-3.8,6.2-5.4c2.2-1.6,4.2-3.3,6.2-5.2c1.9-1.9,3.5-4,4.8-6.4c0.3-0.6,0.6-1.2,0.9-1.8l0.4-0.9
	c0.2-0.3,0.3-0.6,0.4-0.9l0.6-1.9c0.2-0.6,0.4-1.3,0.6-1.9c0.7-2.6,1.1-5.2,1.3-7.8c0.1-2.6-0.2-5.2-1-7.7c-0.9-2.5-2.3-4.7-4.1-6.5
	c-1.9-1.9-4-3.4-6.4-4.7c-2.4-1.3-4.8-2.3-7.4-3.2L60.6,5.8z"/>
<path id="Path_3597" fill="#849CD8" d="M0,0h34.1c16.4,0.5,38.6,4.9,34.1,25.7C63.8,46,50.6,43.5,47,56.5S0,79,0,66.3V0z"/>
<path id="Path_3598" fill="#FFFFFF" d="M6,67.1C5.9,62,5.8,56.9,5.8,51.8s0-10.2,0.1-15.3S6,26.3,5.9,21.2L5.7,5.8V5.5h0.4l9.9-0.1
	h9.9l9.8,0.2c3.3,0.1,6.6,0.1,9.9,0.2v0c-3.3,0.1-6.6,0.2-9.9,0.2l-9.9,0.1h-9.9L6.1,6.1l0.4-0.3L6.2,21.2c0,5.1,0,10.2,0.1,15.3
	s0.2,10.2,0.1,15.3S6.3,62,6,67.1L6,67.1z"/>
<path id="Path_3599" fill="#E6EFFF" d="M72.8,17.5c4.6,1.3,4.1,8.9,2.4,19c-2.9-0.3-5.8-0.5-8.8-0.6c-18.7-1-39.3-0.2-50.7,0.4
	c-5.4,0.3-8.8,0.5-8.8,0.5c-0.7-2.2-1.1-4.5-1.3-6.9C4.1,17.2,11,15.1,11,15.1S50.4,11,72.8,17.5z"/>
<path id="Path_3600" fill="#FFFFFF" d="M66.3,35.8c3,0.2,6,0.4,8.8,0.6c-0.6,3.4-4.3,5.1-9.6,5.9C66.7,40.3,66.3,35.8,66.3,35.8z"/>
<path id="Path_3601" fill="#415170" d="M66.3,35.8c0,0,0.3,4.5-0.8,6.5c-10.3,1.5-26.5-0.3-38,0.7c-3.7,0.4-7.4,0.6-11.1,0.4
	c-0.9-1.6-0.9-7.2-0.9-7.2C26.9,35.6,47.6,34.8,66.3,35.8z"/>
<path id="Path_3602" fill="#FFFFFF" d="M15.5,36.2c0,0,0,5.6,0.9,7.2c-5.6-0.4-8.2-2.3-9.6-6.7C6.8,36.8,10.1,36.5,15.5,36.2z"/>
<path id="Path_3603" fill="#FFFFFF" d="M17.7,38.3c3.8-0.4,7.6-0.6,11.4-0.7s7.6,0,11.4-0.2s7.6-0.2,11.4-0.1c1.9,0,3.8,0.2,5.7,0.3
	l2.9,0.2l2.8,0.4v0l-2.9-0.2l-2.9-0.1l-5.7-0.2c-3.8-0.1-7.6-0.1-11.4-0.2s-7.6,0.1-11.4,0.3S21.6,38.3,17.7,38.3L17.7,38.3z"/>
<path id="Path_3604" fill="#FFFFFF" d="M17.7,41.3c3.8-0.4,7.6-0.6,11.4-0.7s7.6-0.1,11.4-0.2c3.8-0.1,7.6-0.2,11.4-0.1
	c1.9,0,3.8,0.2,5.7,0.3l2.9,0.2l2.8,0.4l-2.9-0.2L57.8,41l-5.7-0.2c-3.8-0.1-7.6-0.1-11.4-0.2c-3.8,0-7.6,0.1-11.4,0.3
	C25.4,41.2,21.6,41.3,17.7,41.3L17.7,41.3z"/>
<path id="Path_3605" fill="#FFFFFF" d="M56,43.5c0.3,1.3,0.7,2.5,1.4,3.7c0.6,1.2,1.4,2.3,2.5,3.1c1.1,0.8,2.2,1.5,3.4,2.1
	c0.6,0.3,1.2,0.5,1.8,0.8c0.6,0.3,1.3,0.5,1.9,0.7c-0.7-0.1-1.3-0.3-2-0.5c-0.6-0.2-1.3-0.5-1.9-0.7c-0.6-0.3-1.2-0.6-1.8-1
	c-0.6-0.4-1.1-0.8-1.6-1.3c-1-0.9-1.9-1.9-2.6-3C56.4,46.2,56,44.9,56,43.5L56,43.5z"/>
<path id="Path_3606" fill="#FFFFFF" d="M25.2,43.5c0.3,1.7,0.4,3.5,0.1,5.2c-0.3,1.7-0.8,3.4-1.4,5c-0.6,1.6-1.7,3.1-3,4.2
	c-1.3,1.1-2.9,1.9-4.7,2.2c1.6-0.6,3.1-1.5,4.4-2.6c1.3-1.1,2.3-2.5,3.1-4c0.8-1.5,1.2-3.2,1.3-4.9C25.2,46.9,25.2,45.2,25.2,43.5
	L25.2,43.5z"/>
<path id="Path_3607" fill="#FFFFFF" d="M39.7,45.4c0.3,1.7,0.6,3.4,0.9,5.1c0.3,1.7,0.8,3.4,1.5,5c0.7,1.6,1.6,3.1,2.5,4.5
	c1,1.4,2.1,2.7,3.3,3.9c-1.4-1-2.7-2.3-3.7-3.7c-1-1.4-1.8-3-2.4-4.7c-0.6-1.6-1.1-3.3-1.6-5C39.9,48.8,39.7,47.1,39.7,45.4
	L39.7,45.4z"/>
<path id="Path_3726" fill="#E6EFFF" d="M72.8,17.5c4.6,1.3,4.1,8.9,2.4,19c-2.9-0.3-5.8-0.5-8.8-0.6c-18.7-1-39.3-0.2-50.7,0.4
	c-5.4,0.3-8.8,0.5-8.8,0.5c-0.7-2.2-1.1-4.5-1.3-6.9C4.1,17.2,11,15.1,11,15.1S50.4,11,72.8,17.5z"/>
<path id="Path_3727" fill="#FFFFFF" d="M66.3,35.8c3,0.2,6,0.4,8.8,0.6c-0.6,3.4-4.3,5.1-9.6,5.9C66.7,40.3,66.3,35.8,66.3,35.8z"/>
</svg>
