<?xml version="1.0" encoding="iso-8859-1"?>
<!-- Generator: Adobe Illustrator 24.0.1, SVG Export Plug-In . SVG Version: 6.00 Build 0)  -->
<svg version="1.1" id="Add_circle" xmlns="http://www.w3.org/2000/svg" xmlns:xlink="http://www.w3.org/1999/xlink" x="0px" y="0px"
	 viewBox="0 0 46 46" enable-background="new 0 0 46 46" xml:space="preserve">
<path id="Black_Circle" fill="#181818" d="M23,0c12.7,0,23,10.3,23,23S35.7,46,23,46S0,35.7,0,23S10.3,0,23,0z"/>
<path id="Add_icon_large" fill="#FFFFFF" stroke="#181818" stroke-width="0.3" d="M23,14c-0.5,0-1,0.4-1,1l0,0V22H15
	c-0.5,0-1,0.4-1,1c0,0.5,0.4,1,1,1H22V31c0,0.5,0.4,1,1,1c0.5,0,1-0.4,1-1c0,0,0,0,0,0V24H31c0.5,0,1-0.4,1-1c0-0.5-0.4-1-1-1H24V15
	C24,14.4,23.5,14,23,14C23,14,23,14,23,14z"/>
</svg>
