<?xml version="1.0" encoding="iso-8859-1"?>
<!-- Generator: Adobe Illustrator 24.0.1, SVG Export Plug-In . SVG Version: 6.00 Build 0)  -->
<svg version="1.1" id="call_icon" xmlns="http://www.w3.org/2000/svg" xmlns:xlink="http://www.w3.org/1999/xlink" x="0px" y="0px"
	 viewBox="0 0 64 64" enable-background="new 0 0 64 64" xml:space="preserve">
<circle id="circle" opacity="0.3" fill="#EFA05A" enable-background="new    " cx="32" cy="32" r="32"/>
<path id="call_icon-2" fill="#181818" stroke="#181818" stroke-width="0.4" d="M38.1,46.1c1,0,1.9-0.2,2.8-0.6
	c1.4-0.8,2.7-1.8,3.8-3c0.6-0.7,0.5-1.7-0.1-2.3c0,0,0,0-0.1-0.1l-4.7-3.8c-0.6-0.5-1.5-0.5-2,0l-2.4,2c-0.2,0.2-0.6,0.2-0.8,0
	c-1.4-1.2-2.8-2.4-4.1-3.7c-1.3-1.3-2.6-2.7-3.7-4.1c-0.2-0.3-0.2-0.6,0-0.8l2-2.4c0.5-0.6,0.5-1.4,0-2L25,20.6
	c-0.6-0.7-1.6-0.8-2.3-0.2c0,0,0,0-0.1,0.1c-1.2,1.1-2.3,2.4-3,3.8c-1.9,3.6,0.6,9.9,6,15.3C29.7,43.7,34.5,46.1,38.1,46.1z
	 M20.6,24.8c0.7-1.3,1.7-2.5,2.8-3.5c0.1-0.1,0.2-0.1,0.3-0.1h0c0.1,0,0.2,0.1,0.3,0.2l3.8,4.7c0.1,0.2,0.1,0.4,0,0.6l-2,2.4
	c-0.6,0.7-0.6,1.6,0,2.3c1.2,1.5,2.5,2.9,3.8,4.2c1.3,1.3,2.7,2.6,4.2,3.8c0.7,0.5,1.7,0.5,2.3,0l2.4-2c0.2-0.1,0.4-0.1,0.6,0
	l4.7,3.8c0.2,0.2,0.2,0.4,0.1,0.6c0,0,0,0,0,0c-1,1.1-2.2,2.1-3.5,2.8c-2.7,1.4-8.4-0.2-14-5.7S19.3,27.5,20.6,24.8z M43.9,31.5
	c-0.3-5.5-4.8-10-10.3-10.3c-0.3,0-0.6-0.3-0.5-0.6c0-0.3,0.3-0.6,0.6-0.5c6.1,0.4,11,5.3,11.4,11.4c0,0.3-0.2,0.6-0.5,0.6h0
	C44.2,32,44,31.8,43.9,31.5L43.9,31.5z M33.6,24.6c-0.3,0-0.6-0.3-0.5-0.6c0-0.3,0.3-0.6,0.6-0.5c0,0,0,0,0,0
	c4.2,0.4,7.5,3.7,7.9,7.9c0,0.3-0.2,0.6-0.5,0.6H41c-0.3,0-0.6-0.2-0.6-0.5C40.1,27.8,37.3,25,33.6,24.6z M38.1,31.3
	c0,0.3-0.2,0.6-0.5,0.7c0,0-0.1,0-0.1,0c-0.3,0-0.5-0.2-0.6-0.5c-0.3-1.7-1.6-3.1-3.4-3.4c-0.3,0-0.5-0.3-0.5-0.6
	c0-0.3,0.3-0.5,0.6-0.5c0,0,0,0,0.1,0C36,27.3,37.8,29.1,38.1,31.3L38.1,31.3z"/>
</svg>
