<?xml version="1.0" encoding="iso-8859-1"?>
<!-- Generator: Adobe Illustrator 24.0.1, SVG Export Plug-In . SVG Version: 6.00 Build 0)  -->
<svg version="1.1" id="Layer_1" xmlns="http://www.w3.org/2000/svg" xmlns:xlink="http://www.w3.org/1999/xlink" x="0px" y="0px"
	 viewBox="0 0 32 32" enable-background="new 0 0 32 32" xml:space="preserve">
<g id="Delete" transform="translate(-158 -509)">
	<path id="circle" fill="#181818" d="M174,509c8.8,0,16,7.2,16,16s-7.2,16-16,16c-8.8,0-16-7.2-16-16S165.2,509,174,509z"/>
	<g id="delete_icon" transform="translate(167 516)">
		<path id="Path_3741" fill="#FFFFFF" d="M14,2.7h-3.4c-0.4-1.8-2.1-3-3.9-2.6C5.3,0.3,4.3,1.4,4.1,2.7H0.7C0.3,2.7,0,3,0,3.3
			S0.3,4,0.7,4h0.7v11c0,1.3,1,2.3,2.3,2.3c0,0,0,0,0,0H11c1.3,0,2.3-1,2.3-2.3V4H14c0.4,0,0.7-0.3,0.7-0.7S14.3,2.7,14,2.7L14,2.7z
			 M7.3,1.3c0.8,0,1.6,0.5,1.9,1.3H5.4C5.7,1.9,6.5,1.3,7.3,1.3z M12,15c0,0.6-0.4,1-1,1H3.7c-0.6,0-1-0.4-1-1V4H12L12,15z"/>
		<g id="Group_2944" transform="translate(-.2)">
			<path id="Path_3742" fill="#FFFFFF" d="M5.1,13.3c0.4,0,0.7-0.3,0.7-0.7V7.3c0-0.4-0.3-0.7-0.7-0.7C4.7,6.7,4.4,7,4.4,7.3v5.3
				C4.4,13,4.7,13.3,5.1,13.3z"/>
			<path id="Path_3744" fill="#FFFFFF" d="M10.1,13.3c0.4,0,0.7-0.3,0.7-0.7V7.3c0-0.4-0.3-0.7-0.7-0.7C9.7,6.7,9.4,7,9.4,7.3v5.3
				C9.4,13,9.7,13.3,10.1,13.3C10.1,13.3,10.1,13.3,10.1,13.3z"/>
			<path id="Path_3850" fill="#FFFFFF" d="M7.6,13.3c0.4,0,0.7-0.3,0.7-0.7V7.3c0-0.4-0.3-0.7-0.7-0.7C7.2,6.7,6.9,7,6.9,7.3v5.3
				C6.9,13,7.2,13.3,7.6,13.3C7.6,13.3,7.6,13.3,7.6,13.3z"/>
		</g>
	</g>
</g>
</svg>
