<?xml version="1.0" encoding="iso-8859-1"?>
<!-- Generator: Adobe Illustrator 24.0.1, SVG Export Plug-In . SVG Version: 6.00 Build 0)  -->
<svg version="1.1" id="Fan_Illustration" xmlns="http://www.w3.org/2000/svg" xmlns:xlink="http://www.w3.org/1999/xlink" x="0px"
	 y="0px" viewBox="0 0 91 90.9" enable-background="new 0 0 91 90.9" xml:space="preserve">
<path id="Path_3577" fill="#F43047" d="M0,0h45.1c21.6,0.6,51.1,6.2,45.1,32.3c-5.8,25.5-23.4,22.4-28,38.8S0,99.4,0,83.3V0z"/>
<path id="Path_3578" fill="#FFFFFF" d="M63.1,5.8c2.7,0.6,5.4,1.4,8,2.5c2.6,1.1,5,2.6,7.2,4.4c2.2,1.9,3.9,4.3,5,7
	c1,2.7,1.4,5.6,1.1,8.5l-0.1,1.1c0,0.4-0.1,0.7-0.2,1l-0.4,2.1c-0.3,1.4-0.7,2.7-1.2,4c-0.9,2.6-2.1,5.2-3.6,7.6
	c-1.5,2.4-3.2,4.6-5.2,6.5c-2,1.9-4.2,3.7-6.4,5.4c-2.2,1.6-4.2,3.5-6,5.6c-0.8,1-1.6,2.2-2.2,3.4c-0.6,1.2-1.1,2.5-1.4,3.8
	c-0.5,1.4-1.2,2.7-2.2,3.9c-1,1.1-2,2.1-3.2,3c-2.3,1.7-4.7,3.2-7.3,4.4c-5.1,2.3-10.5,4.1-16,5.2c-5.5,1.2-11,1.7-16.6,1.4v-0.2
	c5.5-0.3,11-1.1,16.3-2.5c2.7-0.7,5.3-1.5,7.9-2.4c2.6-0.9,5.1-2,7.6-3.2c2.5-1.2,4.8-2.5,7-4.2c2.2-1.5,3.9-3.5,4.9-6
	c0.4-1.4,0.9-2.7,1.6-4c0.7-1.3,1.5-2.4,2.5-3.5c1.9-2.1,4.1-3.9,6.4-5.4c2.3-1.6,4.5-3.3,6.5-5.1c1-0.9,2-1.9,2.9-2.9
	c0.9-1.1,1.7-2.2,2.4-3.4c1.4-2.4,2.5-4.9,3.2-7.6c0.8-2.6,1.3-5.3,1.4-8c0.2-2.7-0.2-5.3-1.1-7.9c-1-2.5-2.5-4.7-4.5-6.6
	c-2-1.8-4.3-3.4-6.7-4.6c-2.5-1.2-5-2.3-7.6-3.1L63.1,5.8z"/>
<path id="Path_3579" fill="#FF4A6D" d="M0,0h34.1c16.4,0.5,38.6,4.9,34.1,25.7C63.8,46,50.6,43.5,47,56.5S0,79,0,66.3V0z"/>
<path id="Path_3580" fill="#FFFFFF" d="M4.4,65.6c-0.2-5.1-0.3-10.2-0.3-15.3c-0.1-5.1,0-10.2,0.1-15.3c0.1-5.1,0.1-10.2,0.1-15.3
	L4.1,4.2V3.9h0.4l9.8-0.1h9.9l9.9,0.1c3.3,0,6.6,0.1,9.9,0.2v0.1c-3.3,0.1-6.6,0.2-9.9,0.2l-9.9,0.1h-9.9l-9.8,0l0.4-0.4L4.6,19.6
	c0,5.1,0,10.2,0.1,15.3s0.1,10.2,0.1,15.3S4.7,60.4,4.4,65.6L4.4,65.6z"/>
<path id="Path_3581" fill="#FFFFFF" d="M37.5,22.2c8.3-0.3,7.4,9.2,7.4,9.2c-0.1-1.9-3.3-3.3-7.2-3.1s-7,1.8-6.9,3.7
	C30.9,32,29.2,22.6,37.5,22.2z"/>
<path id="Path_3582" fill="#C7172D" d="M45,31.5c0.1,1.9-3,3.5-6.9,3.7S31,33.9,30.9,32s3-3.5,6.9-3.7S44.9,29.6,45,31.5z"/>
<path id="Path_3583" fill="none" stroke="#FFFFFF" stroke-miterlimit="10" d="M45,31.5c0.1,1.9-3,3.5-6.9,3.7S31,33.9,30.9,32
	s3-3.5,6.9-3.7S44.9,29.6,45,31.5z"/>
<path id="Path_3584" fill="none" stroke="#FFFFFF" stroke-miterlimit="10" d="M30.9,32c0,0-1.7-9.5,6.6-9.8s7.4,9.2,7.4,9.2"/>
<path id="Path_3585" fill="#FFFFFF" d="M30.8,30.8c0,0-19.6,12.3-15.1,15.8S30,37.8,30.2,35.5S28.6,32.8,30.8,30.8z"/>
<path id="Path_3586" fill="#FFFFFF" d="M31.8,25.5c0,0-30.8-13.9-30-6.6s20.7,11.6,27.8,6.6L31.8,25.5z"/>
<path id="Path_3587" fill="#FFFFFF" d="M50.5,29.9c7.9,5.6,50.3,7.9,35.7,0.2s-41.6-2.7-41.6-2.7l0.3,1.3
	C44.8,28.6,48.3,28.3,50.5,29.9z"/>
<path id="Rectangle_2402" fill="#FFFFFF" d="M37.1,2.8L37.1,2.8c0.6,0,1.1,0.5,1.2,1.1l0.3,17.2c0,0.6-0.5,1.1-1.1,1.2l0,0
	c-0.6,0-1.1-0.5-1.2-1.1L36,4C36,3.3,36.5,2.8,37.1,2.8z"/>
</svg>
