<?xml version="1.0" encoding="iso-8859-1"?>
<!-- Generator: Adobe Illustrator 24.0.1, SVG Export Plug-In . SVG Version: 6.00 Build 0)  -->
<svg version="1.1" id="Layer_1" xmlns="http://www.w3.org/2000/svg" xmlns:xlink="http://www.w3.org/1999/xlink" x="0px" y="0px"
	 viewBox="0 0 22.2 22.7" enable-background="new 0 0 22.2 22.7" xml:space="preserve">
<g id="Fan_Icon" transform="rotate(19 11.013 11.46)">
	
		<ellipse id="Ellipse_12" transform="matrix(-0.9455 0.3256 -0.3256 -0.9455 25.2246 18.4328)" fill="none" stroke="#F82940" stroke-width="0.9" stroke-miterlimit="10" cx="11.1" cy="11.3" rx="1.7" ry="1.7"/>
	<path id="Rectangle_61" fill="none" stroke="#F82940" stroke-width="0.9" stroke-miterlimit="10" d="M12.7,0L12.7,0
		c1,0,1.9,0.8,1.9,1.9l0,4.6c0,1-0.8,1.9-1.9,1.9l0,0c-1,0-1.9-0.8-1.9-1.9l0-4.6C10.9,0.8,11.7,0,12.7,0z"/>
	<path id="Rectangle_62" fill="none" stroke="#F82940" stroke-width="0.9" stroke-miterlimit="10" d="M9.3,14.3L9.3,14.3
		c1,0,1.9,0.8,1.9,1.9l0,4.6c0,1-0.8,1.9-1.9,1.9l0,0c-1,0-1.9-0.8-1.9-1.9l0-4.6C7.4,15.2,8.3,14.3,9.3,14.3z"/>
	<path id="Rectangle_63" fill="none" stroke="#F82940" stroke-width="0.9" stroke-miterlimit="10" d="M22.1,13L22.1,13
		c0,1-0.8,1.9-1.9,1.9l-4.6,0c-1,0-1.9-0.8-1.9-1.9v0c0-1,0.8-1.9,1.9-1.9l4.6,0C21.3,11.1,22.1,12,22.1,13z"/>
	<path id="Rectangle_64" fill="none" stroke="#F82940" stroke-width="0.9" stroke-miterlimit="10" d="M8.4,9.7L8.4,9.7
		c0,1-0.8,1.9-1.9,1.9l-4.6,0c-1,0-1.9-0.8-1.9-1.9l0,0c0-1,0.8-1.9,1.9-1.9l4.6,0C7.5,7.8,8.4,8.6,8.4,9.7z"/>
	<path id="Line_5" fill="none" stroke="#F82940" stroke-width="0.9" stroke-miterlimit="10" d="M12.7,11l0-2.6"/>
	<path id="Line_6" fill="none" stroke="#F82940" stroke-width="0.9" stroke-miterlimit="10" d="M14,13l-2.9,0"/>
	<path id="Line_7" fill="none" stroke="#F82940" stroke-width="0.9" stroke-miterlimit="10" d="M9.4,14.4l0-3"/>
	<path id="Line_8" fill="none" stroke="#F82940" stroke-width="0.9" stroke-miterlimit="10" d="M11.1,9.7l-2.7,0"/>
</g>
</svg>
