<?xml version="1.0" encoding="iso-8859-1"?>
<!-- Generator: Adobe Illustrator 24.0.1, SVG Export Plug-In . SVG Version: 6.00 Build 0)  -->
<svg version="1.1" id="Layer_1" xmlns="http://www.w3.org/2000/svg" xmlns:xlink="http://www.w3.org/1999/xlink" x="0px" y="0px"
	 viewBox="0 0 15.6 23.9" enable-background="new 0 0 15.6 23.9" xml:space="preserve">
<g id="Geyser_Havells" transform="translate(-13.851 -12.684)">
	<path id="Path_3844" fill="#C5EAF9" d="M29.4,26.1v3.1c0,2.6-2.1,4.7-4.7,4.7h-6.2c-2.6,0-4.7-2.1-4.7-4.7v-3.1
		C18.9,27.6,24.3,27.6,29.4,26.1z M22.9,30.5c0-0.7-0.5-1.2-1.2-1.2c-0.7,0-1.2,0.5-1.2,1.2c0,0.7,0.5,1.2,1.2,1.2
		c0.3,0,0.6-0.1,0.9-0.4C22.8,31.1,22.9,30.8,22.9,30.5z"/>
	<path id="Path_3845" fill="#E9E9E9" d="M29.4,17.4v8.8c-5.1,1.5-10.5,1.5-15.6,0v-8.8c0-2.6,2.1-4.7,4.7-4.7h6.2
		C27.3,12.7,29.4,14.8,29.4,17.4z"/>
	<path id="Path_3846" fill="#FFFFFF" d="M21.7,29.3c0.7,0,1.2,0.5,1.2,1.2c0,0.7-0.5,1.2-1.2,1.2c-0.7,0-1.2-0.5-1.2-1.2
		c0-0.3,0.1-0.6,0.4-0.9C21.1,29.4,21.4,29.3,21.7,29.3z"/>
	<path id="Path_3847" fill="none" stroke="#0B4C8B" stroke-width="0.8" stroke-miterlimit="10" d="M22.9,30.5c0,0.7-0.5,1.2-1.2,1.2
		s-1.2-0.5-1.2-1.2c0-0.7,0.5-1.2,1.2-1.2c0,0,0,0,0,0C22.4,29.3,22.9,29.8,22.9,30.5z"/>
	<path id="Path_3848" fill="#C5EAF9" d="M17.8,33.9v2c0,0-0.1,0.7,0.8,0.7c1,0,0.8-0.7,0.8-0.7v-2H17.8z"/>
	<path id="Path_3849" fill="#C5EAF9" d="M23.6,33.9v2c0,0-0.1,0.7,0.8,0.7s0.8-0.7,0.8-0.7v-2H23.6z"/>
</g>
</svg>
