<?xml version="1.0" encoding="iso-8859-1"?>
<!-- Generator: Adobe Illustrator 24.0.1, SVG Export Plug-In . SVG Version: 6.00 Build 0)  -->
<svg version="1.1" id="Geyser_Standard_Illustration"
	 xmlns="http://www.w3.org/2000/svg" xmlns:xlink="http://www.w3.org/1999/xlink" x="0px" y="0px" viewBox="0 0 90.8 90.7"
	 enable-background="new 0 0 90.8 90.7" xml:space="preserve">
<path id="Path_3546" fill="#0B4C8B" d="M0,0h45C66.6,0.6,96,6.2,90,32.2c-5.8,25.5-23.3,22.4-28,38.7S0,99.2,0,83.2V0z"/>
<path id="Path_3547" fill="#FFFFFF" d="M63,5.7c2.7,0.6,5.4,1.4,7.9,2.5c2.6,1.1,5,2.6,7.1,4.4c2.2,1.9,3.9,4.3,5,7
	c1,2.7,1.4,5.6,1.1,8.4l-0.1,1.1c0,0.4-0.1,0.7-0.2,1l-0.4,2.1c-0.3,1.4-0.7,2.7-1.2,4c-0.9,2.6-2.1,5.2-3.6,7.6
	c-1.5,2.4-3.2,4.6-5.2,6.5c-2,1.9-4.2,3.7-6.3,5.4c-2.2,1.6-4.2,3.5-6,5.6c-0.8,1-1.6,2.2-2.2,3.3c-0.6,1.2-1.1,2.5-1.4,3.7
	c-0.5,1.4-1.2,2.7-2.2,3.9c-1,1.1-2,2.1-3.2,3c-2.2,1.7-4.7,3.2-7.2,4.4c-5.1,2.3-10.4,4.1-15.9,5.2c-5.4,1.2-11,1.7-16.6,1.4V86
	c5.5-0.3,11-1.1,16.3-2.5c2.7-0.7,5.3-1.5,7.9-2.4c2.6-0.9,5.1-2,7.6-3.2c2.5-1.1,4.8-2.5,7-4.2c2.2-1.5,3.9-3.5,4.9-6
	c0.4-1.4,0.9-2.7,1.6-4c0.7-1.3,1.5-2.4,2.5-3.5c1.9-2.1,4.1-3.9,6.4-5.4c2.3-1.5,4.5-3.2,6.5-5.1c1-0.9,2-1.9,2.9-2.9
	c0.9-1.1,1.7-2.2,2.4-3.4c1.4-2.4,2.5-4.9,3.2-7.6c0.8-2.6,1.3-5.3,1.4-8c0.2-2.7-0.2-5.3-1.1-7.9c-1-2.5-2.5-4.7-4.4-6.6
	c-2-1.8-4.3-3.4-6.7-4.6c-2.5-1.2-5-2.3-7.6-3.1L63,5.7z"/>
<path id="Path_3548" fill="#136DC7" d="M0,0h34c16.3,0.5,38.5,4.9,34,25.6c-4.4,20.2-17.6,17.8-21.2,30.8S0,78.9,0,66.2V0z"/>
<path id="Path_3549" fill="#FFFFFF" d="M4.4,30.7c-0.1-2.2-0.2-4.4-0.2-6.6c-0.1-2.2-0.1-4.4-0.1-6.6v-3.3l0.1-3.3
	c0.1-2.2,0.1-4.4,0.1-6.6V4.1h0.2c3.3,0,6.6-0.1,9.8-0.2s6.6-0.1,9.8-0.1s6.6,0,9.8,0.1s6.6,0.2,9.8,0.3v0.1
	c-3.3,0.1-6.6,0.2-9.8,0.3c-3.3,0.1-6.6,0.1-9.8,0.1s-6.6-0.1-9.8-0.1S7.8,4.4,4.5,4.3l0.1-0.1c0,2.2,0,4.4,0.1,6.6l0.1,3.3v3.3
	c0,2.2,0,4.4-0.1,6.6S4.6,28.5,4.4,30.7L4.4,30.7z"/>
<path id="Path_3558" fill="#C5EAF9" d="M51.3,45v7.5c0,6.2-5,11.2-11.2,11.2H25.1c-6.2,0-11.2-5-11.2-11.2V45
	C13.9,45,30,50.8,51.3,45z M35.7,55.4c0-1.6-1.3-2.9-2.9-2.9c-1.6,0-2.9,1.3-2.9,2.9c0,1.6,1.3,2.9,2.9,2.9c0.8,0,1.5-0.3,2.1-0.9
	C35.3,56.9,35.6,56.2,35.7,55.4L35.7,55.4z"/>
<path id="Path_3559" fill="#FFFFFF" d="M51.3,23.9V45c-21.3,5.8-37.4,0-37.4,0V23.9c0-6.2,5-11.2,11.2-11.2H40
	C46.2,12.7,51.2,17.7,51.3,23.9z"/>
<path id="Path_3560" fill="#FFFFFF" d="M32.7,52.4c1.6,0,2.9,1.3,2.9,2.9c0,1.6-1.3,2.9-2.9,2.9c-1.6,0-2.9-1.3-2.9-2.9
	c0-0.8,0.3-1.5,0.8-2C31.2,52.8,32,52.4,32.7,52.4z"/>
<path id="Path_3561" fill="none" stroke="#136DC7" stroke-miterlimit="10" d="M35.6,55.4c0,1.6-1.3,2.9-2.9,2.9
	c-1.6,0-2.9-1.3-2.9-2.9c0-1.6,1.3-2.9,2.9-2.9c0,0,0,0,0,0C34.3,52.5,35.6,53.8,35.6,55.4z"/>
<path id="Path_3562" fill="#FFFFFF" d="M23.3,63.7v7.8c0,0-0.3,2.8,2,2.8s1.9-2.6,1.9-2.6v-8H23.3z"/>
<path id="Path_3563" fill="#FFFFFF" d="M37.2,63.7v4.8c0,0-0.3,1.7,2,1.7s1.9-1.6,1.9-1.6v-4.8L37.2,63.7z"/>
</svg>
