<?xml version="1.0" encoding="iso-8859-1"?>
<!-- Generator: Adobe Illustrator 24.0.1, SVG Export Plug-In . SVG Version: 6.00 Build 0)  -->
<svg version="1.1" id="Layer_1" xmlns="http://www.w3.org/2000/svg" xmlns:xlink="http://www.w3.org/1999/xlink" x="0px" y="0px"
	 viewBox="0 0 284.2 248.8" enable-background="new 0 0 284.2 248.8" xml:space="preserve">
<g id="Girl_Illustration" transform="translate(-103.913 -55.355)">
	<g id="layer" transform="translate(165.159 55.355)" opacity="0.2">
		<path id="Path_3784" fill="#FFFFFF" d="M214.2,89.7c6.8,28-17.1,53.4-29.2,76.1c-12.7,23.9-22.4,57.5-49.7,64.1
			S84.2,211,61.9,195.6c-21.1-14.7-54-26.3-60.7-54.3s17.1-53.4,29.2-76.1C43.1,41.2,52.8,7.7,80,1.1s51.2,18.8,73.5,34.3
			C174.6,50,207.4,61.7,214.2,89.7L214.2,89.7z"/>
	</g>
	<g id="layer-2" transform="translate(103.913 85.48)">
		<path id="Path_3785" fill="#58CC8A" d="M223.8,150.5c20.7,8,50.2,5.7,50.2,18.2c0,20.2-47.5,37-100.5,37.6l-1.8-37.1
			c17.9-3.6,33.7-11.2,43.6-24.1l2.7,20.1c0.9,2.1,2.9,3.5,5.2,3.5c1.6,0,2.8-1.3,2.8-2.8c0-0.1,0-0.3,0-0.4L223.8,150.5z"/>
		<path id="Path_3786" fill="#FFB743" d="M223.8,150.5l2.3,15c0.2,1.6-0.8,3-2.4,3.2c-0.1,0-0.3,0-0.4,0c-2.3,0-4.3-1.4-5.2-3.5
			l-2.7-20.1c2.5-3.2,4.5-6.7,6.1-10.5L223.8,150.5z"/>
		<path id="Path_3787" fill="#D31E41" d="M221.4,134.7c-1.6,3.7-3.6,7.2-6.1,10.5c-9.9,12.9-25.6,20.5-43.6,24.1
			c-1.9,0.4-3.7,0.7-5.6,1c-28.6,4.3-61.4-0.7-84.4-10.2c-2-0.8-3.9-1.7-5.7-2.5c-2.7-1.3-5.3-2.7-7.9-4.3
			c-7.3-4.5-12.5-9.6-14.6-14.9c-12.5-32.2,51.3-53,52.1-53.3c2.1,2,4.8,3.1,7.6,3.1l0.1,0c-0.1,0.5-0.3,0.9-0.5,1.4
			c-0.8,1.9-3,8.3-1.6,13.2c0,0-52.9,7.1-38.5,21.6c-3.5,4-4.2,8.6,0.4,13.6c15.1,16.2,59.2,14.3,83.2,13.6c3.6-0.1,6.8-0.2,9.3-0.2
			c19.4,0,23.9,4,25.1,1.4s-7.7-1.6-14.2-5.9s-5.1-7.9-11.7-4.3c-2.6,1.4-5.5,2.1-8.5,2c-3.6-0.2-7.2-0.9-10.6-2.1
			c32.6-5.7,25.3-27.9,25.3-27.9c0.9-0.7,1.8-1.5,2.6-2.2c9.8-9.2,10.6-21.2,8.9-31c-1-5.7-2.9-11.3-5.7-16.4
			c-2.7-4.8-12.4-9.3-19.5-12.9c0,0,7.9-14.7,8.6-27.9h0.1C208.1-10,247.6,74,221.4,134.7L221.4,134.7z"/>
		<path id="Path_3788" fill="#FFCFC5" d="M176.5,146.8c6.5,4.3,15.4,3.2,14.2,5.9s-5.7-1.4-25.1-1.4c-2.5,0-5.7,0.1-9.3,0.2v-6.9
			c3,0.1,5.9-0.6,8.5-2C171.4,138.9,170,142.6,176.5,146.8z"/>
		<path id="Path_3789" fill="#FFB743" d="M182.6,81.5c1.7,9.8,0.9,21.7-8.9,31c-0.2,0.1-10.2,5-15.2-10.8c-1.5-4.6-1.5-9.6,0.2-14.2
			c1.8-4.6,4.9-8.6,8.8-11.6c1.2,2.7,1.5,6,3.3,6.8c5.6,2.2,6.3-4.7,5.1-5.7c-0.3-0.2-1.5-1.3-3-2.7
			C172.9,74.3,179.5,73.4,182.6,81.5L182.6,81.5z"/>
		<path id="Path_3790" fill="#FFB743" d="M176.9,65.1c2.7,5.2,4.6,10.7,5.7,16.4c-3-8.1-9.6-7.2-9.6-7.2c-3.3-3-8.3-7.4-9.6-7.2
			c-1.7,0.2-6.7-0.5-8.1-0.4v0c0.2-4.4,0-8,0-8c-0.9-0.2-1.7-0.3-2.6-0.4l0.2-3.2c-6.5-0.5-12.9,1.3-18.2,5.1c0,0-1.5-1.6-6.3-3.3
			c0.5-0.3,7.8-4.4,11.3-8.3c0,0,4.4,3.6,10.9-0.3c0.4,0.4,0.9,0.8,1.5,1.1c1.4,0.9,3.3,1.9,5.4,2.9
			C164.5,55.7,174.3,60.2,176.9,65.1L176.9,65.1z"/>
		<path id="Path_3791" fill="#FFCFC5" d="M154.5,74.3c-0.6-0.1-1.3-0.2-1.9-0.4c-6.9-1.6-4.5-4-4.5-4s5.9-3,6.9-3.2
			c0.1,0,0.1,0,0.2,0c1.4-0.1,6.4,0.6,8.1,0.4c1.3-0.1,6.3,4.2,9.6,7.2c1.5,1.4,2.7,2.4,3,2.7c1.2,1,0.5,7.9-5.1,5.7
			c-1.8-0.7-2.1-4.1-3.3-6.8c-0.8-1.7-1.9-3.2-4.2-3.3C158.3,72.2,159.2,74.9,154.5,74.3L154.5,74.3z"/>
		<path id="Path_3792" fill="#FFB743" d="M173.5,206.4l0.3,5.7c0,1.8-1.5,3.3-3.3,3.3c-2.4,0-4.4-1.8-4.7-4.2l0-4.8
			C168.4,206.4,171,206.4,173.5,206.4z"/>
		<path id="Path_3793" fill="#FFB743" d="M171.7,169.3l1.8,37.1c-2.5,0-5.1,0-7.7,0l0.3-36C168,170,169.9,169.7,171.7,169.3
			L171.7,169.3z"/>
		<path id="Path_3794" fill="#EA873D" d="M173.6,112.4c-0.8,0.8-1.7,1.5-2.6,2.2c-1.5,1.2-3.2,2.2-4.9,3.1
			c-17.7-8.2-7.5-29.9-7.4-30.3c-1.7,4.6-1.8,9.6-0.2,14.2C163.5,117.5,173.4,112.6,173.6,112.4L173.6,112.4z"/>
		<path id="Path_3795" fill="#001B70" d="M171,114.6c0,0,7.3,22.2-25.3,27.9c-3-0.9-6.3-2.2-10.1-3.8c-15-6.3-22.5-10.9-42.5-5.9
			c9.4-8.9,23.2-11.5,35.2-6.8c21.1,8,34.5,1.3,33.7-6.7c1.4-0.4,2.7-1,4-1.6C167.8,116.9,169.5,115.8,171,114.6L171,114.6z"/>
		<path id="Path_3796" fill="#58CC8A" d="M166.1,170.3l-0.3,36c-8.7-0.2-17.5-0.8-26.2-1.9c-21.9-2.8-44.2-3.6-63.6-4.7
			c0.4-0.5,0.7-1.1,0.8-1.7l4.8-37.9C104.7,169.6,137.5,174.6,166.1,170.3L166.1,170.3z"/>
		<path id="Path_3797" fill="#080548" d="M105.5,85c-1.5-1.4-2.8-3.1-3.7-5c-8.9-17.6,10.3-22.9,15.6-52c6.7-37.3,36-31,45.5-17.4
			c2.6,3.7,3.4,8.6,3.1,13.7c-0.8,13.2-8.6,27.9-8.6,27.9c-2.1-1.1-4-2-5.4-2.9c-0.5-0.3-1-0.7-1.5-1.1c-4.1-4-2-10.1-2-10.3
			c1.8-1.7,3.1-3.9,3.8-6.3c2.9-2.3,7.1-7.8,3.7-8.6s-3.7,2.3-3.7,2.3c-10-0.9-15.3-14.2-15.3-14.2s-21,20.5,1.6,31.2h0
			c1.1,0.7,4,2.9,1,6.2c-3.5,3.9-10.9,8-11.3,8.3c-3.3-1.1-6.7-1.9-10.1-2.4l0.3,3.3c-1-0.1-2.1-0.1-3.1,0c0,0,0,2.7,0.4,6.6
			c-1.2-0.1-2.2,0.3-2.4,1.5c-0.3,2.7,0.2,6.1,2.7,6.5c0,0-1.5,11.2-2.8,16l-0.1,0C110.3,88.1,107.6,87,105.5,85z"/>
		<path id="Path_3798" fill="#FFB743" d="M162.1,119.4c-19.2,6.1-40-9.6-41.2-11c14.8-0.8,2.6-23.5,2.6-23.5
			c3.5,1.7,7.3,2.8,11.1,3.3c13.6-1.2,18.4-5.7,18.4-5.7c0.8-2.7,1.3-5.4,1.5-8.1c4.7,0.6,3.8-2.1,8.8-1.8c2.2,0.2,3.4,1.6,4.2,3.3
			c-3.9,3-7,7-8.8,11.6c-0.2,0.4-10.4,22.1,7.4,30.3C164.8,118.4,163.5,118.9,162.1,119.4L162.1,119.4z"/>
		<path id="Path_3799" fill="#132CBF" d="M162.1,119.4c0.8,8-12.7,14.8-33.7,6.7c-12.1-4.8-25.8-2.1-35.2,6.8
			c20-5.1,27.5-0.4,42.5,5.9c3.8,1.6,7.2,2.9,10.1,3.8c3.4,1.2,7,1.9,10.6,2.1v6.9c-24,0.8-68.1,2.6-83.2-13.6
			c-4.7-5-4-9.6-0.4-13.6c9.7-11.1,40.5-18.1,40.5-18.1c1.6,1.5,4,2.4,7.7,2.2C122.1,109.8,142.9,125.5,162.1,119.4L162.1,119.4z"/>
		<path id="Path_3800" fill="#FFCFC5" d="M138.7,42.2L138.7,42.2C116,31.5,137,11,137,11s5.3,13.4,15.3,14.2c0,0,0.4-3,3.7-2.3
			s-0.9,6.2-3.7,8.6c-0.6,2.4-2,4.6-3.8,6.3C145.8,40.2,142.3,41.8,138.7,42.2L138.7,42.2z"/>
		<path id="Path_3801" fill="#1EADE2" d="M155.3,58.6c0,0,0.2,3.6,0,8v0c-0.1,0-0.1,0-0.2,0c-1,0.2-6.9,3.2-6.9,3.2s-2.4,2.4,4.5,4
			c0.6,0.1,1.3,0.3,1.9,0.4c-0.2,2.8-0.7,5.5-1.5,8.1c0,0-4.9,4.5-18.4,5.7V61.6c5.6-2.9,11.8-4.1,18.1-3.5
			C153.5,58.2,154.4,58.4,155.3,58.6L155.3,58.6z"/>
		<path id="Path_3802" fill="#FFFFFF" d="M128.4,56.7c4.8,1.7,6.3,3.3,6.3,3.3c5.3-3.8,11.7-5.6,18.2-5.1l-0.2,3.2
			c-6.2-0.6-12.5,0.6-18.1,3.5c-7.8-2.9-13.1-3.8-16.1-4l-0.3-3.3C121.7,54.8,125.1,55.6,128.4,56.7z"/>
		<path id="Path_3803" fill="#FCB3A4" d="M150.6,48.1c-6.5,3.9-10.9,0.3-10.9,0.3c3-3.3,0.1-5.5-1-6.2c3.7-0.4,7.1-2,9.9-4.4
			C148.5,38,146.5,44.2,150.6,48.1L150.6,48.1z"/>
		<path id="Path_3804" fill="#0493BA" d="M134.6,61.6v26.5c-3.9-0.5-7.6-1.6-11.1-3.3c-0.9-0.4-1.8-0.9-2.6-1.4c-1-0.6-1.6-1-1.6-1
			c-1.2-3.3-2-6.7-2.5-10.2c0.3,0,0.6,0,0.9-0.1c0,0,4.9-1,3.6-4.7c-0.5-1.7-3.4-3.2-5.5-3.4c-0.3-3.9-0.4-6.6-0.4-6.6
			c1-0.1,2.1-0.1,3.1,0C121.5,57.8,126.8,58.7,134.6,61.6L134.6,61.6z"/>
		<path id="Path_3805" fill="#EA873D" d="M123.5,84.8c0,0,12.2,22.7-2.6,23.5c-3.7,0.2-6.2-0.7-7.7-2.2c-0.6-0.6-1.1-1.3-1.5-2.1
			c15.5,7.1,9.2-20.7,9.2-20.7C121.5,83.9,122.4,84.3,123.5,84.8z"/>
		<path id="Path_3806" fill="#FFCFC5" d="M116.7,72.2c-0.2,0-0.4,0-0.6-0.1c-2.5-0.5-3.1-3.8-2.7-6.5c0.1-1.2,1.1-1.6,2.4-1.5
			c2.1,0.1,5,1.7,5.5,3.4c1.2,3.6-3.6,4.7-3.6,4.7C117.3,72.2,117,72.2,116.7,72.2L116.7,72.2z"/>
		<path id="Path_3807" fill="#FFB743" d="M120.8,83.5c0,0,6.3,27.8-9.2,20.7c-0.2-0.5-0.4-0.9-0.5-1.4c-1.4-4.8,0.8-11.3,1.6-13.2
			c0.2-0.5,0.3-0.9,0.5-1.4c1.3-4.7,2.8-16,2.8-16c0.2,0,0.4,0.1,0.6,0.1c0.5,3.5,1.4,6.9,2.5,10.2
			C119.2,82.5,119.8,82.9,120.8,83.5L120.8,83.5z"/>
		<path id="Path_3808" fill="#001B70" d="M111.6,104.2c0.4,0.8,0.9,1.5,1.5,2.1c0,0-30.8,7-40.5,18.1
			c-14.4-14.4,38.5-21.6,38.5-21.6C111.2,103.2,111.4,103.7,111.6,104.2z"/>
		<path id="Path_3809" fill="#FFB743" d="M81.7,160.1L76.9,198c-0.2,0.6-0.4,1.2-0.8,1.7c-2-0.1-4-0.2-6-0.4v-0.1l5.9-41.8
			C77.8,158.4,79.7,159.3,81.7,160.1L81.7,160.1z"/>
		<path id="Path_3810" fill="#58CC8A" d="M75.9,157.6L70,199.3v0.1c-30.9-1.9-53.3-5.2-53.3-19.8c0-10.7,35.5-18.7,51.2-26.3
			C70.6,154.9,73.2,156.3,75.9,157.6L75.9,157.6z"/>
		<path id="Path_3811" fill="#FFB743" d="M76,199.7c-0.9,1.2-2.3,1.9-3.8,1.9H72c-1.1,0-2-0.9-2-2c0-0.1,0-0.1,0-0.2
			C72,199.5,74,199.6,76,199.7z"/>
		<path id="Path_3812" fill="#B70808" d="M172.8,35.8c1.1-1.1,2.3-2.1,3.6-2.9c1.3-0.9,2.7-1.6,4.2-2.1c0.7-0.3,1.5-0.5,2.3-0.6
			c0.4-0.1,0.8-0.1,1.2-0.2l0.6,0h0.6c0.4,0,0.8,0,1.2,0.1c0.4,0,0.8,0.1,1.2,0.2c0.4,0.1,0.8,0.2,1.2,0.3l0.6,0.2
			c0.1,0,0.2,0.1,0.3,0.1l0.3,0.1c1.5,0.7,2.8,1.6,4,2.7c0.3,0.3,0.6,0.6,0.9,0.8l0.8,0.9c0.5,0.6,1,1.3,1.4,2
			c0.8,1.4,1.5,2.8,2.1,4.2c0.6,1.4,1.2,2.9,1.7,4.4c1,3,1.8,6,2.5,9c0.3,1.5,0.7,3,0.9,4.6l0.4,2.3L205,64c1,6.1,1.7,12.3,1.9,18.5
			c0.1,3.1,0.1,6.2-0.1,9.3c-0.2,3.1-0.5,6.2-1.1,9.3c-0.5,3.1-1.2,6.1-2.1,9.1c-0.9,3-2,5.9-3.2,8.8c-2.6,5.7-6,11-10.3,15.6
			c-2.1,2.3-4.4,4.4-6.8,6.3c-1.2,1-2.5,1.9-3.8,2.7c-0.7,0.4-1.3,0.9-2,1.3l-2,1.2c0,0-0.1,0-0.1,0c0,0,0,0,0,0c0,0,0-0.1,0-0.1
			c0,0,0,0,0,0c5.1-3.4,9.8-7.5,13.8-12.1c4-4.7,7.2-9.9,9.7-15.5c1.2-2.8,2.3-5.7,3.2-8.6c0.9-2.9,1.6-5.9,2.2-8.9
			c0.6-3,1-6.1,1.2-9.1s0.4-6.1,0.5-9.2s-0.1-6.2-0.3-9.2s-0.7-6.1-1.2-9.2c-0.3-1.5-0.6-3-0.9-4.5c-0.3-1.5-0.7-3-1.1-4.5
			c-0.8-3-1.7-5.9-2.8-8.8c-1-2.9-2.3-5.7-3.7-8.4c-0.4-0.6-0.8-1.3-1.2-1.8l-0.7-0.9c-0.3-0.3-0.5-0.5-0.8-0.8
			c-1.1-1-2.3-1.9-3.6-2.5l-0.2-0.1c-0.1,0-0.2-0.1-0.3-0.1l-0.5-0.2c-0.2-0.1-0.3-0.1-0.5-0.2l-0.5-0.2c-0.4-0.1-0.7-0.2-1.1-0.2
			c-0.4-0.1-0.7-0.1-1.1-0.1c-1.5,0-3,0.1-4.4,0.6c-2.9,0.9-5.6,2.4-8,4.4C172.9,35.9,172.8,35.9,172.8,35.8
			C172.8,35.9,172.8,35.9,172.8,35.8C172.8,35.9,172.8,35.8,172.8,35.8L172.8,35.8z"/>
		<path id="Path_3813" fill="#0CAA4F" d="M48.6,200.3c-4.9-0.9-9.8-2-14.6-3.3c-1.2-0.3-2.4-0.7-3.6-1c-1.2-0.4-2.4-0.7-3.6-1.1
			c-2.4-0.8-4.7-1.6-7.1-2.5c-4.7-1.8-9.1-4.1-13.4-6.7c-1.1-0.7-2.1-1.4-3-2.3c-1-0.8-1.8-1.8-2.5-2.8c-0.7-1.1-1-2.4-0.9-3.7
			c0.2-1.3,0.8-2.5,1.7-3.5c0.8-1,1.8-1.8,2.9-2.5l0.4-0.3l0.4-0.3l0.8-0.5c0.6-0.3,1.1-0.6,1.7-0.9c1.1-0.6,2.3-1.1,3.4-1.6
			l3.5-1.4c2.3-0.9,4.7-1.8,7-2.6c0.6-0.2,1.2-0.4,1.8-0.6l1.8-0.6c0.6-0.2,1.2-0.4,1.8-0.6l1.8-0.5c4.8-1.3,9.7-2.3,14.7-3
			c2.5-0.3,5-0.6,7.4-0.8l3.7-0.3c1.2-0.1,2.5-0.2,3.7-0.4l0,0.1c-4.9,0.9-9.9,1.4-14.7,2.3c-4.9,0.8-9.7,1.9-14.5,3.3
			c-4.8,1.3-9.5,2.9-14.1,4.7c-2.3,0.9-4.7,1.7-6.9,2.8c-0.6,0.3-1.1,0.6-1.6,0.8L5.8,171l-0.4,0.2L5,171.5c-1,0.6-2,1.4-2.8,2.3
			c-0.8,0.9-1.4,1.9-1.7,3.1l0,0.4l0,0.2c0,0.1,0,0.1,0,0.2l0,0.4c0,0.1,0.1,0.3,0.1,0.4c0.1,0.3,0.2,0.6,0.3,0.9
			c0.1,0.3,0.3,0.5,0.4,0.8c0.6,1,1.5,2,2.4,2.8c0.9,0.8,1.9,1.5,3,2.2c2.1,1.3,4.3,2.5,6.6,3.4c2.3,1,4.6,1.9,6.9,2.7
			c9.3,3.4,18.9,6.2,28.5,8.8L48.6,200.3z"/>
		<path id="Path_3814" fill="#B70808" d="M60.2,114.7c-1.9,2.8-3.3,5.9-4.2,9.2c-0.4,1.6-0.7,3.3-0.7,4.9c-0.1,1.6,0.2,3.3,0.7,4.9
			c0.5,1.6,1.3,3,2.2,4.3c1,1.3,2.2,2.5,3.5,3.4c0.3,0.2,0.7,0.5,1,0.7l1.1,0.7c0.7,0.5,1.4,1,2.1,1.5s1.4,0.9,2.1,1.4
			s1.4,0.9,2.1,1.4c1.4,1,2.8,1.9,4.3,2.8s2.9,1.8,4.3,2.7s2.9,1.7,4.4,2.6c1.5,0.8,3,1.6,4.5,2.3s3.1,1.4,4.7,2.1
			c1.6,0.6,3.2,1.3,4.8,1.8c3.2,1.1,6.5,2,9.8,2.5c0.8,0.2,1.7,0.3,2.5,0.4l1.3,0.2c0.4,0,0.8,0.1,1.3,0.1c1.7,0.2,3.4,0.3,5.1,0.5
			c3.4,0.3,6.8,0.7,10.2,0.9s6.8,0.5,10.2,0.7c3.4,0.2,6.8,0.3,10.2,0.3c6.8,0.1,13.6-0.3,20.3-1.2c3.4-0.4,6.7-1.1,9.9-2
			c1.6-0.5,3.2-1,4.8-1.5c0.4-0.1,0.8-0.3,1.2-0.5l1.2-0.5c0.8-0.3,1.5-0.7,2.3-1.1c0,0,0.1,0,0.1,0c0,0,0,0.1,0,0.1
			c-0.7,0.4-1.5,0.8-2.2,1.2l-1.2,0.6c-0.4,0.2-0.8,0.4-1.2,0.5c-1.6,0.7-3.2,1.3-4.8,1.8c-3.3,1-6.6,1.9-10,2.4
			c-6.8,1.1-13.6,1.6-20.5,1.6c-3.4,0-6.8-0.1-10.3-0.3c-3.4-0.2-6.8-0.5-10.2-0.8c-3.4-0.3-6.8-0.7-10.2-1.2
			c-1.7-0.2-3.4-0.4-5.1-0.7c-0.4-0.1-0.8-0.1-1.3-0.2l-1.3-0.2c-0.8-0.1-1.7-0.3-2.5-0.5c-3.4-0.7-6.6-1.6-9.9-2.8l-1.2-0.4
			l-0.6-0.2l-0.6-0.2l-2.4-1c-1.6-0.7-3.1-1.3-4.7-2.1c-3.1-1.4-6.1-3-9.1-4.6c-3-1.6-5.9-3.4-8.8-5.2c-1.4-0.9-2.9-1.8-4.3-2.8
			c-0.7-0.5-1.4-1-2.1-1.5l-1.1-0.7c-0.4-0.2-0.7-0.5-1-0.8c-1.4-1.1-2.7-2.3-3.7-3.7c-2.1-2.9-3.1-6.4-2.9-10
			c0.1-1.7,0.4-3.5,1-5.1c0.5-1.6,1.2-3.2,2-4.7c0.8-1.5,1.8-2.9,2.8-4.3C60.1,114.6,60.2,114.6,60.2,114.7
			C60.2,114.6,60.2,114.6,60.2,114.7C60.2,114.6,60.3,114.7,60.2,114.7L60.2,114.7z"/>
		<path id="Path_3815" fill="#EA873D" d="M180.3,83.1c0.1,0.6,0.2,1.2,0.3,1.7c0.1,0.6,0.1,1.2,0.1,1.8s0,1.2,0,1.8
			c0,0.6-0.1,1.2-0.2,1.7c-0.2,1.2-0.6,2.3-0.8,3.4s-0.4,2.3-0.5,3.5c-0.1,0.6-0.1,1.2-0.3,1.7c0,0.3-0.1,0.6-0.2,0.9
			s-0.1,0.6-0.2,0.9c-0.3,1.2-0.7,2.3-1.3,3.4l-0.2,0.4c-0.1,0.1-0.2,0.3-0.2,0.4c-0.2,0.3-0.3,0.5-0.5,0.8
			c-0.2,0.2-0.4,0.5-0.6,0.7s-0.4,0.4-0.7,0.7c-0.9,0.9-2,1.4-3.2,1.7l-0.1-0.1c1.8-1.3,3.3-3.1,4.1-5.1c0.5-1,1-2,1.4-3.1
			c0.1-0.3,0.2-0.5,0.3-0.8l0.3-0.8c0.1-0.3,0.2-0.5,0.3-0.8l0.3-0.8c0.4-1.1,0.7-2.2,0.8-3.4c0.1-1.2,0-2.3,0.1-3.5
			c0-0.6,0-1.2,0.1-1.7c0.1-0.6,0.1-1.2,0.2-1.7s0.1-1.2,0.2-1.7s0.2-1.2,0.3-1.7L180.3,83.1z"/>
		<path id="Path_3816" fill="#2446D1" d="M125,12.3c-0.6,1.3-1.1,2.5-1.5,3.8s-0.9,2.6-1.3,3.9c-0.8,2.6-1.3,5.3-1.5,8
			c-0.1,1.4-0.1,2.7,0,4.1c0,0.3,0.1,0.7,0.1,1s0.1,0.7,0.2,1c0.1,0.7,0.1,1.4,0,2.1c-0.1,0.7-0.3,1.4-0.5,2
			c-0.2,0.7-0.4,1.3-0.7,1.9c-0.6,1.3-1.2,2.5-1.9,3.7c-1.4,2.4-2.9,4.7-4.5,7s-3.1,4.5-4.6,6.8c-0.7,1.1-1.5,2.3-2.1,3.5
			c-0.7,1.2-1.3,2.4-1.8,3.7c-0.5,1.3-0.9,2.6-1,3.9c-0.1,0.7-0.1,1.4,0,2c0.1,0.7,0.3,1.3,0.6,2l0,0c-0.7-1.2-1-2.6-0.9-4
			c0.1-1.4,0.4-2.8,0.9-4.1c1-2.6,2.3-5,3.8-7.4c3-4.7,6.4-9,9.3-13.6c0.7-1.2,1.4-2.4,2-3.6c0.6-1.2,1-2.5,1.2-3.9
			c0.1-0.7,0.1-1.4,0-2c-0.1-0.3-0.1-0.7-0.2-1s-0.1-0.7-0.2-1c-0.2-1.4-0.2-2.8-0.1-4.2c0.1-1.4,0.2-2.8,0.5-4.1
			c0.3-1.4,0.6-2.7,1-4C122.6,17.2,123.6,14.7,125,12.3L125,12.3z"/>
		<path id="Path_3817" fill="#B70808" d="M171.7,32c0.3-0.5,0.7-1.1,1.1-1.6c0.4-0.5,0.8-1,1.3-1.4c0.9-0.9,1.9-1.7,3-2.4
			c1.1-0.7,2.3-1.2,3.5-1.6c0.6-0.2,1.2-0.4,1.9-0.5c0.3-0.1,0.6-0.1,1-0.2l1-0.2c0.3-0.1,0.6,0.1,0.6,0.4s-0.1,0.6-0.4,0.6
			c0,0-0.1,0-0.1,0h-0.1l-0.9,0.1c-0.3,0-0.6,0.1-0.9,0.1c-0.6,0.1-1.2,0.2-1.8,0.4c-2.4,0.7-4.6,1.9-6.5,3.5
			c-1,0.8-1.8,1.7-2.5,2.7C171.8,32.1,171.7,32.1,171.7,32C171.7,32.1,171.7,32.1,171.7,32L171.7,32z"/>
		<path id="Path_3818" fill="#B70808" d="M205.2,34.3c2.1,3.5,3.7,7.2,4.8,11l0.4,1.4l0.4,1.5c0.2,1,0.5,1.9,0.7,2.9
			c0.1,0.5,0.2,1,0.3,1.5s0.2,1,0.3,1.5c0.2,1,0.4,2,0.6,2.9c0,0.1-0.1,0.2-0.2,0.3c0,0,0,0,0,0c-0.1,0-0.2-0.1-0.3-0.2
			c-0.2-1-0.4-2-0.6-2.9c-0.1-0.5-0.2-1-0.3-1.5c-0.1-0.5-0.2-1-0.3-1.5c-0.5-1.9-1-3.8-1.7-5.7c-1.2-3.7-3-7.3-5.1-10.6
			c-0.2-0.2-0.2-0.6,0-0.8c0.2-0.2,0.6-0.2,0.8,0C205.1,34.2,205.2,34.2,205.2,34.3L205.2,34.3z"/>
		<path id="Path_3819" fill="#B70808" d="M215.7,80.7c0.1,2,0.2,4,0.3,6s0.1,4,0.2,6s0,4,0,6s-0.1,4-0.2,6c0,0.4-0.4,0.8-0.8,0.8
			c-0.4,0-0.8-0.4-0.8-0.8c0,0,0,0,0-0.1c0.1-2,0.2-4,0.2-5.9s0.1-4,0.1-5.9c0-2,0-4-0.1-6c0-1-0.1-2-0.1-3l-0.1-3
			c0-0.3,0.3-0.6,0.6-0.6C215.4,80.1,215.7,80.3,215.7,80.7L215.7,80.7z"/>
		<path id="Path_3820" fill="#B70808" d="M212.5,128.3c-0.2,0.6-0.4,1.2-0.6,1.8s-0.4,1.2-0.7,1.8c-0.5,1.2-1,2.4-1.5,3.5
			c-0.6,1.1-1.2,2.2-2,3.3c-0.7,1.1-1.6,2-2.7,2.7c0,0-0.1,0-0.1,0c0,0,0-0.1,0-0.1c0,0,0,0,0,0c0.5-0.4,0.9-0.8,1.3-1.3
			c0.4-0.5,0.8-1,1.1-1.5c0.7-1.1,1.3-2.2,1.7-3.3c0.5-1.1,1-2.3,1.4-3.5c0.2-0.6,0.4-1.2,0.6-1.8s0.3-1.2,0.5-1.8v0
			c0.1-0.3,0.3-0.4,0.6-0.3C212.4,127.7,212.5,128,212.5,128.3C212.5,128.2,212.5,128.2,212.5,128.3L212.5,128.3z"/>
		<ellipse id="Ellipse_1166" fill="#FCB3A4" cx="143.6" cy="30.5" rx="3.3" ry="2"/>
		<ellipse id="Ellipse_1167" fill="#FCB3A4" cx="129.9" cy="30.4" rx="3.3" ry="2"/>
		<path id="Path_3821" fill="#FCB3A4" d="M135.7,23.2c0,0.5-0.1,1-0.2,1.5c-0.1,0.5-0.2,1-0.3,1.4c-0.1,0.5-0.2,1-0.2,1.5
			c-0.1,0.5-0.1,1-0.2,1.5l-0.1-0.2c0.4,0,0.8,0,1.1,0s0.8,0.1,1.1,0.1v0c-0.4,0-0.8,0.1-1.1,0.1s-0.8,0-1.1,0h-0.2l0-0.2
			c0.1-0.5,0.2-1,0.3-1.4c0.1-0.5,0.2-0.9,0.3-1.4c0-0.5,0.1-1,0.2-1.5C135.4,24.1,135.5,23.6,135.7,23.2L135.7,23.2z"/>
		<path id="Path_3822" fill="#B7402C" d="M138.7,23.5c0.3,0.6,0.8,1.1,1.4,1.3c0.3,0.2,0.6,0.3,0.9,0.3c0.2,0,0.3,0,0.5,0
			s0.3,0,0.5,0s0.3,0,0.5-0.1l0.5-0.1c0.3-0.1,0.6-0.2,0.9-0.3c0.6-0.3,1-0.8,1.1-1.5h0c0,0.4-0.1,0.7-0.2,1
			c-0.2,0.3-0.5,0.6-0.8,0.7c-0.6,0.3-1.3,0.5-2,0.4c-0.2,0-0.3,0-0.5,0s-0.3,0-0.5,0c-0.3,0-0.7-0.1-1-0.2
			c-0.3-0.1-0.6-0.3-0.9-0.6C138.9,24.2,138.7,23.9,138.7,23.5L138.7,23.5z"/>
		<path id="Path_3823" fill="#B7402C" d="M128.2,23.5c0.2,0.5,0.7,0.9,1.2,1.1c0.2,0.1,0.5,0.2,0.8,0.3c0.1,0,0.3,0,0.4,0
			c0.1,0,0.3,0,0.4,0l0.4-0.1l0.4-0.1c0.3-0.1,0.5-0.2,0.8-0.3c0.5-0.2,0.8-0.7,1-1.2h0c0,0.6-0.3,1.2-0.8,1.5
			c-0.5,0.3-1.1,0.4-1.7,0.3l-0.9-0.1c-0.3,0-0.6-0.1-0.9-0.1C128.6,24.6,128.2,24.1,128.2,23.5L128.2,23.5z"/>
		<path id="Path_3824" fill="#E0563F" d="M136.4,34.4l-0.6-0.9l0.9,0.2l0.5-0.4l1.5,1.1H136.4z"/>
		<path id="Path_3825" fill="#59312B" d="M138.7,21.4c0.4-0.2,0.9-0.4,1.3-0.5c0.2,0,0.5-0.1,0.7-0.1c0.2,0,0.5-0.1,0.7-0.2
			c0.2-0.1,0.4-0.1,0.7-0.2c0.2-0.1,0.5-0.1,0.7-0.1c0.5-0.1,1,0,1.4,0.2v0c-0.5,0-0.9,0-1.4,0.1c-0.5,0.1-0.9,0.1-1.4,0.2
			c-0.2,0-0.5,0.1-0.7,0.1c-0.2,0.1-0.4,0.2-0.7,0.2C139.6,21.2,139.2,21.3,138.7,21.4L138.7,21.4z"/>
		<path id="Path_3826" fill="#59312B" d="M133.2,21.5c-0.3-0.1-0.6-0.1-0.9-0.3c-0.1-0.1-0.3-0.1-0.4-0.2c-0.2,0-0.3-0.1-0.5-0.1
			h-0.9c-0.3,0-0.6,0-1-0.1v0c0.3-0.1,0.6-0.2,1-0.2c0.3,0,0.7,0.1,1,0.2c0.2,0.1,0.3,0.1,0.5,0.1c0.2,0,0.3,0,0.5,0.1
			C132.7,21.1,133,21.3,133.2,21.5L133.2,21.5z"/>
		<path id="Path_3827" fill="#8FEFA8" d="M140.5,62.7c0,0.2,0.1,0.4,0.2,0.5c0.1,0.3,0.1,0.6,0.2,0.9c0,0.1,0,0.2,0.1,0.3
			c0,0.5,0.1,0.8,0.1,1.3c0,0.1,0,0.3,0,0.4c-0.1,0.2,0.1,0.5,0.1,0.8c0,0.4,0,0.9,0,1.3c0,0.2-0.1,0.4-0.2,0.6
			c-0.3,0.3-0.6,0.6-0.9,0.8c-0.1,0-0.2,0.1-0.3,0c0.2-0.2,0.5-0.3,0.7-0.5c-0.1,0-0.2,0-0.3,0.1c-0.2,0.2-0.4,0.3-0.6,0.4
			c-0.1,0.1-0.1,0.1-0.4,0.2c-0.1,0.1-0.3,0-0.2,0s0-0.1-0.1-0.1s-0.4,0.1-0.4-0.1s-0.3-0.3,0.1-0.4c0.3-0.1,0.5-0.2,0.7-0.5
			c0.3-0.3,0.4-0.7,0.3-1.2c-0.1-0.4,0-0.9-0.1-1.3c0-0.5-0.1-1-0.1-1.5c0-0.2,0-0.3,0-0.5c0-0.2,0-0.5,0-0.7c0-0.3,0-0.5-0.1-0.8v0
			c0-0.2,0.1-0.3,0.3-0.2c0.1-0.1,0.1-0.2,0.2-0.2c0,0,0,0,0.1,0c0.1-0.1,0.2-0.1,0.3-0.1C140.5,62.4,140.5,62.4,140.5,62.7
			L140.5,62.7z M140.5,68.8c0.1,0,0.1-0.1,0.1-0.1C140.6,68.7,140.6,68.7,140.5,68.8L140.5,68.8z"/>
		<path id="Path_3828" fill="#8FEFA8" d="M144.4,61.5c0.1,0.1-0.1,0.1-0.1,0.2c0.3-0.1,0.5-0.1,0.8,0c0.4,0.1,0.7,0.3,0.9,0.7
			c0.1,0.1,0.1,0.2,0.2,0.3c0.2,0.3,0.4,0.7,0.4,1.1c0,0.3,0.1,0.7,0.1,1s0,0.7,0,1.1c0,0.3-0.1,0.5-0.1,0.7
			c-0.1,0.3-0.2,0.6-0.3,0.9c0,0.3-0.2,0.5-0.4,0.8c-0.1,0.1-0.1,0.1-0.2,0.2c-0.1,0.1-0.3,0.2-0.5,0.2c-0.1,0-0.2,0-0.2,0.1
			c-0.1,0.1-0.2,0.1-0.2,0c-0.1,0-0.1-0.1-0.1-0.2c0,0,0-0.1-0.1-0.1c-0.1,0.1-0.1,0.1-0.2,0.1c-0.1,0-0.2,0-0.3,0
			c-0.2,0-0.4,0-0.5-0.2c-0.1,0-0.1-0.1-0.2-0.2c-0.1-0.1-0.2-0.3-0.4-0.3c0.1-0.1,0.1-0.1,0-0.2c-0.3-0.2-0.5-0.5-0.5-0.9
			c-0.1-0.5-0.1-1-0.2-1.4c0-0.1,0-0.3,0-0.4l0-1c0-0.5,0.1-1,0.3-1.5c0.1-0.3,0.3-0.5,0.5-0.7c0.1-0.1,0.3-0.2,0.4-0.2
			c0.1-0.1,0.2-0.2,0.4-0.1c0,0,0.1,0,0.1,0c0,0,0.1,0,0.1-0.1C144.3,61.4,144.4,61.4,144.4,61.5L144.4,61.5z M144,62.1
			c-0.1,0.1-0.3,0.3-0.3,0.5c-0.1,0.2-0.1,0.5-0.1,0.7c0,0.1,0.1,0.2,0.1,0.3c0,0.3,0,0.7,0,1c0,0.4,0,0.7,0.1,1.1
			c0,0.4,0.1,0.7,0.1,1.1c0,0.2,0.1,0.4,0.2,0.6c0.1,0.1,0.2,0.3,0.3,0.4c-0.2,0-0.3-0.2-0.4-0.3c0,0.1,0.1,0.1,0.1,0.2
			c0,0,0.1,0.1,0.1,0.1c0,0,0.1,0.1,0.1,0.1c0.1,0,0.2,0,0.3,0.1c0,0.1,0.1,0.1,0.2,0.1c0.2,0,0.4-0.2,0.4-0.4
			c0-0.3,0.1-0.5,0.1-0.8c0.1-0.3,0.1-0.7,0.1-1.1c0-0.4,0-0.8,0-1.2c0.1-0.5,0.1-1.1,0-1.6c-0.1-0.3-0.2-0.7-0.3-1
			c-0.1-0.1-0.2-0.2-0.3-0.2c-0.1,0-0.2,0-0.4,0C144.3,62,144.2,62,144,62.1L144,62.1z"/>
		<path id="Path_3829" fill="#8FEFA8" d="M151.8,61.4c-0.1,0.3-0.2,0.5-0.3,0.8c0,0,0,0.1,0,0.1c-0.1,0.4-0.2,0.8-0.3,1.1
			c-0.1,0.3-0.2,0.6-0.3,0.9c-0.1,0.2-0.1,0.3-0.1,0.5c0,0.2,0.1,0.5,0.1,0.7c0,0.6,0,1.2,0.1,1.8v0.1c0.1,0.2,0,0.4-0.1,0.6
			c-0.1-0.1-0.1-0.1-0.3,0s-0.1,0.1-0.2,0c-0.1,0-0.1-0.1-0.2-0.1c0,0-0.1-0.1-0.2-0.1c0,0,0,0,0,0c-0.1,0-0.1-0.1-0.2-0.1
			s0,0.1-0.1,0.2c0,0,0,0,0,0c0,0-0.1-0.1-0.1-0.2c-0.1-0.5-0.1-1.1-0.1-1.6c0-0.3,0-0.6-0.1-1c0-0.2-0.1-0.5-0.3-0.6
			c-0.1-0.1-0.2-0.3-0.2-0.5c-0.2-0.6-0.4-1.2-0.5-1.7c-0.1-0.3-0.2-0.6-0.4-0.9c-0.1-0.1,0-0.2,0-0.3c0,0,0,0,0.1,0
			c0.4,0,0.7,0.1,1,0.4c0.1,0.1,0.2,0.2,0.3,0.4c0-0.1,0-0.2-0.1-0.3c0-0.1,0-0.1,0-0.2c0.1,0,0.2,0.1,0.2,0.2
			c0,0.1,0.1,0.2,0.1,0.2c0.1,0.1,0.1,0.2,0.1,0.3c0.1,0.4,0.3,0.7,0.4,1.1c0.1,0.2,0.2,0.4,0.3,0.5c0.3-1,0.7-2,1.1-3
			C151.8,61.1,151.8,61.2,151.8,61.4L151.8,61.4z M149.2,61.5C149.3,61.5,149.3,61.6,149.2,61.5c-0.1,0.1-0.1,0-0.1,0
			C149.1,61.4,149.1,61.4,149.2,61.5C149.2,61.4,149.2,61.4,149.2,61.5z"/>
		<path id="Path_3830" fill="#0CAA4F" d="M81.7,206.3c11.9-0.3,23.8,0.3,35.6,1.6l4.4,0.5l4.4,0.6c0.7,0.1,1.5,0.2,2.2,0.3l2.2,0.4
			l2.2,0.4l1.1,0.2c0.4,0.1,0.7,0.1,1.1,0.2l4.4,0.9c0.7,0.1,1.5,0.3,2.2,0.5l2.2,0.5l2.2,0.5c0.4,0.1,0.7,0.2,1.1,0.3l1.1,0.3
			l4.3,1.3c1.4,0.4,2.8,0.9,4.3,1.2l1.1,0.3c0.4,0.1,0.7,0.2,1.1,0.2l2.2,0.4l0.5,0.1l0.5,0.1l1.1,0.2l1.1,0.2l0.5,0.1l0.6,0.1
			c1.5,0.1,2.9,0.3,4.4,0.4c3,0.2,5.9,0.2,8.9,0.2c3-0.1,5.9-0.2,8.9-0.5s5.9-0.6,8.9-0.9s5.9-0.9,8.8-1.4c5.8-1,11.6-2.3,17.4-3.7
			s11.5-2.9,17.3-4.4c2.9-0.8,5.7-1.5,8.6-2.3c1.4-0.4,2.9-0.7,4.3-1.1c0.7-0.2,1.4-0.4,2.1-0.5l1.1-0.3c0.3-0.1,0.7-0.2,1-0.3
			c5.6-1.9,10.6-5,14.8-9.1c1.1-1,2.1-2.1,3-3.2c0.9-1.1,1.8-2.3,2.6-3.5c0.8-1.2,1.5-2.5,2.1-3.8c0.3-0.6,0.5-1.3,0.7-2
			c0.1-0.3,0.1-0.6,0.2-1V180c0-0.1,0-0.1,0-0.2v-0.1l0-0.1c0-0.1,0-0.1,0-0.2c0-0.1,0-0.2,0-0.3c0-0.4,0.1-0.8,0.2-1.2
			c0.1-0.4,0.2-0.7,0.3-1.1c0.2-0.7,0.4-1.5,0.6-2.2c0.4-1.4,0.8-2.8,1.1-4.3c0.3-1.4,0.5-2.9,0.6-4.3c0.1-1.4-0.1-2.8-0.6-4.1
			c-0.5-1.3-1.5-2.3-2.7-2.9c-1.3-0.6-2.7-0.9-4.1-0.9c-0.7,0-1.4,0-2.2,0h-2.2c-0.7,0-1.5-0.1-2.2-0.1l-1.1-0.1l-1.1-0.1
			c-5.9-0.7-11.8-1.8-17.5-3.4c-2.9-0.7-5.7-1.5-8.6-2.3c-0.7-0.2-1.4-0.4-2.2-0.5l-1.1-0.3c-0.4-0.1-0.7-0.1-1.1-0.2
			s-0.7-0.1-1.1-0.2l-1.1-0.2l-0.5-0.1c-0.2,0-0.4,0-0.6,0l-1.1-0.1v-0.1l1.1,0c0.2,0,0.4,0,0.6,0l0.6,0.1l1.1,0.1
			c0.4,0.1,0.7,0.1,1.1,0.2s0.7,0.1,1.1,0.2l1.1,0.2c0.7,0.1,1.5,0.3,2.2,0.5c2.9,0.7,5.8,1.4,8.7,2.1s5.8,1.3,8.7,1.8
			c0.7,0.1,1.5,0.2,2.2,0.4s1.5,0.2,2.2,0.3l2.2,0.3c0.7,0.1,1.5,0.1,2.2,0.2l1.1,0.1l1.1,0c0.7,0,1.5,0.1,2.2,0.1l2.2,0
			c0.7,0,1.5,0,2.3,0c1.6,0,3.1,0.4,4.5,1c1.5,0.7,2.7,1.9,3.3,3.4c0.6,1.5,0.8,3,0.8,4.6c-0.1,1.5-0.3,3-0.6,4.5
			c-0.3,1.5-0.7,2.9-1.1,4.4c-0.2,0.7-0.4,1.4-0.6,2.1c-0.2,0.7-0.3,1.4-0.4,2.1v0.2c0,0,0,0.1,0,0.1l0,0.1c0,0.1,0,0.2,0,0.4v0.3
			c0,0.4-0.1,0.8-0.2,1.2c-0.2,0.7-0.5,1.5-0.8,2.2c-0.6,1.4-1.4,2.7-2.2,4c-1.7,2.5-3.6,4.8-5.8,6.9c-4.4,4.2-9.6,7.4-15.3,9.3
			c-0.4,0.1-0.7,0.2-1.1,0.3l-1.1,0.3c-0.7,0.2-1.5,0.4-2.2,0.5c-1.4,0.3-2.9,0.7-4.3,1c-2.9,0.7-5.8,1.5-8.6,2.2
			c-5.8,1.5-11.5,2.9-17.3,4.1c-2.9,0.6-5.8,1.3-8.7,1.8c-1.5,0.3-2.9,0.6-4.4,0.8l-2.2,0.4l-2.2,0.4c-5.9,1-11.8,1.8-17.7,2.3
			c-5.9,0.6-11.9,0.7-17.8,0.5c-1.5,0-3-0.2-4.5-0.3l-0.6,0l-0.6-0.1l-1.1-0.1l-1.1-0.1l-0.6-0.1l-0.6-0.1l-2.2-0.4
			c-0.4-0.1-0.7-0.1-1.1-0.2l-1.1-0.2l-1.1-0.2c-0.4-0.1-0.7-0.2-1.1-0.3l-2.2-0.6c-5.7-1.7-11.4-3.1-17.2-4.3
			c-0.4-0.1-0.7-0.2-1.1-0.2l-1.1-0.2l-2.2-0.4l-2.2-0.4c-0.7-0.1-1.5-0.2-2.2-0.3l-4.4-0.7l-4.4-0.6c-5.9-0.7-11.8-1.3-17.7-1.7
			s-11.9-0.6-17.8-0.7L81.7,206.3z"/>
	</g>
</g>
</svg>
