<?xml version="1.0" encoding="iso-8859-1"?>
<!-- Generator: Adobe Illustrator 24.0.1, SVG Export Plug-In . SVG Version: 6.00 Build 0)  -->
<svg version="1.1" id="Layer_1" xmlns="http://www.w3.org/2000/svg" xmlns:xlink="http://www.w3.org/1999/xlink" x="0px" y="0px"
	 viewBox="0 0 38 58.3" enable-background="new 0 0 38 58.3" xml:space="preserve">
<g id="Geyser_Havells" transform="translate(-13.851 -12.684)">
	<path id="Path_3844" fill="#F0D2DA" d="M51.9,45.5v7.6c0,6.3-5.1,11.4-11.4,11.4H25.3c-6.3,0-11.4-5.1-11.4-11.4v-7.6
		C13.9,45.5,30.2,51.4,51.9,45.5z M36,56.1c0-1.6-1.3-3-3-3c-1.6,0-3,1.3-3,3c0,1.6,1.3,3,3,3c0.8,0,1.5-0.3,2.1-0.9
		C35.7,57.6,36,56.8,36,56.1z"/>
	<path id="Path_3845" fill="#E9E9E9" d="M51.9,24.1v21.4c-21.6,5.9-38,0-38,0V24.1c0-6.3,5.1-11.4,11.4-11.4h15.2
		C46.7,12.7,51.8,17.8,51.9,24.1z"/>
	<path id="Path_3846" fill="#FFFFFF" d="M33,53.1c1.6,0,3,1.3,3,3c0,1.6-1.3,3-3,3c-1.6,0-3-1.3-3-3c0-0.8,0.3-1.5,0.9-2.1
		C31.5,53.4,32.2,53.1,33,53.1z"/>
	<path id="Path_3847" fill="none" stroke="#F48282" stroke-miterlimit="10" d="M36,56.1c0,1.6-1.3,3-3,3c-1.6,0-3-1.3-3-3s1.3-3,3-3
		c0,0,0,0,0,0C34.7,53.1,36,54.4,36,56.1z"/>
	<path id="Path_3848" fill="#F0D2DA" d="M23.4,64.5v4.8c0,0-0.3,1.7,2.1,1.7s1.9-1.6,1.9-1.6v-4.9H23.4z"/>
	<path id="Path_3849" fill="#F0D2DA" d="M37.6,64.5v4.8c0,0-0.3,1.7,2.1,1.7s1.9-1.6,1.9-1.6v-4.9H37.6z"/>
</g>
</svg>
