<?xml version="1.0" encoding="iso-8859-1"?>
<!-- Generator: Adobe Illustrator 24.0.1, SVG Export Plug-In . SVG Version: 6.00 Build 0)  -->
<svg version="1.1" id="Layer_1" xmlns="http://www.w3.org/2000/svg" xmlns:xlink="http://www.w3.org/1999/xlink" x="0px" y="0px"
	 viewBox="0 0 13 20.7" enable-background="new 0 0 13 20.7" xml:space="preserve">
<g id="Gyser_Icon" transform="translate(.5 .5)">
	<path id="Rectangle_65" fill="none" stroke="#136DC7" stroke-linecap="round" stroke-miterlimit="10" d="M6,0L6,0c3.3,0,6,2.7,6,6
		v5.2c0,3.3-2.7,6-6,6l0,0c-3.3,0-6-2.7-6-6V6C0,2.7,2.7,0,6,0z"/>
	<path id="Path_1992" fill="none" stroke="#136DC7" stroke-miterlimit="10" d="M10.1,1.5c0.1,0.4,0.1,0.7,0.1,1.1
		c0,2.9-1.9,5.3-4.2,5.3S1.8,5.5,1.8,2.6c0-0.3,0-0.7,0-1"/>
	<circle id="Ellipse_13" fill="none" stroke="#136DC7" stroke-miterlimit="10" cx="6" cy="4.9" r="1.1"/>
	<path id="Line_9" fill="none" stroke="#136DC7" stroke-linecap="round" stroke-miterlimit="10" d="M3.8,16.9V19"/>
	<path id="Line_10" fill="none" stroke="#136DC7" stroke-linecap="round" stroke-miterlimit="10" d="M8.1,16.9v2.8"/>
	<path id="Line_11" fill="none" stroke="#136DC7" stroke-linecap="round" stroke-miterlimit="10" d="M8.1,18.3h1.1"/>
</g>
</svg>
