<?xml version="1.0" encoding="iso-8859-1"?>
<!-- Generator: Adobe Illustrator 24.0.1, SVG Export Plug-In . SVG Version: 6.00 Build 0)  -->
<svg version="1.1" id="havells_logo" xmlns="http://www.w3.org/2000/svg" xmlns:xlink="http://www.w3.org/1999/xlink" x="0px"
	 y="0px" viewBox="0 0 35.9 34.8" enable-background="new 0 0 35.9 34.8" xml:space="preserve">
<path id="Path_3688" fill="#ED1C24" d="M12.1,24c-0.6,2.6-1.4,7-3.2,8.6C8.6,33,8.1,33.2,7.6,33c-0.2,0-0.4-0.2-0.8-0.4
	c-0.4-0.4-0.7-0.9-1-1.4c-0.8-1.4-1.2-3-1.4-4.6c-0.1-1.2,0.6-2.4,1.6-3c0.8-0.2,1.6-0.2,2.4,0C9.7,23.8,10.9,23.8,12.1,24L12.1,24z
	"/>
<path id="Path_3689" fill="#ED1C24" d="M7.4,10.4c-1,0.2-2-0.3-2.4-1.2C4.9,8,5.1,6.7,5.6,5.5c0.3-0.7,0.6-1.4,1-2
	c0.4-0.8,1-1.8,2-1.8c1.4,0,2.6,3.2,2.8,4.2c0.5,1.4,0.8,2.8,1,4.2L7.4,10.4L7.4,10.4z"/>
<path id="Path_3690" fill="#ED1C24" d="M5.4,4.1c-1.2,2.4-2,5.6,0,6.8C6.5,11.3,7.8,11.4,9,11c2.2-0.2,4-0.2,6.4-0.4
	c1.7-0.1,3.3-0.5,4.8-1.4c1.2-0.8,2-2.1,2.2-3.6c0.2-2,0-4.2,0.8-5.2s2.4-0.2,3.4,0.4c5,2.7,8.4,7.7,9.2,13.4
	c0.4,2.9,0.2,5.8-0.6,8.6c-1.3,4.5-4.2,8.4-8.2,11c-1,0.6-2.6,1.6-3.6,0.6c-0.4-0.6-0.6-1.3-0.6-2c0-4.4-0.4-7.2-4.4-8.8
	c-1.3-0.4-2.6-0.6-4-0.4c-2.4-0.2-4.6-0.4-7-0.6c-0.8-0.1-1.5,0.1-2.2,0.4c-1.6,1-2,3.8-0.2,7.2C-1.8,24-1.6,11.2,5.4,4.1L5.4,4.1z"
	/>
</svg>
