<?xml version="1.0" encoding="iso-8859-1"?>
<!-- Generator: Adobe Illustrator 24.0.1, SVG Export Plug-In . SVG Version: 6.00 Build 0)  -->
<svg version="1.1" id="Layer_1" xmlns="http://www.w3.org/2000/svg" xmlns:xlink="http://www.w3.org/1999/xlink" x="0px" y="0px"
	 viewBox="0 0 136.1 112.8" enable-background="new 0 0 136.1 112.8" xml:space="preserve">
<g id="Living_Room_Grey_Illustration" transform="translate(0 .5)">
	<path id="Path_3713" fill="#FFFFFF" d="M112.3,110.5c13.1,0,23.8-10.6,23.8-23.8v-27c-0.9-24.4-9.2-57.4-48.3-50.8
		c-38.3,6.5-33.6,26.3-58.1,31.6s-42.3,70-18.4,70H112.3z"/>
	<path id="Path_3714" fill="#F2F2F2" d="M114.5,110.8c11.9,0,21.6-8.1,21.6-18V72.3c-0.9-18.5-8.4-43.6-43.8-38.6
		c-34.7,5-30.4,20-52.6,24s-38.4,53.1-16.6,53.1H114.5z"/>
	<path id="Path_3715" fill="#E3E3E3" d="M24.9,73.7c-2,0-3.6-1.5-3.6-3.5V43.8c0-2.9,2.4-5.3,5.3-5.3h62.2c2.9,0,5.3,2.4,5.3,5.3
		v8.6c0,0.2-0.1,0.5-0.1,0.7v17.1c0,1.9-1.6,3.5-3.5,3.5c0,0-0.1,0-0.1,0C90.4,73.7,24.9,73.7,24.9,73.7z"/>
	<path id="Path_3716" fill="#D3D3D3" d="M93.8,52.2v19.6c0,1-0.8,1.8-1.8,1.8c0,0,0,0,0,0h-1.8c2,0,3.6-1.5,3.6-3.5V53
		C93.7,52.8,93.7,52.5,93.8,52.2z"/>
	<path id="Path_3717" fill="#C1C0C0" d="M45.1,86l-1,3.8H13.5c-2,0-3.6-1.6-3.6-3.6c0,0,0,0,0,0V52.9c0-2,1.6-3.6,3.6-3.6
		c0,0,0,0,0,0h4.8c1.9,0,3.5,1.6,3.5,3.5c0,0,0,0.1,0,0.1v19c0,0.9,0.7,1.6,1.6,1.6c0,0,0,0,0,0H91l1.6-0.2c0.8-0.6,1.8-0.9,1.8-1.6
		s0-19.6,0-19.6c0.5-1.7,2-2.8,3.7-2.8h4.8c1.9,0,3.5,1.6,3.5,3.5c0,0,0,0.1,0,0.1v33.3c0,2-1.5,3.6-3.5,3.6H89.2l-1.9-6.3h3.5
		c1.1,0,2.1-0.9,2.1-2c0,0,0-0.1,0-0.1c0-1.2-0.9-2.1-2.1-2.1H43.5c-1.2,0-2.1,0.9-2.1,2.1s0.9,2.1,2.1,2.1c0,0,0,0,0,0h2.3L45.1,86
		z"/>
	<path id="Path_3718" fill="#D3D3D3" d="M21.8,70.1c0,1.9,1.6,3.5,3.5,3.5c0,0,0.1,0,0.1,0h-2c-0.9,0-1.6-0.7-1.6-1.6c0,0,0,0,0,0
		V70.1z"/>
	<path id="Path_3719" fill="#EAEAEA" d="M96.2,12.9c6.3,0,11.4,5.8,11.4,12.9H84.8C84.8,18.7,89.9,12.9,96.2,12.9z"/>
	<path id="Path_3720" fill="#DDDDDD" d="M46,96.9c10.2,1.2,17.5,4,17.5,7.4c0,4.4-12.6,8-28.2,8S7,108.6,7,104.2s12.6-8,28.2-8
		c2.3,0,4.6,0.1,6.8,0.2h0.2l-2.3,8.9h2.9L46,96.9z"/>
	<path id="Path_3721" fill="#FFFFFF" d="M45.4,96.9l-3.2,8.5h-2.9l2.3-8.8l1.9-7.1l1-3.8l0.6-2.5h41.5l1.9,6.3l4.7,15.9h-3.3
		l-6.3-16l-1.2-2.9H49.3l-1.1,3L45.4,96.9z"/>
	<path id="Path_3722" fill="#E6E6E6" d="M86.6,83.5H42.8c-1.2,0-2.1-0.9-2.1-2.1c0-1.1,0.9-2.1,2-2.1c0,0,0.1,0,0.1,0h47.3
		c1.2,0,2.1,0.9,2.1,2.1s-0.9,2.1-2.1,2.1c0,0,0,0,0,0H86.6z"/>
	<path id="Path_3723" fill="#FFFFFF" d="M128.2,89.4v8.8c0,1.2-1,2.2-2.2,2.2h-13.9c-1.2,0-2.2-1-2.2-2.2v-8.8c0-1.2,1-2.2,2.2-2.2
		h14C127.2,87.3,128.2,88.2,128.2,89.4z"/>
	<path id="Path_3724" fill="none" stroke="#B7B7B7" stroke-miterlimit="10" d="M118.9,88.2V12.5c0-6.9-4.9-12.5-11-12.5h-1.1
		c-6.1,0-11,5.6-11,12.5v0.8"/>
</g>
</svg>
