<?xml version="1.0" encoding="iso-8859-1"?>
<!-- Generator: Adobe Illustrator 24.0.1, SVG Export Plug-In . SVG Version: 6.00 Build 0)  -->
<svg version="1.1" id="Master_Bedroom_Illustration"
	 xmlns="http://www.w3.org/2000/svg" xmlns:xlink="http://www.w3.org/1999/xlink" x="0px" y="0px" viewBox="0 0 133.8 101.2"
	 enable-background="new 0 0 133.8 101.2" xml:space="preserve">
<path id="Path_3700" fill="#FFFFFF" d="M110.4,100.9c12.9,0,23.4-10.5,23.4-23.4V50.9c-0.9-24-9.1-56.5-47.5-50
	C48.7,7.4,53.3,26.9,29.2,32C5.1,37.2-12.4,101,11.2,101L110.4,100.9L110.4,100.9z"/>
<path id="Path_3701" fill="#EDEDED" d="M112.6,101.2c11.7,0,21.3-7.9,21.3-17.5v-20c-0.9-18-8.3-42.5-43.1-37.6
	c-34.1,4.9-29.9,19.5-51.8,23.4s-37.8,51.8-16.4,51.8L112.6,101.2z"/>
<path id="Path_3702" fill="#FFFFFF" d="M37.6,54.1l3.7,9.5H28.1l3.8-9.5H37.6z"/>
<path id="Path_3703" fill="#DBDBDB" d="M26.3,72.9h16.9v26.4H26.3V72.9z"/>
<path id="Path_3704" fill="#FFFFFF" d="M32.1,72.1c0-0.4,0.4-0.8,0.8-0.8c0,0,0,0,0.1,0h3.4c0.4,0,0.8,0.3,0.8,0.8c0,0,0,0,0,0
	c0,0.4-0.3,0.8-0.8,0.9H33C32.5,72.9,32.1,72.6,32.1,72.1z"/>
<path id="Path_3705" fill="#C1C1C1" d="M114.6,13.9v14.4l-3.3-3.1v-8h-5l-3-3.3H114.6z"/>
<path id="Path_3706" fill="#A3A3A3" d="M114.6,28.3h-11.3V13.9l3,3.3v8h5L114.6,28.3z"/>
<path id="Rectangle_2432" fill="#FFFFFF" d="M106.3,17.2h5v7.9h-5V17.2z"/>
<path id="Path_3707" fill="#D3D3D3" d="M119.4,28.3v3H88v-3H119.4z"/>
<path id="Path_3708" fill="#FFFFFF" d="M123.1,92.2v7h-2.8v-5.7H49.7v5.7h-2.8V71h76.2C123.1,71,123.1,92.2,123.1,92.2z"/>
<path id="Path_3709" fill="#D3D3D3" d="M123.1,44.5V71h-2.8v-7c0-0.8-0.7-1.4-1.5-1.5h-10.5c0.4,0,0.7-0.3,0.7-0.6c0,0,0,0,0,0V49.1
	c0-0.4-0.3-0.7-0.6-0.7c0,0,0,0,0,0H87c-0.4,0-0.7,0.3-0.7,0.6c0,0,0,0,0,0v12.8c0,0.4,0.3,0.7,0.6,0.7c0,0,0,0,0,0h-6.9
	c0.4,0,0.7-0.3,0.7-0.6c0,0,0,0,0,0V49.1c0-0.4-0.3-0.7-0.6-0.7c0,0,0,0,0,0H58.8c-0.4,0-0.7,0.3-0.7,0.6c0,0,0,0,0,0v12.8
	c0,0.4,0.3,0.7,0.6,0.7c0,0,0,0,0,0h-7.4c-0.9,0-1.6,0.8-1.7,1.7V71h-2.8V44.5c0-1,0.8-1.8,1.7-1.8c0,0,0,0,0,0h72.7
	C122.4,42.8,123.1,43.6,123.1,44.5z"/>
<path id="Path_3710" fill="#B7B7B7" d="M120.3,64v7H49.7v-6.8c0-0.9,0.8-1.6,1.7-1.7h67.4c0.8-0.1,1.5,0.6,1.6,1.4
	C120.3,64,120.3,64,120.3,64z"/>
<path id="Path_3711" fill="#FFFFFF" d="M108.9,49.1v12.8c0,0.4-0.3,0.7-0.6,0.7c0,0,0,0,0,0H87c-0.4,0-0.7-0.3-0.7-0.6c0,0,0,0,0,0
	V49.1c0-0.4,0.3-0.7,0.6-0.7c0,0,0,0,0,0h21.3C108.6,48.4,108.9,48.7,108.9,49.1C108.9,49.1,108.9,49.1,108.9,49.1z"/>
<path id="Path_3712" fill="#FFFFFF" d="M80.8,49.1v12.8c0,0.4-0.3,0.7-0.6,0.7c0,0,0,0,0,0H58.8c-0.4,0-0.7-0.3-0.7-0.6c0,0,0,0,0,0
	V49.1c0-0.4,0.3-0.7,0.6-0.7c0,0,0,0,0,0h21.3C80.5,48.4,80.8,48.7,80.8,49.1C80.8,49.1,80.8,49.1,80.8,49.1z"/>
<path id="Line_81" fill="none" stroke="#FFFFFF" stroke-miterlimit="10" d="M34.8,63.5v7.6"/>
</svg>
