<?xml version="1.0" encoding="iso-8859-1"?>
<!-- Generator: Adobe Illustrator 24.0.1, SVG Export Plug-In . SVG Version: 6.00 Build 0)  -->
<svg version="1.1" id="Off_Button" xmlns="http://www.w3.org/2000/svg" xmlns:xlink="http://www.w3.org/1999/xlink" x="0px" y="0px"
	 viewBox="0 0 50 25" enable-background="new 0 0 50 25" xml:space="preserve">
<path id="white_bg" fill="#FFFFFF" d="M12.5,0h25C44.4,0,50,5.6,50,12.5l0,0C50,19.4,44.4,25,37.5,25h-25C5.6,25,0,19.4,0,12.5l0,0
	C0,5.6,5.6,0,12.5,0z"/>
<g id="content" transform="translate(8.499 6)" opacity="0.4">
	<path id="not_connected_icon" fill="#181818" stroke="#181818" stroke-width="0.55" stroke-linecap="round" d="M17.1,1
		c-1.4,0-2.7,0.8-3.4,2l0.6,0.3c0.9-1.6,3-2.1,4.5-1.2c1,0.6,1.6,1.7,1.6,2.9c0,0.1,0,0.2,0,0.3l0,0.4h0.4c1.3,0,2.3,1,2.3,2.3
		c0,0.7-0.3,1.3-0.8,1.7l0.4,0.5C24,9.1,24.1,7.3,23,6c-0.5-0.6-1.2-0.9-1.9-1V5C21.1,2.8,19.3,1,17.1,1z M11.7,2.4l-0.4,0.5
		l1.8,1.5c-1.8,0.4-2.9,2.1-2.6,3.9c0.3,1.5,1.7,2.6,3.3,2.6h7.4l0.7,0.6l0.4-0.5L11.7,2.4z M13.8,5l6.6,5.3h-6.5
		c-1.5,0-2.7-1.2-2.7-2.6c0-1.4,1-2.5,2.4-2.7L13.8,5z"/>
</g>
</svg>
