<?xml version="1.0" encoding="iso-8859-1"?>
<!-- Generator: Adobe Illustrator 24.0.1, SVG Export Plug-In . SVG Version: 6.00 Build 0)  -->
<svg version="1.1" id="Off_State_Big" xmlns="http://www.w3.org/2000/svg" xmlns:xlink="http://www.w3.org/1999/xlink" x="0px"
	 y="0px" viewBox="0 0 69 40" enable-background="new 0 0 69 40" xml:space="preserve">
<g id="black_bg">
	<path fill="none" d="M20,0h29c11,0,20,9,20,20l0,0c0,11-9,20-20,20H20C9,40,0,31,0,20l0,0C0,9,9,0,20,0z"/>
	<path fill="none" stroke="#181818" d="M20,0.5h29c10.8,0,19.5,8.7,19.5,19.5l0,0c0,10.8-8.7,19.5-19.5,19.5H20
		C9.2,39.5,0.5,30.8,0.5,20l0,0C0.5,9.2,9.2,0.5,20,0.5z"/>
</g>
<g id="content" transform="translate(14.476 11)" opacity="0.4">
	<path id="on_icon_green" fill="#181818" stroke="#181818" stroke-width="0.5" d="M33.8,16.7c-0.7,0-1.4-0.1-2.1-0.3
		c-2-0.5-3.6-1.9-4.6-3.7c-1-1.8-1.3-3.9-0.7-5.8c0.5-2,1.8-3.6,3.6-4.6c0.3-0.2,0.7-0.1,1,0.2s0.1,0.7-0.2,1c0,0,0,0-0.1,0
		c0,0-0.1,0-0.1,0.1c-1.4,0.8-2.5,2.2-2.9,3.7c-0.5,1.6-0.3,3.3,0.6,4.8c1.6,2.9,5.2,4.1,8.2,2.6c0.1,0,0.2-0.1,0.3-0.2l0,0
		c1.5-0.8,2.6-2.1,3-3.8c0.5-1.6,0.3-3.4-0.6-4.8c-0.1-0.2-0.2-0.3-0.3-0.5c-0.5-0.8-1.2-1.4-2-1.8c-0.3-0.2-0.4-0.6-0.3-0.9
		c0.2-0.3,0.6-0.4,0.9-0.3c1,0.6,1.8,1.3,2.4,2.2c0.1,0.2,0.3,0.4,0.4,0.6c1,1.8,1.3,3.9,0.7,5.8c-0.5,2-1.9,3.6-3.7,4.6
		c-0.1,0.1-0.3,0.1-0.4,0.2C36,16.4,34.9,16.7,33.8,16.7z M33.8,9.4c-0.4,0-0.7-0.3-0.7-0.7v-8c0-0.4,0.3-0.7,0.7-0.7
		s0.7,0.3,0.7,0.7l0,0v8C34.4,9.1,34.1,9.4,33.8,9.4L33.8,9.4z"/>
	<text transform="matrix(1 0 0 1 -6.376 14.022)" fill="#181818" font-family="'Aileron-SemiBold'" font-size="12px">OFF</text>
</g>
</svg>
