<?xml version="1.0" encoding="iso-8859-1"?>
<!-- Generator: Adobe Illustrator 24.0.1, SVG Export Plug-In . SVG Version: 6.00 Build 0)  -->
<svg version="1.1" id="Offline_button" xmlns="http://www.w3.org/2000/svg" xmlns:xlink="http://www.w3.org/1999/xlink" x="0px"
	 y="0px" viewBox="0 0 69 40" enable-background="new 0 0 69 40" xml:space="preserve">
<g id="black_bg">
	<path fill="none" d="M20,0h29c11,0,20,9,20,20l0,0c0,11-9,20-20,20H20C9,40,0,31,0,20l0,0C0,9,9,0,20,0z"/>
	<path fill="none" stroke="#181818" d="M20,0.5h29c10.8,0,19.5,8.7,19.5,19.5l0,0c0,10.8-8.7,19.5-19.5,19.5H20
		C9.2,39.5,0.5,30.8,0.5,20l0,0C0.5,9.2,9.2,0.5,20,0.5z"/>
</g>
<path id="not_connected" opacity="0.4" fill="#181818" stroke="#181818" stroke-width="0.55" stroke-linecap="round" enable-background="new    " d="
	M34.3,12c-2.1,0-4,1.1-5.1,2.9l0.8,0.5c1.4-2.3,4.4-3.1,6.7-1.8c1.5,0.9,2.4,2.5,2.4,4.2c0,0.1,0,0.3,0,0.4l-0.1,0.5h0.6
	c1.9,0,3.4,1.5,3.4,3.4c0,1-0.4,1.9-1.1,2.6l0.7,0.7c1.8-1.6,2-4.4,0.4-6.2c-0.7-0.8-1.7-1.3-2.8-1.5c0,0,0-0.1,0-0.1
	C40.2,14.6,37.6,12,34.3,12z M26.3,14.1l-0.6,0.8l2.7,2.2c-2.6,0.6-4.3,3.2-3.7,5.8c0.5,2.2,2.5,3.8,4.8,3.9h10.9l1.1,0.9l0.6-0.8
	L26.3,14.1z M29.4,17.9l9.7,7.9h-9.7c-2.2,0-3.9-1.8-3.9-3.9c0-2,1.5-3.7,3.5-3.9L29.4,17.9z"/>
</svg>
