<?xml version="1.0" encoding="iso-8859-1"?>
<!-- Generator: Adobe Illustrator 24.0.1, SVG Export Plug-In . SVG Version: 6.00 Build 0)  -->
<svg version="1.1" id="Layer_1" xmlns="http://www.w3.org/2000/svg" xmlns:xlink="http://www.w3.org/1999/xlink" x="0px" y="0px"
	 viewBox="0 0 9.6 16.6" enable-background="new 0 0 9.6 16.6" xml:space="preserve">
<path id="Power_icon_Red" fill="#FA7373" stroke="#FFFFFF" stroke-width="0.6" d="M3,16.3c0.1,0,0.1,0,0.2,0c0.3,0,0.5-0.1,0.6-0.4
	L9.2,5.7c0.2-0.3,0.1-0.8-0.3-1C8.8,4.6,8.7,4.6,8.6,4.6H6.8l0.9-3.4c0.1-0.2,0-0.4-0.1-0.6C7.4,0.4,7.2,0.3,6.9,0.3H2.5
	c-0.3,0-0.6,0.3-0.7,0.6L0.3,9c0,0.2,0,0.4,0.2,0.6C0.6,9.8,0.8,9.8,1,9.8h1.8l-0.3,5.7C2.4,15.9,2.7,16.2,3,16.3z M1.9,8.4l1.2-6.7
	h3L5.2,5c0,0.1,0,0.1,0,0.2v0.1C5.2,5.7,5.5,6,5.9,6h1.5l-3.3,6.3l0.2-3.2c0-0.2-0.1-0.4-0.2-0.5C3.9,8.4,3.7,8.4,3.5,8.4L1.9,8.4
	L1.9,8.4z"/>
</svg>
