<?xml version="1.0" encoding="iso-8859-1"?>
<!-- Generator: Adobe Illustrator 24.0.1, SVG Export Plug-In . SVG Version: 6.00 Build 0)  -->
<svg version="1.1" id="power" xmlns="http://www.w3.org/2000/svg" xmlns:xlink="http://www.w3.org/1999/xlink" x="0px" y="0px"
	 viewBox="0 0 36 36" enable-background="new 0 0 36 36" xml:space="preserve">
<circle id="white_bg" fill="#F3F3F3" cx="18" cy="18" r="18"/>
<path id="Power_icon_Grey" fill="#AEAEAE" stroke="#F3F3F3" stroke-width="0.8" d="M16,28c0.1,0,0.1,0,0.2,0c0.3,0,0.6-0.2,0.7-0.4
	L23,16c0.2-0.4,0.1-0.9-0.3-1.1c-0.1-0.1-0.2-0.1-0.4-0.1h-2l1-3.9c0.1-0.2,0-0.5-0.1-0.7C21,10.1,20.7,10,20.5,10h-5
	c-0.4,0-0.7,0.3-0.8,0.7L13,19.8c0,0.2,0,0.5,0.2,0.7c0.2,0.2,0.4,0.3,0.6,0.3h2l-0.4,6.4C15.4,27.5,15.6,27.9,16,28z M14.8,19.1
	l1.3-7.5h3.3l-1,3.8c0,0.1,0,0.2,0,0.2v0.1c0,0.4,0.4,0.8,0.8,0.8H21l-3.7,7.1l0.2-3.6c0-0.2-0.1-0.4-0.2-0.6
	c-0.2-0.2-0.4-0.3-0.6-0.3L14.8,19.1L14.8,19.1z"/>
</svg>
