<?xml version="1.0" encoding="iso-8859-1"?>
<!-- Generator: Adobe Illustrator 24.0.1, SVG Export Plug-In . SVG Version: 6.00 Build 0)  -->
<svg version="1.1" id="Layer_1" xmlns="http://www.w3.org/2000/svg" xmlns:xlink="http://www.w3.org/1999/xlink" x="0px" y="0px"
	 viewBox="0 0 198.4 154.8" enable-background="new 0 0 198.4 154.8" xml:space="preserve">
<g id="Relax_illustration_standard" transform="translate(0 -0.008)">
	<path id="Path_3944" opacity="0.1" fill="#007DC3" enable-background="new    " d="M195.2,113.6c-1.2,3.1-3,5.9-5.3,8.3
		c-2.8,2.6-6.4,4.4-10.2,5c-1.1,0.2-2.3,0.4-3.4,0.4c-3,0.2-6,0.1-9-0.2c-7.2-0.8-14.4-2.3-21.3-4.6c-1.1-0.4-2.3-0.8-3.4-1.2
		c-1.7-0.6-3.4-1.3-5-2c-6.8-2.8-13.8-6.5-21-5.3c-3.5,0.5-6.8,2.2-10.3,2.7c-2.5,0.3-5,0.1-7.4-0.5c-1.2-0.3-2.3-0.7-3.4-1.2
		c-2.5-1.1-4.8-2.4-7.1-4c-5.3-3.7-10-8.3-15.6-11.5c-6.1-3.5-12.9-5.2-19.9-6.5c-1.1-0.2-2.3-0.4-3.4-0.6c-3.2-0.5-6.4-1-9.6-1.6
		c-3.1-0.4-6.1-1.4-8.8-2.9c-1.9-1.3-3.6-2.9-5-4.6c-2.7-3.3-5-6.8-6.9-10.6c-0.1-0.2-0.2-0.4-0.3-0.6c-2.9-6.1-5-12.7-6.1-19.4
		c0-0.2-0.1-0.4-0.1-0.6c-1.1-6.7-1.6-13.6-1.4-20.4l0-0.6c0.1-3.4,0.3-6.7,0.6-10c0.1-2.3,0.7-4.6,1.7-6.7c1.3-1.9,3.1-3.3,5.1-4.3
		c8.6-4.6,16.9-5.9,26.2-3.7c1.5,0.4,3,0.7,4.5,1.1c1.1,0.3,2.3,0.6,3.4,0.9c7.8,2.2,15.6,4.5,23.7,5.2c0.8,0.1,1.6,0.1,2.3,0.2
		c1.5,0.1,3.1,0.1,4.6,0c4-0.1,8-0.5,11.9-1.2c1.1-0.2,2.3-0.4,3.4-0.7c4.9-1,9.7-2.4,14.5-3.9c1-0.3,1.9-0.6,2.9-0.9
		c2.2-0.7,4.4-1.4,6.5-2.1c6.4-2.3,13.1-3.9,19.8-4.8c0.6-0.1,1.2-0.1,1.7-0.2c0.6,0,1.1-0.1,1.7-0.1c10.6-0.5,21.1,2,30.4,7.1
		c1.2,0.6,2.3,1.3,3.4,2c1.5,1,3,2.1,4.5,3.2c3,2.3,5.7,5.1,7.9,8.3c2,3.2,3.4,6.7,4.2,10.4c0,0.2,0.1,0.4,0.1,0.6
		c1,6.1,0.9,12.4-0.5,18.5c-0.1,0.6-0.3,1.3-0.4,1.9c0,0.2-0.1,0.4-0.1,0.6c-1.4,5.7-3.1,11.4-2.7,17.2c0.1,0.7,0.1,1.5,0.3,2.2
		c0,0.2,0.1,0.4,0.1,0.6c0.9,4.8,2.9,9.3,4.1,14C199.3,95.7,198.7,105.1,195.2,113.6L195.2,113.6z"/>
	<path id="Path_3945" opacity="0.1" fill="#007DC3" enable-background="new    " d="M179.7,31.8h16.6c0-0.2-0.1-0.4-0.1-0.6h-16.5
		v-22c-1.1-0.7-2.2-1.4-3.4-2v24h-30.4V0.1c-0.6,0-1.1,0.1-1.7,0.1s-1.2,0.1-1.7,0.2v30.8H99.2l-0.1-0.1l23.6-25.9
		c-2.2,0.7-4.4,1.4-6.5,2.1L98.8,26.4V12.2c-1.1,0.2-2.3,0.5-3.4,0.7v14.2L83.5,14c-1.5,0-3.1,0-4.6,0l15.6,17.1l-0.1,0.1H52.8V8.6
		c-1.1-0.3-2.3-0.6-3.4-0.9v23.5H11.2l0,0.6h38.2v20.4H12.7c0,0.2,0.1,0.4,0.1,0.6h36.7v19.4H18.9c0.1,0.2,0.2,0.4,0.3,0.6h30.3
		v19.8c1.1,0.2,2.3,0.4,3.4,0.6V72.8h42.5v42.3c1.1,0.5,2.2,0.9,3.4,1.2V72.8h43.7v48.7c1.1,0.4,2.3,0.8,3.4,1.2V72.8h30.4v54.6
		c1.1-0.1,2.3-0.2,3.4-0.4V72.8h13.3c0-0.2-0.1-0.4-0.1-0.6h-13.2V52.8h15.6c0-0.2,0.1-0.4,0.1-0.6h-15.7V31.8z M176.3,31.8v20.4
		h-30.4V31.8H176.3z M142.5,52.2H98.8V31.8h43.7L142.5,52.2z M52.8,31.8h41.9l0.6,0.5v19.8H52.8V31.8z M52.8,72.2V52.8h42.5v19.4
		H52.8z M98.8,72.2V52.8h43.7v19.4H98.8z M176.3,72.2h-30.4V52.8h30.4L176.3,72.2z"/>
	<path id="Path_3946" opacity="0.1" fill="#007DC3" enable-background="new    " d="M161.7,17.8h-0.3c0.2-0.1,0.3-0.3,0.3-0.5l0,0
		c0-0.4-0.5-0.8-1.1-0.8h-7.9c-0.6,0-1.1,0.3-1.1,0.8l0,0c0,0.4,0.5,0.8,1.1,0.8h0.3c-0.2,0.1-0.3,0.3-0.3,0.5
		c0,0.4,0.4,0.6,0.9,0.7h-2.3c-0.6,0-1.1,0.3-1.1,0.8s0.5,0.8,1.1,0.8h7.9c0.6,0,1.1-0.3,1.1-0.8c0-0.4-0.4-0.6-0.9-0.7h2.3
		c0.6,0,1.1-0.3,1.1-0.7S162.3,17.8,161.7,17.8z"/>
	<path id="Path_3947" opacity="0.1" fill="#007DC3" enable-background="new    " d="M76.3,24.9h-0.3c0.2-0.1,0.3-0.3,0.3-0.5l0,0
		c0-0.4-0.5-0.7-1.1-0.7h-7.9c-0.6,0-1.1,0.3-1.1,0.7l0,0c0,0.4,0.5,0.8,1.1,0.8h0.3c-0.2,0.1-0.3,0.3-0.3,0.5
		c0,0.4,0.4,0.6,0.9,0.7h-2.3c-0.6,0-1.1,0.3-1.1,0.7s0.5,0.8,1.1,0.8h7.9c0.6,0,1.1-0.3,1.1-0.8c0-0.4-0.4-0.6-0.9-0.7h2.3
		c0.6,0,1.1-0.3,1.1-0.8S77,24.9,76.3,24.9z"/>
	<path id="Path_3948" opacity="0.1" fill="#007DC3" enable-background="new    " d="M173.7,55.5h-0.3c0.2-0.1,0.3-0.3,0.3-0.5l0,0
		c0-0.4-0.5-0.8-1.1-0.8h-7.9c-0.6,0-1.1,0.3-1.1,0.8l0,0c0,0.4,0.5,0.8,1.1,0.8h0.3c-0.2,0.1-0.3,0.3-0.3,0.5
		c0,0.4,0.4,0.6,0.9,0.7h-2.3c-0.6,0-1.1,0.3-1.1,0.8s0.5,0.8,1.1,0.8h7.9c0.6,0,1.1-0.3,1.1-0.8c0-0.4-0.4-0.6-0.9-0.7h2.3
		c0.6,0,1.1-0.3,1.1-0.7S174.4,55.5,173.7,55.5z"/>
	<ellipse id="Ellipse_1183" opacity="0.1" fill="#007DC3" enable-background="new    " cx="105" cy="145.5" rx="84.4" ry="9.3"/>
	<path id="Path_3949" fill="#E9CCDB" d="M122.5,79.2v29.3c0,0.5-0.1,1-0.2,1.5c-0.7,2.4-2.8,4.1-5.3,4.1H92.2
		c-3.1,0-5.5-2.5-5.5-5.5c0,0,0,0,0,0V79.2c0-3.1,2.5-5.5,5.5-5.5c0,0,0,0,0,0H117c2.5,0,4.7,1.7,5.3,4.1
		C122.5,78.2,122.5,78.7,122.5,79.2z"/>
	<path id="Path_3950" opacity="0.1" enable-background="new    " d="M87.1,79.2v29.3c0,0.5-0.1,1-0.2,1.5c-0.1-0.5-0.2-1-0.2-1.5
		V79.2c0-0.5,0.1-1,0.2-1.5C87,78.2,87.1,78.7,87.1,79.2z"/>
	<path id="Rectangle_2496" fill="#E9CCDB" d="M63.5,73.7h3.1c11.1,0,20.2,9,20.2,20.2l0,0c0,11.1-9,20.2-20.2,20.2h-3.1
		c-11.1,0-20.2-9-20.2-20.2l0,0C43.3,82.7,52.3,73.7,63.5,73.7z"/>
	<path id="Path_3951" opacity="0.1" enable-background="new    " d="M122.5,79.2v29.3c0,0.5-0.1,1-0.2,1.5c-0.1-0.5-0.2-1-0.2-1.5
		V79.2c0-0.5,0.1-1,0.2-1.5C122.5,78.2,122.5,78.7,122.5,79.2z"/>
	<path id="Rectangle_2497" fill="#E9CCDB" d="M142.7,73.7h3.1c11.1,0,20.2,9,20.2,20.2l0,0c0,11.1-9,20.2-20.2,20.2h-3.1
		c-11.1,0-20.2-9-20.2-20.2l0,0C122.5,82.7,131.6,73.7,142.7,73.7z"/>
	<path id="Path_3952" opacity="0.1" enable-background="new    " d="M84.5,117H44.9l-0.2-3.5c-0.2-3.9,4.8-7.1,11.1-7.1h27
		c2.1,0,3.7,1.1,3.5,2.4L84.5,117z"/>
	<path id="Path_3953" fill="#CAA4BC" d="M84.5,117.4H44.9l-0.2-3.5c-0.2-3.9,4.8-7.1,11.1-7.1h27c2.1,0,3.7,1.1,3.5,2.4L84.5,117.4z
		"/>
	<path id="Path_3954" opacity="0.1" enable-background="new    " d="M124.2,117.2h39.7l0.2-3.5c0.2-3.9-4.8-7.1-11.1-7.1h-27
		c-2.1,0-3.7,1.1-3.5,2.4L124.2,117.2z"/>
	<path id="Path_3955" fill="#CAA4BC" d="M124.2,117.6h39.7l0.2-3.5c0.2-3.9-4.8-7.1-11.1-7.1h-27c-2.1,0-3.7,1.1-3.5,2.4
		L124.2,117.6z"/>
	<path id="Path_3956" opacity="0.1" enable-background="new    " d="M91.4,106.7h26.9c3.2,0,5.7,2.6,5.7,5.7v3.5H85.1v-3
		C85.1,109.5,87.9,106.7,91.4,106.7z"/>
	<path id="Path_3957" fill="#CAA4BC" d="M91.4,107.1h26.9c3.2,0,5.7,2.6,5.7,5.7v3.5H85.1v-3C85.1,109.9,87.9,107.1,91.4,107.1z"/>
	<path id="Path_3958" fill="#E9CCDB" d="M47.6,110.6h32.2c3,0,5.4,2.4,5.4,5.4l0,0v7.3H45.2V113C45.2,111.7,46.2,110.6,47.6,110.6
		L47.6,110.6z"/>
	<path id="Path_3959" opacity="0.1" enable-background="new    " d="M89.1,110.6h30.6c3,0,5.4,2.4,5.4,5.4l0,0v7.3H84v-7.6
		C84,112.9,86.3,110.6,89.1,110.6z"/>
	<path id="Path_3960" opacity="0.1" enable-background="new    " d="M89.9,110.6h30.6c3,0,5.4,2.4,5.4,5.4l0,0v7.3h-41v-7.6
		C84.8,112.9,87.1,110.6,89.9,110.6z"/>
	<path id="Path_3961" fill="#E9CCDB" d="M89.5,110.6h30.6c3,0,5.4,2.4,5.4,5.4l0,0v7.3h-41v-7.6C84.4,112.9,86.7,110.6,89.5,110.6z"
		/>
	<path id="Path_3962" opacity="0.1" enable-background="new    " d="M126.7,110.6h32.7c2.8,0,5.1,2.3,5.1,5.1l0,0v7.5h-39.9v-10.5
		C124.6,111.6,125.5,110.6,126.7,110.6L126.7,110.6z"/>
	<path id="Path_3963" fill="#E9CCDB" d="M127.1,110.6h32.7c2.8,0,5.1,2.3,5.1,5.1l0,0v7.5H125v-10.5
		C125,111.6,125.9,110.6,127.1,110.6L127.1,110.6z"/>
	<path id="Path_3964" fill="#9C7AA5" d="M45.8,140.2v5.4c0,1.5-1.2,2.7-2.7,2.7h-1.9c-1.5,0-2.7-1.2-2.7-2.7v-5.4H45.8z"/>
	<path id="Path_3965" fill="#9C7AA5" d="M171.5,140.2v5.4c0,1.5-1.2,2.7-2.7,2.7h-1.9c-1.5,0-2.7-1.2-2.7-2.7v-5.4H171.5z"/>
	<path id="Path_3966" fill="#E9CCDB" d="M47.8,104.5c0-4-3.3-7.3-7.3-7.3c-4,0-7.3,3.3-7.3,7.3c0,3.5,2.5,6.5,5.9,7.2v29.5h8.2
		v-33.9C47.6,106.3,47.8,105.4,47.8,104.5z"/>
	<path id="Path_3967" fill="#E9CCDB" d="M161.8,104.5c0-4,3.3-7.3,7.3-7.3c4,0,7.3,3.3,7.3,7.3c0,3.5-2.5,6.5-5.9,7.2v29.5h-8.2
		v-33.9C162,106.3,161.8,105.4,161.8,104.5z"/>
	<path id="Path_3968" opacity="0.1" enable-background="new    " d="M47.8,104.5c0-4-3.3-7.3-7.3-7.3c-4,0-7.3,3.3-7.3,7.3
		c0,3.5,2.5,6.5,5.9,7.2v29.5h8.2v-33.9C47.6,106.3,47.8,105.4,47.8,104.5z"/>
	<path id="Path_3969" opacity="0.1" enable-background="new    " d="M161.8,104.5c0-4,3.3-7.3,7.3-7.3c4,0,7.3,3.3,7.3,7.3
		c0,3.5-2.5,6.5-5.9,7.2v29.5h-8.2v-33.9C162,106.3,161.8,105.4,161.8,104.5z"/>
	<rect id="Rectangle_2498" x="43.3" y="136" fill="#9C7AA5" width="123.4" height="5.7"/>
	<rect id="Rectangle_2499" x="44.7" y="123.3" opacity="0.1" enable-background="new    " width="121.3" height="13.1"/>
	<rect id="Rectangle_2500" x="44.7" y="122.9" fill="#CAA4BC" width="121.3" height="13.1"/>
	<rect id="Rectangle_2501" x="164.1" y="140.2" opacity="0.1" enable-background="new    " width="7.4" height="1.9"/>
	<path id="Path_3970" fill="#E9CCDB" d="M163.6,105.1c0-4,3.3-7.3,7.3-7.3c4,0,7.3,3.3,7.3,7.3c0,3.5-2.5,6.5-5.9,7.2v29.5h-8.2
		v-33.9C163.8,106.9,163.6,106,163.6,105.1z"/>
	<rect id="Rectangle_2502" x="38.4" y="140.2" opacity="0.1" enable-background="new    " width="7.3" height="1.9"/>
	<path id="Path_3971" fill="#E9CCDB" d="M46.2,105.1c0-4-3.3-7.3-7.3-7.3c-4,0-7.3,3.3-7.3,7.3c0,3.5,2.5,6.5,5.9,7.1v29.5h8.2
		v-33.9C46,106.9,46.2,106,46.2,105.1z"/>
	<rect id="Rectangle_2503" x="47.3" y="122.9" opacity="0.1" enable-background="new    " width="115.1" height="0.4"/>
	<circle id="Ellipse_1184" fill="#CAA4BC" cx="38.4" cy="104.8" r="3.3"/>
	<circle id="Ellipse_1185" fill="#CAA4BC" cx="171.5" cy="104.8" r="3.3"/>
	<path id="Path_3972" opacity="0.1" enable-background="new    " d="M73.2,99.3c-3.1-0.8-9.8-9.1-9.8-9.1
		c-2.5-1.7-7.6-12.3-7.6-12.3S54,77,52.3,81.1s-11.6,7.4-14.5,7.8c-1.7,0.3-1.5,1-1,1.6c0.3,0.4,0.7,0.7,1.2,0.8
		c1.3,0.5,5.2,5.2,5.2,5.2c3.6,2.5,7.7,13.8,9,16.8c0.7,1.7,1.6,0.9,2.2-0.2c1.1-2,2.7-3.7,4.6-5c3.3-2.3,7-4,10.9-5.1
		C70.1,103,76.4,100,73.2,99.3z"/>
	<path id="Path_3973" fill="#007DC3" d="M31.5,89.5c-0.5-0.2-1-0.5-1.3-1c-0.5-0.7-0.7-1.5,1-1.8c3.1-0.5,13.3-4.2,14.8-8.8
		s3.6-3.6,3.6-3.6s6.1,11.9,8.8,13.9c0,0,7.6,9.4,10.9,10.3s-3,4.3-3.5,4.3c-4,1.1-7.8,3.1-11.1,5.7c-1.9,1.5-3.4,3.4-4.5,5.6
		c-0.6,1.2-1.4,2-2.3,0.2c-1.6-3.4-6.7-16.2-10.7-19C37.3,95.4,32.8,90.1,31.5,89.5z"/>
	<path id="Path_3974" opacity="0.1" enable-background="new    " d="M31.5,89.5c-0.5-0.2-1-0.5-1.3-1c-0.5-0.7-0.7-1.5,1-1.8
		c3.1-0.5,13.3-4.2,14.8-8.8s3.6-3.6,3.6-3.6s6.1,11.9,8.8,13.9c0,0,7.6,9.4,10.9,10.3s-3,4.3-3.5,4.3c-4,1.1-7.8,3.1-11.1,5.7
		c-1.9,1.5-3.4,3.4-4.5,5.6c-0.6,1.2-1.4,2-2.3,0.2c-1.6-3.4-6.7-16.2-10.7-19C37.3,95.4,32.8,90.1,31.5,89.5z"/>
	<path id="Path_3975" fill="#007DC3" d="M33.7,89.3c-0.5-0.2-0.9-0.5-1.2-0.8c-0.5-0.6-0.7-1.4,1-1.7c2.9-0.5,12.6-4,14.1-8.2
		s3.5-3.3,3.5-3.3S56.5,86,59,87.8c0,0,7,8.4,10.1,9.2c3.2,0.8-2.9,3.9-3.3,3.9c-3.8,1.1-7.4,2.9-10.6,5.4c-1.8,1.4-3.3,3.2-4.3,5.2
		c-0.5,1.1-1.3,1.9-2.1,0.2c-1.5-3-6-14.7-9.8-17.2C39,94.5,34.9,89.7,33.7,89.3z"/>
	<path id="Path_3976" opacity="0.1" enable-background="new    " d="M44.9,93.1c0,0-1,1,4-0.9S44.9,93.1,44.9,93.1z"/>
	<path id="Path_3977" opacity="0.1" enable-background="new    " d="M49,97.9c0,0,0.8,0.1,3.6-1.1S49,97.9,49,97.9z"/>
	<path id="Path_3978" opacity="0.1" enable-background="new    " d="M48.7,106.7c1.2-0.2,2.4-0.6,3.6-1.2
		C55.2,104.3,48.7,106.7,48.7,106.7z"/>
	<path id="Path_3979" opacity="0.1" enable-background="new    " d="M165.5,87v3.8c-0.8,1.7-1.6,3.9-1.6,3.9
		c-2.4,3.1-2,13.5-2.2,16.3c-0.1,1.6-1.1,1.2-2,0.5c-1.8-1.3-3.8-2.1-5.9-2.6c-3.8-0.8-7.7-1-11.5-0.6c-0.4,0.1-7-0.3-4.5-1.9
		s5.6-10.3,5.6-10.3c1.6-2.2,2.5-12.2,2.5-12.2s1.4-1.3,4.4,1.4C153,87.8,162.2,87.5,165.5,87z"/>
	<path id="Path_3980" fill="#007DC3" d="M167.7,88.3c0.4-0.3,0.6-0.6,0.8-1c0.2-0.6,0.1-1.3-1.5-1c-2.8,0.6-12.8,1.1-15.8-1.7
		s-4.4-1.4-4.4-1.4s-0.8,10.1-2.5,12.2c0,0-3,8.7-5.6,10.3s4.1,2.1,4.5,1.9c3.9-0.4,7.7-0.2,11.5,0.6c2.1,0.5,4.1,1.3,5.9,2.6
		c0.9,0.6,1.9,1,2-0.5c0.2-2.8-0.2-13.2,2.2-16.3C164.9,94.1,166.8,89.1,167.7,88.3z"/>
	<path id="Path_3981" opacity="0.1" enable-background="new    " d="M167.7,88.3c0.4-0.3,0.6-0.6,0.8-1c0.2-0.6,0.1-1.3-1.5-1
		c-2.8,0.6-12.8,1.1-15.8-1.7s-4.4-1.4-4.4-1.4s-0.8,10.1-2.5,12.2c0,0-3,8.7-5.6,10.3s4.1,2.1,4.5,1.9c3.9-0.4,7.7-0.2,11.5,0.6
		c2.1,0.5,4.1,1.3,5.9,2.6c0.9,0.6,1.9,1,2-0.5c0.2-2.8-0.2-13.2,2.2-16.3C164.9,94.1,166.8,89.1,167.7,88.3z"/>
	<path id="Path_3982" fill="#007DC3" d="M167,88.7c0.3-0.3,0.6-0.6,0.7-1c0.2-0.6,0.1-1.2-1.4-0.9c-2.7,0.5-12.2,1-15-1.6
		s-4.1-1.3-4.1-1.3s-0.8,9.6-2.3,11.6c0,0-2.9,8.3-5.3,9.8s3.9,2,4.3,1.8c3.7-0.4,7.4-0.2,10.9,0.6c2,0.4,3.9,1.3,5.6,2.5
		c0.8,0.6,1.8,1,1.9-0.5c0.2-2.7-0.2-12.5,2.1-15.5C164.3,94.2,166.1,89.5,167,88.7z"/>
	<path id="Path_3983" opacity="0.1" enable-background="new    " d="M160,94.2c-1.3,0.6-2.7,1.1-4,1.5
		C152.6,96.9,159.4,95.3,160,94.2z"/>
	<path id="Path_3984" opacity="0.1" enable-background="new    " d="M159.6,97.8c0,0-2.1,1.7-3.1,1.9S159,99.4,159.6,97.8z"/>
	<path id="Path_3985" opacity="0.1" enable-background="new    " d="M161.3,105.7c0,0-2.1,1.7-3.1,1.9S160.7,107.4,161.3,105.7z"/>
	
		<linearGradient id="Path_3986_1_" gradientUnits="userSpaceOnUse" x1="-203.4773" y1="467.3262" x2="-203.4773" y2="468.3262" gradientTransform="matrix(101.8447 0 0 -55.9682 20802.1641 26266.2617)">
		<stop  offset="0" style="stop-color:#808080;stop-opacity:0.251"/>
		<stop  offset="0.54" style="stop-color:#808080;stop-opacity:0.122"/>
		<stop  offset="1" style="stop-color:#808080;stop-opacity:0.102"/>
	</linearGradient>
	<path id="Path_3986" fill="url(#Path_3986_1_)" d="M129.5,107.1c-0.3,0-0.6-0.1-0.9-0.1c0-0.1-0.2-0.2-0.5-0.2H128
		c-1-0.4-2-1-2.7-1.9c-1.1-1-2.4-1.8-3.7-2.4c0,0-1.9-1.6-3.2-1.8s-4.8-3.7-7.8-7c-2.4-2.5-4.9-4.8-7.6-6.9l-2-2.2
		c-1-0.7-2-1.6-2.8-2.5c-0.6-0.6-1.3-0.9-2.1-0.8c-1.1-0.4-2.3-0.4-3.4-0.2c-1.1,0.7-2.2,1.6-3,2.6l1.1-13.5c0-0.4-0.2-0.7-0.6-0.9
		l-3.5,1.7c-0.3,0.1-0.4,0.4-0.4,0.7l-0.9,14.5L81,89.5c-0.1-0.5-0.3-1-0.6-1.4c-2.3-3.1-6,2.7-7.3,5.2c-0.1,0-0.1,0-0.2,0
		c0,0.1-0.1,0.1-0.1,0.2c-1-0.5-2-1.1-2.9-1.8c-0.1-0.1-0.1-0.1-0.2-0.2c-0.4-0.7-0.9-1.3-1.4-1.8c-1.2-1.3-2.4-2.6-3.7-3.8
		c-0.2-0.1-0.9-0.6-1.8-1.4c-0.1-0.3-0.3-0.6-0.5-0.9c-0.6-0.9-1.5-1.4-2.5-1.5c-0.7-0.6-1.3-1-1.4-1c-0.9-0.9-1.7-2-2.2-3.2
		c-0.6-1.1-4.6-1.3-4.6-1.3c0-1.6,0.3-3.1,1.1-4.5c0-0.1,0.1-0.2,0.1-0.2c3.9-1.1,6.1-5.2,5-9c0-0.1-0.1-0.2-0.1-0.3
		c0.5-0.2,1.1-0.1,1.7-0.3c0.8-0.2,1.3-0.8,1.5-1.6c0-0.5-0.1-1-0.3-1.4c-0.2-0.4-0.6-0.8-0.9-1.2c-1.1-1-2.4-1.7-3.8-2.1
		c-1.7-0.7-3.6-1-5.5-1c-1.9,0-3.7,0.9-4.9,2.2c-0.2,0.3-0.5,0.6-0.7,0.8c-0.5,0.3-1,0.4-1.5,0.3c-1.7-0.1-3.5-0.7-5.1-0.1
		c-1.9,0.8-2.6,3.1-2.8,5.1c-0.1,2.1-0.4,4.2-0.9,6.3c-0.5,2.1-1.7,3.9-3.5,5c-0.6,0.3-1.1,0.5-1.6,0.8c-0.5,0.3-0.9,0.9-0.9,1.5
		c0,0.8,0.8,1.5,1.1,2.2c0.2,0.4,0.3,0.8,0.5,1.2l0,0c0,0,0,0.1,0.1,0.1l0,0c0,0,0,0.1,0.1,0.1c0,0,0,0,0,0l0.1,0.1c0,0,0,0,0,0
		c0,0,0.1,0.1,0.1,0.1c0,0,0.1,0.1,0.1,0.1c0,0,0.1,0.1,0.1,0.1c0.9,0.9,2.4,0.4,3.5,0.9c0.2,0.1,0.4,0.2,0.6,0.4
		c0.4,0.4,0.7,0.9,1,1.3l0,0l0.1,0.1l0.1,0.1c0,0,0.1,0.1,0.1,0.1s0.1,0.1,0.1,0.1l0.1,0.1c0,0,0.1,0.1,0.1,0.1
		c1,0.8,2.2,1.3,3.5,1.3c0.7,0.1,1.4,0,2.1-0.2c0.3-0.1,0.6-0.3,0.8-0.5c0.4,0.3,0.8,0.6,1.2,0.8c1.1,0.7,2.2,1.3,3.3,2.1
		c1.1,1.1,2.5,2.6,2.5,3.8c0,1.5,2.1,4.4,3,5.7c0,0.2,0.1,0.4,0.1,0.4l4.2,6.2c0,0,0.3,1,2,1c-0.3,1.9-0.2,5.2,1.3,5.5
		c1.7,0.4,4.4,0.1,4.9,0.6s7-0.3,7-0.3s3.7-0.8,6.1-0.1c1.5,0.4,3.1,0.3,4.5-0.3c0,0,2.6-0.2,3-1.3c0.1-0.1,0.1-0.2,0.1-0.3
		c0-0.1,0-0.2,0.1-0.3c0.3-0.4,0.7-0.6,0.5-0.7c0.2-0.2,0.2-0.2-0.4-0.3c-0.4-0.1-0.8,0-1.2,0c0.1-0.1,0.3-0.3,0.4-0.5
		c0.1,0,0.2,0,0.3,0c0.9,0.1,0.9-0.3,1.7-0.6c1.1-0.2,2.2-0.4,3.3-0.5c1.2-0.1,2.4-0.7,3.2-1.6c0.6-0.7,2.9-0.3,3.5-1.5
		c0.6-1-1.4-1.9-2.5-1.8c-0.3,0-0.5,0-0.7,0.1c-1.2,0.4-2.4,0.6-3.6,0.6c-0.2-0.1-0.8-0.3-1.6-0.5c0.7-1.1,1.6-2.6,2.5-3.9
		c0.7-1.1,1.6-2.1,2.5-3c0.3-0.5,0.7-1,1.2-1.4c1.2,3,8.1,7.9,11.4,8.5c3.7,0.6,7.2,3.6,7.2,3.6c-0.2,0.7-0.3,1.3-0.3,2
		c0,0.3,0.7,0.4,1.5,0.5c0.6,0.4,3.3,0.4,4.3,0.2c1.2-0.2,4.5,0.6,7.1,0.8S131.1,107.2,129.5,107.1z"/>
	<path id="Path_3987" fill="#FD6F8D" d="M63.1,84.5l-0.3,3.2l1.5,3.3l2.2,1.9l2.4,1.4l2.2,1.5l2.2-2c0,0-3.2-2.1-3.5-2.8
		c-0.5-0.8-1.1-1.5-1.7-2.1l-2-2l-1.7-1.5L63.1,84.5z"/>
	<path id="Path_3988" opacity="0.1" enable-background="new    " d="M63.1,84.5l-0.3,3.2l1.5,3.3l2.2,1.9l2.4,1.4l2.2,1.5l2.2-2
		c0,0-3.2-2.1-3.5-2.8c-0.5-0.8-1.1-1.5-1.7-2.1l-2-2l-1.7-1.5L63.1,84.5z"/>
	<path id="Path_3989" fill="#FFBEC5" d="M53.1,72.2c-1.1,2-1.3,4.3-0.7,6.5c1.4,4.8-9-1.9-9-1.9c1.3-1.9,2.3-4,2.9-6.3
		c0.2-0.8,0.2-1.7,0-2.6c-1-2.9,8.2,2.1,8.2,2.1C54,70.7,53.5,71.4,53.1,72.2z"/>
	<path id="Path_3990" opacity="0.1" enable-background="new    " d="M51.8,76.6c0,0,3.9,0.1,4.5,1.3c0.5,1.2,1.2,2.2,2.1,3.1
		c0.5,0.2,5.6,4.5,6.1,4.7s4.9,4.8,4.9,5.3s4.6,3.3,7.5,3.7s7.4,5.7,8.7,5.5c1.4,0,2.7,0.3,4,0.8c0,0,3-0.1,3.7-0.6s3.5,0.5,2.8,1.7
		s-2.9,0.8-3.5,1.5c-0.8,0.9-1.9,1.4-3.1,1.6c-1.1,0.1-2.2,0.3-3.2,0.5c-1,0.2-0.7,0.7-2.2,0.5S77,95.6,77,95.6l-6.3-2.9
		c0,0-2.4-1.9-2.6-2.6s-4.8-5-4.8-5l-6-4.4L51.8,76.6z"/>
	<path id="Path_3991" fill="#FD6F8D" d="M52.1,76.6c0,0,3.9,0.1,4.5,1.3c0.5,1.2,1.2,2.2,2.1,3.1c0.5,0.2,5.6,4.5,6.1,4.7
		s4.9,4.8,4.9,5.3s4.6,3.3,7.5,3.7s7.4,5.7,8.7,5.5c1.4,0,2.7,0.3,4,0.8c0,0,3-0.1,3.7-0.6s3.5,0.5,2.8,1.7s-2.9,0.8-3.5,1.5
		c-0.8,0.9-1.9,1.4-3.1,1.6c-1.1,0.1-2.2,0.3-3.2,0.5c-1,0.2-0.7,0.7-2.2,0.5s-7.1-10.4-7.1-10.4L71,92.8c0,0-2.4-1.9-2.6-2.6
		s-4.8-5-4.8-5l-6-4.4L52.1,76.6z"/>
	<path id="Path_3992" fill="#FFBEC5" d="M72.6,98.3c0,0,5.9-5.2,6.2-5.6c0.1-0.2,2-1.6,3.9-3c2.3-1.7,4.5-3.6,6.4-5.7
		c0.9-1.1,2-2.1,3.3-2.9c1-0.2,3.5-0.1,4.1,0.7c0.8,0.9,1.7,1.8,2.8,2.5l1.9,2.1c2.6,2.1,5.1,4.3,7.4,6.7c2.9,3.2,6.4,6.7,7.6,6.8
		c1.1,0.3,2.2,0.9,3.1,1.7c1.3,0.6,2.5,1.4,3.6,2.3c1,1.2,2.5,1.9,4.1,2.1c1.6,0.1-0.8,1.3-3.5,1.1s-5.8-1-7-0.8s-4.3,0.2-4.3-0.4
		c0.1-0.7,0.2-1.3,0.3-1.9c0,0-3.5-2.9-7.1-3.5S94,94.3,94.1,91.6c0,0-1.1-0.1-2.4,1.8c-0.9,0.9-1.7,1.9-2.4,3
		c-1.5,2.2-3.3,5.3-3.3,5.3s-2.8,5.7-5.1,5.7s-4.7-0.3-4.7-0.3l-3-2.1l-0.2-2.6L72.6,98.3z"/>
	<path id="Path_3993" opacity="5.000000e-02" enable-background="new    " d="M72.6,98.3c0,0,5.9-5.2,6.2-5.6c0.1-0.2,2-1.6,3.9-3
		c2.3-1.7,4.5-3.6,6.4-5.7c0.9-1.1,2-2.1,3.3-2.9c1-0.2,3.5-0.1,4.1,0.7c0.8,0.9,1.7,1.8,2.8,2.5l1.9,2.1c2.6,2.1,5.1,4.3,7.4,6.7
		c2.9,3.2,6.4,6.7,7.6,6.8c1.1,0.3,2.2,0.9,3.1,1.7c1.3,0.6,2.5,1.4,3.6,2.3c1,1.2,2.5,1.9,4.1,2.1c1.6,0.1-0.8,1.3-3.5,1.1
		s-5.8-1-7-0.8s-4.3,0.2-4.3-0.4c0.1-0.7,0.2-1.3,0.3-1.9c0,0-3.5-2.9-7.1-3.5S94,94.3,94.1,91.6c0,0-1.1-0.1-2.4,1.8
		c-0.9,0.9-1.7,1.9-2.4,3c-1.5,2.2-3.3,5.3-3.3,5.3s-2.8,5.7-5.1,5.7s-4.7-0.3-4.7-0.3l-3-2.1l-0.2-2.6L72.6,98.3z"/>
	<path id="Path_3994" fill="#FFBEC5" d="M74,98.6c0,0,5.9-5.2,6.2-5.6s7.6-5.8,7.6-5.8s4.9-5.5,5.9-5.8s3.5-0.1,4.1,0.7
		c0.8,0.9,1.7,1.8,2.8,2.5l1.9,2.1c2.6,2.1,5.1,4.3,7.4,6.7c2.9,3.2,6.4,6.7,7.6,6.8c1.1,0.3,2.2,0.9,3.1,1.7
		c1.3,0.6,2.5,1.4,3.6,2.3c1,1.2,2.5,1.9,4.1,2.1c1.6,0.1-0.8,1.3-3.5,1.1s-5.8-1-7-0.8s-4.3,0.2-4.3-0.4c0.1-0.7,0.2-1.3,0.3-1.9
		c0,0-3.5-2.9-7.1-3.5s-11.3-6.4-11.3-9.1c0,0-1.1-0.1-2.4,1.8c-0.9,0.9-1.7,1.9-2.4,3c-1.5,2.2-3.3,5.3-3.3,5.3s-2.8,5.7-5.1,5.7
		s-4.7-0.3-4.7-0.3l-3-2.1l-0.2-2.6L74,98.6z"/>
	<path id="Path_3995" opacity="0.1" enable-background="new    " d="M92.9,101.7c-0.2,0.1-0.3,0.2-0.5,0.2l-1,0.5
		c0.9,0.1,1.8,0.2,2.6,0.1c0.5-0.1,1.2-0.5,0.6-1C94.3,101.2,93.4,101.5,92.9,101.7z"/>
	<path id="Path_3996" opacity="0.1" enable-background="new    " d="M88.4,102.4c0.7-0.3,1.5-0.2,2.1,0.3l0.9,0.6
		c-0.7,0.2-1.5,0.4-2.3,0.4c-0.1,0-0.2,0-0.3,0c-0.1,0-0.3-0.1-0.4-0.2C87.7,102.9,87.3,102.6,88.4,102.4z"/>
	<path id="Path_3997" opacity="0.1" enable-background="new    " d="M54.6,70.1c-0.6,0.6-1,1.4-1.4,2.1c-2.4,0.7-5,0-6.8-1.7
		c0.2-0.8,0.2-1.7,0-2.6C45.3,65,54.6,70.1,54.6,70.1z"/>
	<circle id="Ellipse_1186" fill="#FFBEC5" cx="51.2" cy="65.1" r="7.1"/>
	<path id="Path_3998" fill="#504F88" d="M52.1,76.6l-0.4,0.6l4.6,5l2.2,1.5l1.3-1.7L52.1,76.6z"/>
	<path id="Path_3999" fill="#504F88" d="M59.2,82c1.3-0.2,2.6,0.4,3.3,1.5c0.6,1,1,2.1,1.2,3.3c0,0,1.1,0.8,1,1.3
		c-0.1,0.3-0.3,0.6-0.5,0.7c0,0-2-1.2-2.1-1.2s-1.6-1.8-1.6-1.8l-1.3-1.4V82z"/>
	<path id="Path_4000" opacity="0.1" enable-background="new    " d="M45.5,75.1c0,0-3.6,0.3-3.9,2.8s-0.5,3.9,0.8,5.6
		c1,1.2,2.4,2,3.9,2.4c0,0,3.9,3.1,4,5s3.3,6.1,3.3,6.1s6.3,4.7,5.8,6.2s-0.6,5.7,1.1,6.1s4.3,0.1,4.7,0.6s6.8-0.3,6.8-0.3
		s3.6-0.8,5.9-0.1c1.5,0.4,3,0.3,4.4-0.3c0,0,2.8-0.3,2.9-1.4s1.4-1.1,0.2-1.3s-1.9,0.4-2.8,0.1s-1.6-1.3-3.5-1.2s-2.4,0.1-2.6,0
		s1.2-1.1,0.5-2.9s-2.3-3.2-2.2-4.2s-2.9-4.4-2.9-4.4c-0.8-1.2-2-2.1-3.3-2.8c-1.9-0.7-5.3-4.9-5.3-4.9s-3-4.6-4.6-4.9s-6.9-5-6.9-5
		S47.4,74.6,45.5,75.1z"/>
	<path id="Path_4001" fill="#FD6F8D" d="M45.4,75.2c0,0-3.6,0.3-3.9,2.8s-0.5,3.9,0.8,5.6c1,1.2,2.4,2,3.9,2.4c0,0,3.9,3.1,4,5
		s3.3,6.1,3.3,6.1s6.3,4.7,5.8,6.2s-0.6,5.7,1.1,6.1s4.3,0.1,4.7,0.6s6.8-0.3,6.8-0.3s3.6-0.8,5.9-0.1c1.5,0.4,3,0.3,4.4-0.3
		c0,0,2.8-0.3,2.9-1.4s1.4-1.1,0.2-1.3s-1.9,0.4-2.8,0.1s-1.6-1.3-3.5-1.2s-2.4,0.1-2.6,0s1.2-1.1,0.5-2.9s-2.3-3.2-2.2-4.2
		s-2.9-4.4-2.9-4.4c-0.8-1.2-2-2.1-3.3-2.8c-1.8-0.7-5.3-4.9-5.3-4.9s-3-4.6-4.6-4.9s-6.9-5-6.9-5S47.3,74.8,45.4,75.2z"/>
	<path id="Path_4002" opacity="0.1" enable-background="new    " d="M68.5,103.3c-0.3,0.5-0.2,1.1,0.1,1.5c0.2,0.2,0.5,0.3,0.8,0.4
		c0.6,0.2,1.1,0.7,1.4,1.3c0,0.2,0.1,0.3,0.2,0.5c0.1,0.1,0.2,0.2,0.4,0.2c1.7,0.8,3.6,1.2,5.5,1.1c-0.6-0.6-1.4-1-2.3-1.2
		c-0.7,0-1.4-0.1-2-0.3c-0.6-0.3-1.1-0.8-1.5-1.4c-0.2-0.2-0.3-0.4-0.4-0.6c-0.1-0.5,0.1-1,0-1.5c-0.1-0.3-0.7-1.3-1-1.3
		C69.2,102,68.6,103,68.5,103.3z"/>
	<path id="Path_4003" opacity="0.1" enable-background="new    " d="M93.7,91.3c0.4-0.1,2.4-0.5,1.8-1.3
		C94.9,89.3,94.1,91.1,93.7,91.3z"/>
	<path id="Path_4004" fill="#CBE3FF" d="M86.4,71.4l3.4-1.7L88.6,87L85,86.3l0.9-14.3C86,71.8,86.1,71.5,86.4,71.4z"/>
	<path id="Path_4005" fill="#C8BFCA" d="M89.8,69.7L89.8,69.7L88.6,87l0,0c0.3,0,0.5-0.2,0.5-0.5l1.2-16
		C90.4,70.2,90.2,69.8,89.8,69.7z"/>
	<path id="Path_4006" fill="#F1F1F2" d="M85,86.2l-10.9,8c-0.4,0.3-0.4,0.8-0.2,1.1c0,0,0,0,0.1,0.1l1.1,1.2l13.9-10.4l-3.4-0.2
		C85.3,86.1,85.1,86.1,85,86.2L85,86.2z"/>
	<path id="Path_4007" fill="#7E7A98" d="M84.7,87l-7.4,5.2l1,1.1l8.6-6.1L84.7,87z"/>
	<path id="Path_4008" fill="#C8BFCA" d="M75,96.7L75,96.7l13.8-10.4l0,0c0.2,0.5,0.1,1-0.3,1.4l-12.2,9.1
		C75.9,97.1,75.4,97.1,75,96.7z"/>
	<path id="Path_4009" fill="#FFBEC5" d="M72.6,93.9c0,0,4.8-9.8,7.7-6s-4.4,7.8-4.4,7.8L72.6,93.9z"/>
	<path id="Path_4010" opacity="0.1" enable-background="new    " d="M46.9,77.8c-1.9,0.5-3.5,2-4.1,3.9c-0.5,1.1-0.1,2.3,0.8,3
		c2.4,1.8,5.9,3.1,7.5,6c1,1.9,1.7,4,2,6.1l4.1,6.1c0,0,0.6,1.9,4.8,0.4s6.4-2.3,6.4-2.3s3.2-1.7,4.7-2.4c0.2-0.1,0.4-0.2,0.6-0.2
		c0.5,0,4-3,4.1-3.4s-3.5-2.1-5-1.7c0,0-0.2,0.9-3,0.7s-3.8,1-3.8,1c-0.7-0.3-1.5-0.4-2.2-0.4c-0.9,0-2.5-0.8-3.6-0.7
		c0.3-0.7,0.3-1.6-0.2-2.2c-0.8-1-1.5-0.9-1.8-2.1c-0.2-0.7-0.8-2.8-1.3-4.5c-0.6-2.3-1.9-4.4-3.7-6c-1-1.1-2.4-1.7-3.9-1.8
		C48.4,77.5,47.6,77.6,46.9,77.8z"/>
	<path id="Path_4011" opacity="0.1" enable-background="new    " d="M46.9,77.4c-1.9,0.5-3.5,2-4.1,3.9c-0.5,1.1-0.1,2.3,0.8,3
		c2.4,1.8,5.9,3.1,7.5,6c1,1.9,1.7,4,2,6.1l4.1,6.1c0,0,0.6,1.9,4.8,0.4s6.4-2.3,6.4-2.3s3.2-1.7,4.7-2.4c0.2-0.1,0.4-0.2,0.6-0.2
		c0.5,0,4-3,4.1-3.4s-3.5-2.1-5-1.7c0,0-0.2,0.9-3,0.7s-3.8,1-3.8,1c-0.7-0.3-1.5-0.4-2.2-0.4c-0.9,0-2.5-0.8-3.6-0.7
		c0.3-0.7,0.3-1.6-0.2-2.2c-0.8-1-1.5-0.9-1.8-2.1c-0.2-0.7-0.8-2.8-1.3-4.5c-0.6-2.3-1.9-4.4-3.7-6c-1-1.1-2.4-1.7-3.9-1.8
		C48.5,77,47.7,77.2,46.9,77.4z"/>
	<path id="Path_4012" fill="#FD6F8D" d="M46.9,77.6c-1.9,0.5-3.5,2-4.1,3.9c-0.5,1.1-0.1,2.3,0.8,3c2.4,1.8,5.9,3.1,7.5,6
		c1,1.9,1.7,4,2,6.1l4.1,6.1c0,0,0.6,1.9,4.8,0.4s6.4-2.3,6.4-2.3s3.2-1.7,4.7-2.4c0.2-0.1,0.4-0.2,0.6-0.2c0.5,0,4-3,4.1-3.4
		s-3.5-2.1-5-1.7c0,0-0.2,0.9-3,0.7s-3.8,1-3.8,1c-0.7-0.3-1.5-0.4-2.2-0.4c-0.9,0-2.5-0.8-3.6-0.7c0.3-0.7,0.3-1.6-0.2-2.2
		c-0.8-1-1.5-0.9-1.8-2.1c-0.2-0.7-0.8-2.8-1.3-4.5c-0.6-2.3-1.9-4.4-3.7-5.9c-1-1.1-2.4-1.7-3.9-1.8C48.4,77.2,47.6,77.3,46.9,77.6
		L46.9,77.6z"/>
	<path id="Path_4013" opacity="0.1" enable-background="new    " d="M59.6,62.5c0.7-0.2,1.3-0.8,1.5-1.6c0-0.5-0.1-1-0.3-1.4
		c-0.9-1.6-2.7-2.4-4.4-3c-1.7-0.7-3.5-1-5.3-0.9c-1.8,0-3.6,0.8-4.8,2.2c-0.2,0.3-0.5,0.5-0.7,0.8c-0.4,0.3-0.9,0.4-1.5,0.3
		c-1.7-0.1-3.4-0.7-4.9-0.1c-1.8,0.8-2.5,3-2.7,5c-0.1,2.1-0.4,4.1-0.8,6.1c-0.4,2-1.7,3.8-3.5,4.9c-0.5,0.2-1.1,0.5-1.6,0.8
		c-0.5,0.3-0.9,0.9-0.9,1.5c0,0.8,0.7,1.4,1.1,2.1c0.2,0.6,0.5,1.1,0.8,1.6c0.8,0.8,2.3,0.4,3.4,0.9c1,0.5,1.4,1.6,2.1,2.3
		c1,0.8,2.2,1.3,3.4,1.3c0.7,0.1,1.4,0,2-0.2c1.2-0.6,2-1.9,2-3.3c0-1.4-0.2-2.7-0.6-4c-0.1-0.4-0.1-0.9,0-1.3
		c0.1-0.3,0.4-0.6,0.7-0.8c1.5-1.2,3.6-1.7,4.4-3.4c0.6-1.1,0.4-2.5,0.5-3.7c0-0.5,0.2-0.9,0.5-1.3c0.5-0.3,1-0.5,1.6-0.4
		c1.7-0.2,3.2-0.8,4.5-2c0.5-0.6,1-1.2,1.5-1.8C58.1,62.5,58.9,62.8,59.6,62.5z"/>
	<path id="Path_4014" fill="#FFE2DA" d="M59.4,62.3c0.7-0.2,1.3-0.8,1.5-1.6c0-0.5-0.1-1-0.3-1.4c-0.9-1.6-2.7-2.4-4.4-3
		c-1.7-0.7-3.5-1-5.3-0.9c-1.8,0-3.6,0.8-4.8,2.2c-0.2,0.3-0.5,0.5-0.7,0.8c-0.4,0.3-0.9,0.4-1.5,0.3c-1.7-0.1-3.4-0.7-4.9-0.1
		c-1.8,0.8-2.5,3-2.7,5c-0.1,2.1-0.4,4.1-0.8,6.1c-0.4,2-1.7,3.8-3.5,4.9c-0.5,0.2-1.1,0.5-1.6,0.8c-0.5,0.3-0.9,0.9-0.9,1.5
		c0,0.8,0.7,1.4,1.1,2.2c0.2,0.6,0.5,1.1,0.8,1.6c0.8,0.8,2.3,0.4,3.4,0.9c1,0.5,1.4,1.6,2.1,2.3c1,0.8,2.2,1.3,3.4,1.3
		c0.7,0.1,1.4,0,2-0.2c1.2-0.6,2-1.9,2-3.3c0-1.4-0.2-2.7-0.6-4c-0.1-0.4-0.1-0.9,0-1.3c0.1-0.3,0.4-0.6,0.7-0.8
		c1.5-1.2,3.6-1.7,4.4-3.4c0.6-1.1,0.4-2.5,0.5-3.7c0-0.5,0.2-0.9,0.5-1.3c0.5-0.3,1-0.5,1.6-0.4c1.7-0.2,3.2-0.9,4.5-2
		c0.5-0.6,1-1.2,1.5-1.8C57.8,62.3,58.7,62.6,59.4,62.3z"/>
	<g id="Group_2958" transform="translate(30.932 58.342)" opacity="0.1">
		<path id="Path_4015" d="M3.2,22.6c-1-0.5-2.4-0.1-3.2-0.7c0.1,0.2,0.2,0.3,0.3,0.4c0.8,0.8,2.3,0.4,3.4,0.9
			c0.2,0.1,0.5,0.3,0.7,0.5C4.1,23.2,3.7,22.9,3.2,22.6L3.2,22.6z"/>
		<path id="Path_4016" d="M29.6,1c-0.2-0.4-0.4-0.7-0.7-1c0.1,0.1,0.2,0.3,0.3,0.4c0.3,0.4,0.4,0.9,0.3,1.4
			c-0.2,0.7-0.7,1.3-1.5,1.6c-0.7,0.3-1.6,0-2.1,0.6c-0.5,0.6-1,1.2-1.5,1.8c-1.3,1.1-2.8,1.8-4.5,2c-0.6,0-1.1,0.1-1.6,0.4
			C18,8.5,17.8,9,17.8,9.4c-0.1,1.3,0,2.6-0.5,3.7c-0.8,1.7-2.9,2.2-4.4,3.4c-0.3,0.2-0.5,0.5-0.7,0.8c-0.1,0.4-0.1,0.9,0,1.3
			c0.4,1.3,0.6,2.7,0.6,4c0,1.4-0.8,2.7-2,3.3c-0.6,0.2-1.3,0.3-2,0.2c-1.3,0-2.5-0.5-3.4-1.3l0,0c0.2,0.2,0.3,0.4,0.5,0.6
			c1,0.8,2.2,1.3,3.4,1.3c0.7,0.1,1.4,0,2-0.2c1.2-0.6,2-1.9,2-3.3c0-1.4-0.2-2.7-0.6-4c-0.1-0.4-0.1-0.9,0-1.3
			c0.1-0.3,0.4-0.6,0.7-0.8c1.5-1.2,3.6-1.7,4.4-3.4c0.6-1.1,0.4-2.5,0.5-3.7c0-0.5,0.2-0.9,0.5-1.3c0.5-0.3,1-0.5,1.6-0.4
			c1.7-0.2,3.2-0.9,4.5-2c0.5-0.6,1-1.2,1.5-1.8C26.9,4,27.8,4.2,28.5,4c0.7-0.2,1.3-0.8,1.5-1.6C30,1.9,29.9,1.4,29.6,1z"/>
	</g>
	<path id="Path_4017" fill="#007DC3" d="M18.7,111.5c0,0,1.4,1.9-0.7,4.7s-3.8,5.2-3.1,6.9c0,0,3.1-5.2,5.7-5.3
		S21.5,114.6,18.7,111.5z"/>
	<path id="Path_4018" opacity="0.1" enable-background="new    " d="M18.7,111.5c0.1,0.2,0.2,0.4,0.3,0.6c2.5,2.9,3.8,5.7,1.4,5.7
		c-2.2,0.1-4.9,4.1-5.6,5.1c0,0.1,0,0.2,0.1,0.2c0,0,3.1-5.2,5.7-5.3S21.5,114.6,18.7,111.5z"/>
	<path id="Path_4019" fill="#FFD037" d="M21.3,113.8c0,0.7-0.1,1.2-0.2,1.2s-0.2-0.5-0.2-1.2s0.1-0.3,0.2-0.3S21.3,113.2,21.3,113.8
		z"/>
	<path id="Path_4020" fill="#FFD037" d="M22.2,114.6c-0.6,0.3-1.1,0.5-1.1,0.4s0.4-0.4,1-0.7s0.3-0.1,0.4,0S22.8,114.3,22.2,114.6z"
		/>
	<path id="Path_4021" fill="#007DC3" d="M11.1,111.5c0,0-1.4,1.9,0.7,4.7s3.8,5.2,3.1,6.9c0,0-3.1-5.2-5.7-5.3S8.3,114.6,11.1,111.5
		z"/>
	<path id="Path_4022" opacity="0.1" enable-background="new    " d="M11.1,111.5c-0.1,0.2-0.2,0.4-0.3,0.6c-2.5,2.9-3.8,5.7-1.4,5.7
		c2.2,0.1,4.9,4.1,5.6,5.1c0,0.1,0,0.2-0.1,0.2c0,0-3.1-5.2-5.7-5.3S8.3,114.6,11.1,111.5z"/>
	<path id="Path_4023" fill="#FFD037" d="M8.5,113.8c0,0.7,0.1,1.2,0.2,1.2s0.2-0.5,0.2-1.2s-0.1-0.3-0.2-0.3S8.5,113.2,8.5,113.8z"
		/>
	<path id="Path_4024" fill="#FFD037" d="M7.6,114.6c0.6,0.3,1.1,0.5,1.1,0.4s-0.4-0.4-1-0.7s-0.3-0.1-0.4,0S7,114.3,7.6,114.6z"/>
	<ellipse id="Ellipse_1189" opacity="0.1" fill="#007DC3" enable-background="new    " cx="14.9" cy="135.1" rx="14.9" ry="2.3"/>
	<path id="Path_4025" fill="#65617D" d="M22.6,120.6l-0.1,0.6l-0.1,0.8l0,0.3l-0.1,0.8l0,0.3l-0.1,0.8l-1.1,9.3
		c-0.1,0.8-1.5,1.5-3.1,1.5h-5.9c-1.6,0-3-0.6-3.1-1.5l-1.1-9.3l-0.1-0.8l0-0.3l-0.1-0.8l0-0.3l-0.1-0.8l-0.1-0.6
		c-0.1-0.5,0.7-0.9,1.6-0.9H21C21.9,119.7,22.6,120.1,22.6,120.6z"/>
	<path id="Path_4026" fill="#9D9CB5" d="M22.5,121.2l-0.1,0.8h-15l-0.1-0.8H22.5z"/>
	<path id="Path_4027" fill="#9D9CB5" d="M22.4,122.3l-0.1,0.8H7.5l-0.1-0.8H22.4z"/>
	<path id="Path_4028" fill="#9D9CB5" d="M22.2,123.5l-0.1,0.8H7.7l-0.1-0.8H22.2z"/>
</g>
</svg>
