<?xml version="1.0" encoding="iso-8859-1"?>
<!-- Generator: Adobe Illustrator 24.0.1, SVG Export Plug-In . SVG Version: 6.00 Build 0)  -->
<svg version="1.1" id="Layer_1" xmlns="http://www.w3.org/2000/svg" xmlns:xlink="http://www.w3.org/1999/xlink" x="0px" y="0px"
	 viewBox="0 0 197.6 154.2" enable-background="new 0 0 197.6 154.2" xml:space="preserve">
<g id="Relax_illustration" transform="translate(0 -0.008)">
	<path id="Path_3857" opacity="0.1" fill="#ED1C24" enable-background="new    " d="M194.4,113.2c-1.2,3.1-3,5.9-5.3,8.3
		c-2.8,2.6-6.4,4.4-10.2,5c-1.1,0.2-2.2,0.4-3.4,0.4c-3,0.2-6,0.1-9-0.2c-7.2-0.8-14.3-2.3-21.2-4.5c-1.1-0.4-2.3-0.8-3.4-1.2
		c-1.7-0.6-3.4-1.3-5-2c-6.8-2.8-13.8-6.4-21-5.3c-3.5,0.5-6.8,2.2-10.3,2.7c-2.5,0.3-4.9,0.1-7.3-0.5c-1.2-0.3-2.3-0.7-3.4-1.2
		c-2.5-1.1-4.8-2.4-7-4c-5.3-3.7-10-8.3-15.6-11.4c-6.1-3.5-12.9-5.2-19.8-6.4c-1.1-0.2-2.3-0.4-3.4-0.6c-3.2-0.5-6.4-1-9.6-1.6
		c-3.1-0.4-6.1-1.4-8.8-2.9c-1.9-1.3-3.5-2.8-4.9-4.6c-2.7-3.3-5-6.8-6.9-10.6c-0.1-0.2-0.2-0.4-0.3-0.6c-2.9-6.1-5-12.6-6.1-19.3
		c0-0.2-0.1-0.4-0.1-0.6c-1.1-6.7-1.6-13.5-1.4-20.3l0-0.6c0.1-3.4,0.3-6.7,0.6-10c0.1-2.3,0.7-4.6,1.7-6.7c1.3-1.8,3.1-3.3,5.1-4.2
		c8.6-4.6,16.9-5.9,26.1-3.6c1.5,0.4,3,0.7,4.5,1.1c1.1,0.3,2.3,0.6,3.4,0.9c7.8,2.2,15.5,4.5,23.6,5.2c0.8,0.1,1.6,0.1,2.3,0.2
		c1.5,0.1,3.1,0.1,4.6,0c4-0.1,7.9-0.5,11.8-1.2c1.1-0.2,2.3-0.4,3.4-0.6c4.9-1,9.7-2.4,14.4-3.9c1-0.3,1.9-0.6,2.9-0.9
		c2.2-0.7,4.3-1.4,6.5-2.1c6.4-2.2,13-3.9,19.8-4.8c0.6-0.1,1.2-0.1,1.7-0.2c0.6,0,1.1-0.1,1.7-0.1c10.5-0.5,21,2,30.2,7.1
		c1.1,0.6,2.3,1.3,3.4,2c1.5,1,3,2.1,4.5,3.2c3,2.3,5.7,5.1,7.8,8.3c2,3.2,3.4,6.7,4.1,10.4c0,0.2,0.1,0.4,0.1,0.6
		c1,6.1,0.9,12.4-0.5,18.4c-0.1,0.6-0.3,1.3-0.4,1.9c0,0.2-0.1,0.4-0.1,0.6c-1.4,5.7-3.1,11.3-2.6,17.1c0.1,0.7,0.1,1.5,0.3,2.2
		c0,0.2,0.1,0.4,0.1,0.6c0.9,4.7,2.9,9.2,4.1,13.9C198.6,95.3,197.9,104.7,194.4,113.2L194.4,113.2z"/>
	<path id="Path_3858" opacity="0.1" fill="#ED1C24" enable-background="new    " d="M179,31.7h16.5c0-0.2-0.1-0.4-0.1-0.6H179V9.2
		c-1.1-0.7-2.2-1.4-3.4-2v23.9h-30.2v-31c-0.6,0-1.1,0.1-1.7,0.1s-1.2,0.1-1.7,0.2v30.7H98.8L98.7,31l23.5-25.8
		c-2.2,0.7-4.3,1.4-6.5,2.1l-17.3,19V12.1c-1.1,0.2-2.3,0.5-3.4,0.6V27L83.2,14c-1.5,0-3.1,0-4.6,0L94.1,31L94,31.1H52.6V8.6
		c-1.1-0.3-2.3-0.6-3.4-0.9v23.4h-38l0,0.6h38V52H12.6c0,0.2,0.1,0.4,0.1,0.6h36.5v19.3H18.8c0.1,0.2,0.2,0.4,0.3,0.6h30.1v19.7
		c1.1,0.2,2.3,0.4,3.4,0.6V72.5H95v42.2c1.1,0.5,2.2,0.9,3.4,1.2V72.5h43.6v48.5c1.1,0.4,2.2,0.8,3.4,1.2V72.5h30.2v54.4
		c1.1-0.1,2.3-0.2,3.4-0.4v-54h13.2c0-0.2-0.1-0.4-0.1-0.6h-13.1V52.6h15.5c0-0.2,0.1-0.4,0.1-0.6H179V31.7z M175.6,31.7V52h-30.2
		V31.7H175.6z M142,52H98.4V31.7h43.6L142,52z M52.6,31.7h41.8l0.6,0.5V52H52.6V31.7z M52.6,71.9V52.6H95v19.3L52.6,71.9z
		 M98.4,71.9V52.6h43.6v19.3L98.4,71.9z M175.6,71.9h-30.2V52.6h30.2L175.6,71.9z"/>
	<path id="Path_3859" opacity="0.1" fill="#ED1C24" enable-background="new    " d="M161,17.7h-0.3c0.2-0.1,0.3-0.3,0.3-0.5l0,0
		c0-0.4-0.5-0.7-1.1-0.7h-7.9c-0.6,0-1.1,0.3-1.1,0.7l0,0c0,0.4,0.5,0.7,1.1,0.7h0.3c-0.2,0.1-0.3,0.3-0.3,0.5
		c0,0.3,0.4,0.6,0.9,0.7h-2.3c-0.6,0-1.1,0.3-1.1,0.7s0.5,0.7,1.1,0.7h7.8c0.6,0,1.1-0.3,1.1-0.7c0-0.3-0.4-0.6-0.9-0.7h2.3
		c0.6,0,1.1-0.3,1.1-0.7S161.6,17.7,161,17.7z"/>
	<path id="Path_3860" opacity="0.1" fill="#ED1C24" enable-background="new    " d="M76,24.8h-0.3c0.2-0.1,0.3-0.3,0.3-0.5l0,0
		c0-0.4-0.5-0.7-1.1-0.7h-7.8c-0.6,0-1.1,0.3-1.1,0.7l0,0c0,0.4,0.5,0.7,1.1,0.7h0.3c-0.2,0.1-0.3,0.3-0.3,0.5
		c0,0.4,0.4,0.6,0.9,0.7h-2.3c-0.6,0-1.1,0.3-1.1,0.7s0.5,0.7,1.1,0.7h7.9c0.6,0,1.1-0.3,1.1-0.7c0-0.4-0.4-0.6-0.9-0.7h2.3
		c0.6,0,1.1-0.3,1.1-0.7S76.7,24.8,76,24.8z"/>
	<path id="Path_3861" opacity="0.1" fill="#ED1C24" enable-background="new    " d="M173.1,55.3h-0.3c0.2-0.1,0.3-0.3,0.3-0.5l0,0
		c0-0.4-0.5-0.7-1.1-0.7h-7.8c-0.6,0-1.1,0.3-1.1,0.7l0,0c0,0.4,0.5,0.7,1.1,0.7h0.3c-0.2,0.1-0.3,0.3-0.3,0.5
		c0,0.4,0.4,0.6,0.9,0.7h-2.3c-0.6,0-1.1,0.3-1.1,0.7s0.5,0.7,1.1,0.7h7.8c0.6,0,1.1-0.3,1.1-0.7c0-0.4-0.4-0.6-0.9-0.7h2.3
		c0.6,0,1.1-0.3,1.1-0.7S173.7,55.3,173.1,55.3z"/>
	<ellipse id="Ellipse_1175" opacity="0.1" fill="#ED1C24" enable-background="new    " cx="104.6" cy="144.9" rx="84.1" ry="9.3"/>
	<path id="Path_3862" fill="#E9CCDB" d="M122.1,78.9v29.2c0,0.5-0.1,1-0.2,1.5c-0.7,2.4-2.8,4-5.3,4H91.9c-3,0-5.5-2.5-5.5-5.5
		c0,0,0,0,0,0V78.9c0-3,2.5-5.5,5.5-5.5c0,0,0,0,0,0h24.7c2.5,0,4.6,1.7,5.3,4C122,77.9,122,78.4,122.1,78.9L122.1,78.9z"/>
	<path id="Path_3863" opacity="0.1" enable-background="new    " d="M86.8,78.9v29.2c0,0.5-0.1,1-0.2,1.5c-0.1-0.5-0.2-1-0.2-1.5
		V78.9c0-0.5,0.1-1,0.2-1.5C86.7,77.9,86.8,78.4,86.8,78.9z"/>
	<path id="Rectangle_2486" fill="#E9CCDB" d="M63.2,73.4h3.1c11.1,0,20.1,9,20.1,20.1v0c0,11.1-9,20.1-20.1,20.1h-3.1
		c-11.1,0-20.1-9-20.1-20.1v0C43.1,82.4,52.1,73.4,63.2,73.4z"/>
	<path id="Path_3864" opacity="0.1" enable-background="new    " d="M122.1,78.9v29.2c0,0.5-0.1,1-0.2,1.5c-0.1-0.5-0.2-1-0.2-1.5
		V78.9c0-0.5,0.1-1,0.2-1.5C122,77.9,122.1,78.4,122.1,78.9z"/>
	<path id="Rectangle_2487" fill="#E9CCDB" d="M142.1,73.4h3.1c11.1,0,20.1,9,20.1,20.1v0c0,11.1-9,20.1-20.1,20.1h-3.1
		c-11.1,0-20.1-9-20.1-20.1v0C122.1,82.4,131,73.4,142.1,73.4z"/>
	<path id="Path_3865" opacity="0.1" enable-background="new    " d="M84.2,116.6H44.7l-0.2-3.5c-0.2-3.9,4.8-7.1,11-7.1h26.9
		c2.1,0,3.7,1.1,3.5,2.4L84.2,116.6z"/>
	<path id="Path_3866" fill="#CAA4BC" d="M84.2,117H44.7l-0.2-3.5c-0.2-3.9,4.8-7.1,11-7.1h26.9c2.1,0,3.7,1.1,3.5,2.4L84.2,117z"/>
	<path id="Path_3867" opacity="0.1" enable-background="new    " d="M123.8,116.8h39.5l0.2-3.5c0.2-3.9-4.8-7.1-11-7.1h-26.9
		c-2.1,0-3.7,1.1-3.5,2.4L123.8,116.8z"/>
	<path id="Path_3868" fill="#CAA4BC" d="M123.8,117.2h39.5l0.2-3.5c0.2-3.9-4.8-7.1-11-7.1h-26.9c-2.1,0-3.7,1.1-3.5,2.4
		L123.8,117.2z"/>
	<path id="Path_3869" opacity="0.1" enable-background="new    " d="M91,106.2h26.8c3.1,0,5.7,2.5,5.7,5.7v3.5H84.8v-3
		C84.8,109,87.6,106.2,91,106.2L91,106.2z"/>
	<path id="Path_3870" fill="#CAA4BC" d="M91,106.6h26.8c3.1,0,5.7,2.5,5.7,5.7v3.5H84.8v-3C84.8,109.4,87.6,106.6,91,106.6L91,106.6
		z"/>
	<path id="Path_3871" fill="#E9CCDB" d="M47.4,110.2h32c3,0,5.4,2.4,5.4,5.4l0,0v7.3H45v-10.3C45,111.3,46.1,110.2,47.4,110.2z"/>
	<path id="Path_3872" opacity="0.1" enable-background="new    " d="M88.8,110.2h30.4c3,0,5.4,2.4,5.4,5.4l0,0v7.3H83.7v-7.6
		C83.7,112.5,86,110.2,88.8,110.2z"/>
	<path id="Path_3873" opacity="0.1" enable-background="new    " d="M89.6,110.2H120c3,0,5.4,2.4,5.4,5.4l0,0v7.3H84.5v-7.6
		C84.5,112.5,86.8,110.2,89.6,110.2z"/>
	<path id="Path_3874" fill="#E9CCDB" d="M89.2,110.2h30.4c3,0,5.4,2.4,5.4,5.4l0,0v7.3H84.1v-7.6C84.1,112.5,86.4,110.2,89.2,110.2z
		"/>
	<path id="Path_3875" opacity="0.1" enable-background="new    " d="M126.2,110.2h32.5c2.8,0,5.1,2.3,5.1,5.1v7.5h-39.8v-10.5
		C124.1,111.1,125,110.2,126.2,110.2C126.2,110.2,126.2,110.2,126.2,110.2z"/>
	<path id="Path_3876" fill="#E9CCDB" d="M126.6,110.2h32.5c2.8,0,5.1,2.3,5.1,5.1v7.5h-39.8v-10.5
		C124.5,111.1,125.4,110.2,126.6,110.2C126.6,110.2,126.6,110.2,126.6,110.2z"/>
	<path id="Path_3877" fill="#9C7AA5" d="M45.6,139.6v5.4c0,1.5-1.2,2.7-2.7,2.7H41c-1.5,0-2.7-1.2-2.7-2.7v-5.4H45.6z"/>
	<path id="Path_3878" fill="#9C7AA5" d="M170.8,139.6v5.4c0,1.5-1.2,2.7-2.7,2.7h-1.9c-1.5,0-2.7-1.2-2.7-2.7v-5.4H170.8z"/>
	<path id="Path_3879" fill="#E9CCDB" d="M47.6,104.1c0-4-3.3-7.3-7.3-7.3s-7.3,3.3-7.3,7.3c0,3.5,2.5,6.5,5.9,7.1v29.4h8.2v-33.8
		C47.4,105.9,47.6,105,47.6,104.1z"/>
	<path id="Path_3880" fill="#E9CCDB" d="M161.2,104.1c0-4,3.3-7.3,7.3-7.3s7.3,3.3,7.3,7.3c0,3.5-2.5,6.5-5.9,7.1v29.4h-8.2v-33.8
		C161.3,105.9,161.2,105,161.2,104.1z"/>
	<path id="Path_3881" opacity="0.1" enable-background="new    " d="M47.6,104.1c0-4-3.3-7.3-7.3-7.3s-7.3,3.3-7.3,7.3
		c0,3.5,2.5,6.5,5.9,7.1v29.4h8.2v-33.8C47.4,105.9,47.6,105,47.6,104.1z"/>
	<path id="Path_3882" opacity="0.1" enable-background="new    " d="M161.2,104.1c0-4,3.3-7.3,7.3-7.3s7.3,3.3,7.3,7.3
		c0,3.5-2.5,6.5-5.9,7.1v29.4h-8.2v-33.8C161.3,105.9,161.2,105,161.2,104.1z"/>
	<rect id="Rectangle_2488" x="43.1" y="135.5" fill="#9C7AA5" width="122.9" height="5.7"/>
	<rect id="Rectangle_2489" x="44.5" y="122.8" opacity="0.1" enable-background="new    " width="120.8" height="13"/>
	<rect id="Rectangle_2490" x="44.5" y="122.4" fill="#CAA4BC" width="120.8" height="13"/>
	<rect id="Rectangle_2491" x="163.5" y="139.6" opacity="0.1" enable-background="new    " width="7.3" height="1.9"/>
	<path id="Path_3883" fill="#E9CCDB" d="M163,104.7c0-4,3.3-7.3,7.3-7.3c4,0,7.3,3.3,7.3,7.3c0,3.5-2.5,6.5-5.9,7.1v29.4h-8.2v-33.8
		C163.1,106.5,163,105.6,163,104.7z"/>
	<rect id="Rectangle_2492" x="38.2" y="139.6" opacity="0.1" enable-background="new    " width="7.3" height="1.9"/>
	<path id="Path_3884" fill="#E9CCDB" d="M46,104.7c0-4-3.3-7.3-7.3-7.3c-4,0-7.3,3.3-7.3,7.3c0,3.5,2.5,6.4,5.9,7.1v29.4h8.2v-33.8
		C45.8,106.5,46,105.6,46,104.7z"/>
	<rect id="Rectangle_2493" x="47.1" y="122.4" opacity="0.1" enable-background="new    " width="114.6" height="0.4"/>
	<circle id="Ellipse_1176" fill="#CAA4BC" cx="38.2" cy="104.4" r="3.3"/>
	<circle id="Ellipse_1177" fill="#CAA4BC" cx="170.8" cy="104.4" r="3.3"/>
	<path id="Path_3885" opacity="0.1" enable-background="new    " d="M72.9,98.9c-3.1-0.8-9.7-9-9.7-9c-2.5-1.7-7.5-12.2-7.5-12.2
		s-1.9-0.9-3.6,3.2s-11.5,7.3-14.5,7.8c-1.7,0.3-1.5,1-1,1.6c0.3,0.4,0.7,0.7,1.2,0.8c1.3,0.5,5.1,5.1,5.1,5.1
		c3.6,2.5,7.6,13.8,9,16.7c0.7,1.6,1.6,0.9,2.2-0.2c1.1-2,2.7-3.7,4.6-5c3.3-2.3,7-4,10.9-5C69.9,102.6,76.1,99.7,72.9,98.9z"/>
	<path id="Path_3886" fill="#ED1C24" d="M31.4,89.2c-0.5-0.2-1-0.5-1.3-0.9c-0.5-0.7-0.7-1.5,1-1.8c3.1-0.5,13.2-4.1,14.7-8.7
		s3.6-3.6,3.6-3.6S55.4,86,58.2,88c0,0,7.5,9.3,10.9,10.2s-3,4.2-3.5,4.2c-4,1.1-7.8,3.1-11.1,5.6c-1.9,1.5-3.4,3.4-4.5,5.6
		c-0.5,1.2-1.4,2-2.3,0.2c-1.6-3.3-6.6-16.1-10.6-18.9C37.1,95,32.7,89.7,31.4,89.2z"/>
	<path id="Path_3887" opacity="0.1" enable-background="new    " d="M31.4,89.2c-0.5-0.2-1-0.5-1.3-0.9c-0.5-0.7-0.7-1.5,1-1.8
		c3.1-0.5,13.2-4.1,14.7-8.7s3.6-3.6,3.6-3.6S55.4,86,58.2,88c0,0,7.5,9.3,10.9,10.2s-3,4.2-3.5,4.2c-4,1.1-7.8,3.1-11.1,5.6
		c-1.9,1.5-3.4,3.4-4.5,5.6c-0.5,1.2-1.4,2-2.3,0.2c-1.6-3.3-6.6-16.1-10.6-18.9C37.1,95,32.7,89.7,31.4,89.2z"/>
	<path id="Path_3888" fill="#ED1C24" d="M33.5,88.9c-0.5-0.2-0.9-0.5-1.2-0.8c-0.5-0.6-0.7-1.4,1-1.6c2.9-0.5,12.5-4,14-8.2
		s3.4-3.3,3.4-3.3s5.5,10.7,8.1,12.5c0,0,7,8.4,10.1,9.2s-2.9,3.9-3.3,3.9c-3.8,1.1-7.4,2.9-10.5,5.3c-1.8,1.4-3.3,3.2-4.3,5.2
		c-0.5,1.1-1.3,1.9-2.1,0.2c-1.5-3-6-14.6-9.7-17.1C38.9,94.1,34.8,89.4,33.5,88.9z"/>
	<path id="Path_3889" opacity="0.1" enable-background="new    " d="M44.7,92.7c0,0-1,1,3.9-0.9S44.7,92.7,44.7,92.7z"/>
	<path id="Path_3890" opacity="0.1" enable-background="new    " d="M48.8,97.5c0,0,0.8,0.1,3.6-1.1S48.8,97.5,48.8,97.5z"/>
	<path id="Path_3891" opacity="0.1" enable-background="new    " d="M48.5,106.3c1.2-0.2,2.4-0.6,3.6-1.2
		C54.9,103.9,48.5,106.3,48.5,106.3z"/>
	<path id="Path_3892" opacity="0.1" enable-background="new    " d="M164.9,86.6v3.8c-0.8,1.7-1.6,3.9-1.6,3.9
		c-2.4,3.1-2,13.5-2.2,16.3c-0.1,1.6-1.1,1.2-2,0.5c-1.7-1.2-3.7-2.1-5.8-2.6c-3.8-0.8-7.6-1-11.5-0.6c-0.4,0.1-7-0.3-4.5-1.9
		s5.5-10.3,5.5-10.3c1.6-2.2,2.5-12.2,2.5-12.2s1.4-1.3,4.3,1.4C152.5,87.5,161.6,87.1,164.9,86.6z"/>
	<path id="Path_3893" fill="#ED1C24" d="M167.1,87.9c0.4-0.3,0.6-0.6,0.8-1c0.2-0.6,0.1-1.3-1.5-0.9c-2.8,0.6-12.8,1.1-15.7-1.7
		s-4.3-1.4-4.3-1.4s-0.8,10-2.5,12.2c0,0-3,8.7-5.5,10.3s4.1,2.1,4.5,1.9c3.8-0.4,7.7-0.2,11.5,0.6c2.1,0.5,4.1,1.3,5.8,2.6
		c0.9,0.6,1.9,1,2-0.5c0.2-2.8-0.2-13.1,2.2-16.3C164.3,93.7,166.1,88.7,167.1,87.9z"/>
	<path id="Path_3894" opacity="0.1" enable-background="new    " d="M167.1,87.9c0.4-0.3,0.6-0.6,0.8-1c0.2-0.6,0.1-1.3-1.5-0.9
		c-2.8,0.6-12.8,1.1-15.7-1.7s-4.3-1.4-4.3-1.4s-0.8,10-2.5,12.2c0,0-3,8.7-5.5,10.3s4.1,2.1,4.5,1.9c3.8-0.4,7.7-0.2,11.5,0.6
		c2.1,0.5,4.1,1.3,5.8,2.6c0.9,0.6,1.9,1,2-0.5c0.2-2.8-0.2-13.1,2.2-16.3C164.3,93.7,166.1,88.7,167.1,87.9z"/>
	<path id="Path_3895" fill="#ED1C24" d="M166.3,88.4c0.3-0.3,0.6-0.6,0.7-1c0.2-0.6,0.1-1.2-1.4-0.9c-2.7,0.5-12.1,1-14.9-1.6
		s-4.1-1.3-4.1-1.3s-0.8,9.5-2.3,11.6c0,0-2.9,8.3-5.3,9.8s3.9,2,4.3,1.8c3.6-0.4,7.3-0.2,10.9,0.6c2,0.4,3.9,1.3,5.5,2.4
		c0.8,0.6,1.8,1,1.9-0.5c0.1-2.7-0.2-12.5,2.1-15.4C163.7,93.8,165.4,89.1,166.3,88.4z"/>
	<path id="Path_3896" opacity="0.1" enable-background="new    " d="M159.3,93.9c-1.3,0.6-2.7,1.1-4,1.5
		C152,96.6,158.8,95,159.3,93.9z"/>
	<path id="Path_3897" opacity="0.1" enable-background="new    " d="M159,97.4c0,0-2.1,1.7-3.1,1.9S158.4,99.1,159,97.4z"/>
	<path id="Path_3898" opacity="0.1" enable-background="new    " d="M160.7,105.3c0,0-2.1,1.7-3.1,1.9S160.1,107,160.7,105.3z"/>
	
		<linearGradient id="Path_3899_1_" gradientUnits="userSpaceOnUse" x1="-203.4692" y1="467.3057" x2="-203.4692" y2="468.3057" gradientTransform="matrix(101.4396 0 0 -55.7667 20718.5996 26170.5449)">
		<stop  offset="0" style="stop-color:#808080;stop-opacity:0.251"/>
		<stop  offset="0.54" style="stop-color:#808080;stop-opacity:0.122"/>
		<stop  offset="1" style="stop-color:#808080;stop-opacity:0.102"/>
	</linearGradient>
	<path id="Path_3899" fill="url(#Path_3899_1_)" d="M129,106.7c-0.3,0-0.6-0.1-0.9-0.1c0-0.1-0.2-0.2-0.5-0.2h-0.1
		c-1-0.4-2-1-2.7-1.8c-1.1-1-2.3-1.7-3.7-2.4c0,0-1.9-1.6-3.2-1.7s-4.8-3.7-7.7-6.9c-2.4-2.5-4.9-4.7-7.6-6.8l-2-2.2
		c-1-0.7-2-1.6-2.8-2.5c-0.6-0.6-1.3-0.8-2.1-0.8c-1.1-0.3-2.3-0.4-3.4-0.2c-1.1,0.7-2.2,1.6-3,2.6l1-13.4c0-0.4-0.2-0.7-0.6-0.9
		L86.3,71c-0.3,0.1-0.4,0.4-0.4,0.7l-1,14.4l-4.2,3c-0.1-0.5-0.3-1-0.6-1.4c-2.3-3-6,2.7-7.3,5.1c-0.1,0-0.1,0-0.2,0
		c0,0.1-0.1,0.1-0.1,0.2c-1-0.5-2-1.1-2.9-1.8c-0.1-0.1-0.1-0.1-0.2-0.2c-0.4-0.7-0.9-1.3-1.4-1.8c-1.1-1.3-2.4-2.6-3.7-3.7
		c-0.2-0.1-0.9-0.6-1.8-1.3c-0.1-0.3-0.3-0.6-0.5-0.9c-0.6-0.9-1.5-1.4-2.5-1.5c-0.7-0.6-1.3-1-1.4-1c-0.9-0.9-1.7-2-2.2-3.2
		c-0.6-1.1-4.6-1.3-4.6-1.3c0-1.6,0.3-3.1,1.1-4.5c0-0.1,0.1-0.2,0.1-0.2c3.8-1.1,6.1-5.1,4.9-9c0-0.1-0.1-0.2-0.1-0.3
		c0.5-0.2,1.1-0.1,1.7-0.3c0.7-0.2,1.3-0.8,1.5-1.6c0-0.5-0.1-1-0.3-1.4c-0.2-0.4-0.6-0.8-0.9-1.2c-1.1-1-2.4-1.7-3.8-2.1
		c-1.7-0.7-3.6-1-5.4-1c-1.9,0-3.7,0.8-4.9,2.2c-0.2,0.3-0.5,0.6-0.7,0.8c-0.4,0.3-1,0.4-1.5,0.3c-1.7-0.1-3.5-0.7-5-0.1
		C35.9,58.7,35.3,61,35,63c-0.1,2.1-0.4,4.2-0.9,6.2c-0.5,2.1-1.7,3.9-3.5,5c-0.6,0.3-1.1,0.5-1.6,0.8c-0.5,0.3-0.9,0.9-0.9,1.5
		c0,0.8,0.8,1.5,1.1,2.2c0.2,0.4,0.3,0.8,0.5,1.2l0,0c0,0,0,0.1,0.1,0.1l0,0c0,0,0,0.1,0.1,0.1c0,0,0,0,0,0l0.1,0.1c0,0,0,0,0,0
		c0,0,0.1,0.1,0.1,0.1c0,0,0.1,0.1,0.1,0.1c0,0,0.1,0.1,0.1,0.1c0.9,0.9,2.4,0.4,3.5,0.9c0.2,0.1,0.4,0.2,0.6,0.4
		c0.4,0.4,0.7,0.9,1,1.3l0,0l0.1,0.1l0.1,0.1c0,0,0.1,0.1,0.1,0.1s0.1,0.1,0.1,0.1l0.1,0.1c0,0,0.1,0.1,0.1,0.1
		c1,0.8,2.2,1.3,3.5,1.3c0.7,0.1,1.4,0,2.1-0.2c0.3-0.1,0.6-0.3,0.8-0.5c0.4,0.3,0.8,0.6,1.2,0.8c1,0.7,2.2,1.3,3.3,2
		c1.1,1.1,2.5,2.6,2.5,3.7c0,1.5,2.1,4.4,3,5.6c0,0.2,0.1,0.4,0.1,0.4l4.2,6.2c0,0,0.3,1,2,1c-0.3,1.9-0.2,5.1,1.3,5.5
		c1.7,0.4,4.4,0.1,4.8,0.6s6.9-0.3,6.9-0.3s3.6-0.8,6.1-0.1c1.5,0.4,3.1,0.3,4.5-0.3c0,0,2.6-0.2,2.9-1.3c0.1-0.1,0.1-0.2,0.1-0.3
		c0-0.1,0-0.2,0.1-0.3c0.3-0.4,0.7-0.6,0.5-0.6c0.2-0.2,0.2-0.2-0.4-0.3c-0.4-0.1-0.8,0-1.2,0c0.1-0.1,0.3-0.3,0.4-0.5
		c0.1,0,0.2,0,0.3,0c0.9,0.1,0.9-0.3,1.7-0.6c1.1-0.2,2.2-0.4,3.3-0.5c1.2-0.1,2.3-0.7,3.2-1.6c0.6-0.7,2.9-0.3,3.5-1.5
		c0.6-1-1.4-1.9-2.4-1.8c-0.3,0-0.5,0-0.7,0.1c-1.1,0.4-2.4,0.6-3.6,0.6c-0.2-0.1-0.8-0.3-1.6-0.5c0.7-1.1,1.6-2.6,2.5-3.8
		c0.7-1.1,1.5-2.1,2.5-3c0.3-0.5,0.7-1,1.2-1.4c1.2,2.9,8,7.9,11.3,8.5c3.6,0.6,7.2,3.6,7.2,3.6c-0.2,0.7-0.3,1.3-0.3,2
		c0,0.3,0.7,0.4,1.5,0.5c0.6,0.4,3.3,0.4,4.3,0.2c1.2-0.2,4.4,0.6,7.1,0.8S130.6,106.8,129,106.7z"/>
	<path id="Path_3900" fill="#FD6F8D" d="M62.9,84.2l-0.2,3.2l1.5,3.3l2.2,1.9l2.4,1.4l2.2,1.5l2.2-2c0,0-3.2-2.1-3.5-2.8
		c-0.5-0.8-1.1-1.5-1.7-2.1l-2-2l-1.7-1.5L62.9,84.2z"/>
	<path id="Path_3901" opacity="0.1" enable-background="new    " d="M62.9,84.2l-0.2,3.2l1.5,3.3l2.2,1.9l2.4,1.4l2.2,1.5l2.2-2
		c0,0-3.2-2.1-3.5-2.8c-0.5-0.8-1.1-1.5-1.7-2.1l-2-2l-1.7-1.5L62.9,84.2z"/>
	<path id="Path_3902" fill="#FFBEC5" d="M52.9,71.9c-1.1,2-1.3,4.3-0.7,6.4c1.4,4.8-9-1.9-9-1.9c1.3-1.9,2.3-4,2.9-6.2
		c0.2-0.8,0.2-1.7,0-2.5c-1-2.9,8.2,2.1,8.2,2.1C53.8,70.4,53.3,71.1,52.9,71.9L52.9,71.9z"/>
	<path id="Path_3903" opacity="0.1" enable-background="new    " d="M51.6,76.3c0,0,3.9,0.1,4.5,1.3c0.5,1.2,1.2,2.2,2.1,3.1
		c0.5,0.2,5.6,4.5,6.1,4.6s4.8,4.8,4.8,5.3s4.6,3.3,7.5,3.7s7.4,5.7,8.7,5.5c1.4,0,2.7,0.3,4,0.8c0,0,3-0.1,3.7-0.6s3.4,0.5,2.8,1.6
		s-2.9,0.8-3.4,1.5c-0.8,0.9-1.9,1.4-3.1,1.5c-1.1,0.1-2.1,0.3-3.2,0.5c-1,0.2-0.7,0.7-2.2,0.5s-7.1-10.3-7.1-10.3l-6.3-2.9
		c0,0-2.4-1.9-2.6-2.6s-4.7-4.9-4.7-4.9l-6-4.4L51.6,76.3z"/>
	<path id="Path_3904" fill="#FD6F8D" d="M51.9,76.3c0,0,3.9,0.1,4.5,1.3c0.5,1.2,1.2,2.2,2.1,3.1c0.5,0.2,5.6,4.5,6.1,4.6
		s4.8,4.8,4.8,5.3s4.6,3.3,7.5,3.7s7.4,5.7,8.7,5.5c1.4,0,2.7,0.3,4,0.8c0,0,3-0.1,3.7-0.6s3.4,0.5,2.8,1.6s-2.9,0.8-3.4,1.5
		c-0.8,0.9-1.9,1.4-3.1,1.5c-1.1,0.1-2.1,0.3-3.2,0.5c-1,0.2-0.7,0.7-2.2,0.5S77,95.3,77,95.3l-6.3-2.9c0,0-2.4-1.9-2.6-2.6
		s-4.7-4.9-4.7-4.9l-6-4.4L51.9,76.3z"/>
	<path id="Path_3905" fill="#FFBEC5" d="M72.3,98c0,0,5.9-5.2,6.2-5.6c0.1-0.2,2-1.6,3.8-3c2.3-1.7,4.4-3.6,6.4-5.7
		c0.9-1.1,2-2.1,3.2-2.9c1-0.2,3.5-0.1,4,0.7c0.8,0.9,1.7,1.8,2.7,2.5l1.9,2.1c2.6,2.1,5.1,4.3,7.4,6.7c2.9,3.2,6.3,6.7,7.6,6.8
		c1.1,0.3,2.2,0.9,3.1,1.7c1.3,0.6,2.5,1.4,3.6,2.3c1,1.2,2.5,1.9,4.1,2.1c1.6,0.1-0.8,1.3-3.5,1.1s-5.8-1-6.9-0.8s-4.3,0.2-4.3-0.4
		c0.1-0.7,0.2-1.3,0.3-1.9c0,0-3.5-2.9-7-3.5s-11.3-6.4-11.2-9.1c0,0-1.1-0.1-2.4,1.8C90.5,94,89.6,95,88.9,96
		c-1.5,2.2-3.3,5.3-3.3,5.3s-2.8,5.7-5.1,5.6s-4.7-0.3-4.7-0.3l-3-2.1l-0.2-2.6L72.3,98z"/>
	<path id="Path_3906" opacity="5.000000e-02" enable-background="new    " d="M72.3,98c0,0,5.9-5.2,6.2-5.6c0.1-0.2,2-1.6,3.8-3
		c2.3-1.7,4.4-3.6,6.4-5.7c0.9-1.1,2-2.1,3.2-2.9c1-0.2,3.5-0.1,4,0.7c0.8,0.9,1.7,1.8,2.7,2.5l1.9,2.1c2.6,2.1,5.1,4.3,7.4,6.7
		c2.9,3.2,6.3,6.7,7.6,6.8c1.1,0.3,2.2,0.9,3.1,1.7c1.3,0.6,2.5,1.4,3.6,2.3c1,1.2,2.5,1.9,4.1,2.1c1.6,0.1-0.8,1.3-3.5,1.1
		s-5.8-1-6.9-0.8s-4.3,0.2-4.3-0.4c0.1-0.7,0.2-1.3,0.3-1.9c0,0-3.5-2.9-7-3.5s-11.3-6.4-11.2-9.1c0,0-1.1-0.1-2.4,1.8
		C90.5,94,89.6,95,88.9,96c-1.5,2.2-3.3,5.3-3.3,5.3s-2.8,5.7-5.1,5.6s-4.7-0.3-4.7-0.3l-3-2.1l-0.2-2.6L72.3,98z"/>
	<path id="Path_3907" fill="#FFBEC5" d="M73.7,98.2c0,0,5.9-5.2,6.2-5.6s7.6-5.8,7.6-5.8s4.9-5.5,5.9-5.7s3.5-0.1,4,0.7
		c0.8,0.9,1.7,1.8,2.7,2.5l1.9,2.1c2.6,2.1,5.1,4.3,7.4,6.7c2.9,3.2,6.3,6.7,7.6,6.8c1.1,0.3,2.2,0.9,3.1,1.7
		c1.3,0.6,2.5,1.4,3.6,2.3c1,1.2,2.5,1.9,4.1,2.1c1.6,0.1-0.8,1.3-3.5,1.1s-5.8-1-6.9-0.8s-4.3,0.2-4.3-0.4c0.1-0.7,0.2-1.3,0.3-1.9
		c0,0-3.5-2.9-7-3.5S95,94.2,95.1,91.6c0,0-1.1-0.1-2.4,1.8c-0.9,0.9-1.7,1.9-2.4,2.9c-1.5,2.2-3.3,5.3-3.3,5.3s-2.8,5.7-5.1,5.6
		s-4.7-0.3-4.7-0.3l-3-2.1l-0.2-2.6L73.7,98.2z"/>
	<path id="Path_3908" opacity="0.1" enable-background="new    " d="M92.6,101.3c-0.2,0.1-0.3,0.1-0.5,0.2l-1,0.5
		c0.9,0.1,1.7,0.2,2.6,0.1c0.5-0.1,1.2-0.5,0.6-1C93.9,100.8,93,101.1,92.6,101.3z"/>
	<path id="Path_3909" opacity="0.1" enable-background="new    " d="M88,102c0.7-0.3,1.5-0.2,2.1,0.3l0.9,0.6
		c-0.7,0.2-1.5,0.4-2.3,0.4c-0.1,0-0.2,0-0.3,0c-0.1,0-0.3-0.1-0.4-0.2C87.4,102.5,86.9,102.2,88,102z"/>
	<path id="Path_3910" opacity="0.1" enable-background="new    " d="M54.4,69.8c-0.6,0.6-1,1.4-1.4,2.1c-2.4,0.7-5,0-6.8-1.7
		c0.2-0.8,0.2-1.7,0-2.5C45.1,64.8,54.4,69.8,54.4,69.8z"/>
	<circle id="Ellipse_1178" fill="#FFBEC5" cx="51" cy="64.9" r="7.1"/>
	<path id="Path_3911" fill="#504F88" d="M51.9,76.3l-0.4,0.6l4.6,5l2.2,1.5l1.3-1.7L51.9,76.3z"/>
	<path id="Path_3912" fill="#504F88" d="M59,81.7c1.3-0.2,2.6,0.4,3.3,1.5c0.6,1,1,2.1,1.1,3.3c0,0,1,0.8,1,1.3
		c-0.1,0.3-0.3,0.6-0.5,0.7c0,0-2-1.2-2.1-1.2s-1.6-1.8-1.6-1.8L59,84.2V81.7z"/>
	<path id="Path_3913" opacity="0.1" enable-background="new    " d="M45.3,74.8c0,0-3.6,0.3-3.9,2.8s-0.5,3.9,0.8,5.6
		c1,1.2,2.4,2,3.8,2.4c0,0,3.9,3.1,3.9,4.9s3.3,6.1,3.3,6.1s6.3,4.6,5.8,6.1s-0.6,5.7,1.1,6.1s4.3,0.1,4.7,0.5s6.8-0.3,6.8-0.3
		s3.6-0.8,5.9-0.1c1.5,0.4,3,0.3,4.4-0.3c0,0,2.7-0.3,2.9-1.4s1.4-1.1,0.2-1.3s-1.9,0.4-2.7,0.1s-1.5-1.3-3.5-1.2s-2.4,0.1-2.6,0
		s1.2-1.1,0.5-2.9s-2.3-3.2-2.2-4.2s-2.9-4.4-2.9-4.4c-0.8-1.2-2-2.1-3.3-2.7c-1.8-0.7-5.3-4.8-5.3-4.8s-3-4.6-4.6-4.9s-6.9-5-6.9-5
		S47.2,74.3,45.3,74.8z"/>
	<path id="Path_3914" fill="#FD6F8D" d="M45.2,75c0,0-3.6,0.3-3.9,2.8s-0.5,3.9,0.8,5.6c1,1.2,2.4,2,3.8,2.4c0,0,3.9,3.1,3.9,4.9
		s3.3,6.1,3.3,6.1s6.3,4.7,5.8,6.1s-0.6,5.7,1.1,6.1s4.3,0.1,4.7,0.5s6.8-0.3,6.8-0.3s3.6-0.8,5.9-0.1c1.5,0.4,3,0.3,4.4-0.3
		c0,0,2.7-0.3,2.9-1.4s1.4-1.1,0.2-1.3s-1.9,0.4-2.7,0.1s-1.5-1.3-3.5-1.2s-2.4,0.1-2.6,0s1.2-1.1,0.5-2.9s-2.3-3.2-2.2-4.2
		s-2.9-4.4-2.9-4.4c-0.8-1.2-2-2.1-3.3-2.7c-1.8-0.7-5.3-4.8-5.3-4.8s-3-4.6-4.6-4.9s-6.9-5-6.9-5S47.1,74.5,45.2,75z"/>
	<path id="Path_3915" opacity="0.1" enable-background="new    " d="M68.2,102.9c-0.3,0.5-0.2,1.1,0.1,1.5c0.2,0.2,0.5,0.3,0.8,0.4
		c0.6,0.2,1.1,0.7,1.4,1.3c0,0.2,0.1,0.3,0.2,0.5c0.1,0.1,0.2,0.2,0.4,0.2c1.7,0.8,3.6,1.2,5.5,1.1c-0.6-0.6-1.4-1-2.3-1.1
		c-0.7,0-1.4-0.1-2-0.3c-0.6-0.3-1.1-0.8-1.5-1.4c-0.2-0.2-0.3-0.4-0.4-0.6c-0.1-0.5,0.1-1,0-1.5c-0.1-0.3-0.7-1.3-1-1.3
		C69,101.6,68.4,102.6,68.2,102.9z"/>
	<path id="Path_3916" opacity="0.1" enable-background="new    " d="M93.3,90.9c0.4-0.1,2.4-0.5,1.8-1.3
		C94.6,88.9,93.7,90.8,93.3,90.9z"/>
	<path id="Path_3917" fill="#CBE3FF" d="M86,71.1l3.4-1.7l-1.2,17.2L84.7,86l0.9-14.2C85.6,71.5,85.8,71.3,86,71.1z"/>
	<path id="Path_3918" fill="#C8BFCA" d="M89.5,69.5L89.5,69.5l-1.2,17.2l0,0c0.3,0,0.5-0.2,0.5-0.5L90,70.3
		C90.1,69.9,89.8,69.6,89.5,69.5z"/>
	<path id="Path_3919" fill="#F1F1F2" d="M84.7,85.9l-10.9,8c-0.4,0.3-0.4,0.8-0.2,1.1c0,0,0,0,0.1,0.1l1.1,1.2L88.5,86l-3.4-0.2
		C85,85.7,84.8,85.8,84.7,85.9L84.7,85.9z"/>
	<path id="Path_3920" fill="#7E7A98" d="M84.4,86.7L77,91.8l1,1.1l8.6-6.1L84.4,86.7z"/>
	<path id="Path_3921" fill="#C8BFCA" d="M74.7,96.3L74.7,96.3L88.5,86l0,0c0.2,0.5,0.1,1-0.3,1.3l-12.1,9.1
		C75.6,96.7,75.1,96.7,74.7,96.3z"/>
	<path id="Path_3922" fill="#FFBEC5" d="M72.3,93.5c0,0,4.8-9.7,7.7-6s-4.4,7.8-4.4,7.8L72.3,93.5z"/>
	<path id="Path_3923" opacity="0.1" enable-background="new    " d="M46.7,77.5c-1.9,0.5-3.5,2-4.1,3.9c-0.5,1.1-0.1,2.3,0.8,3
		c2.4,1.8,5.8,3.1,7.4,6c1,1.9,1.7,4,2,6.1l4.1,6.1c0,0,0.6,1.9,4.8,0.4s6.4-2.3,6.4-2.3s3.2-1.7,4.7-2.4c0.2-0.1,0.4-0.2,0.6-0.2
		c0.5,0,3.9-3,4.1-3.4s-3.5-2.1-5-1.7c0,0-0.2,0.9-3,0.7s-3.8,1-3.8,1c-0.7-0.3-1.5-0.4-2.2-0.4c-0.9,0-2.5-0.8-3.6-0.7
		c0.3-0.7,0.3-1.5-0.2-2.2c-0.8-1-1.5-0.9-1.8-2.1c-0.2-0.7-0.8-2.8-1.3-4.5c-0.6-2.3-1.9-4.3-3.7-5.9c-1-1.1-2.4-1.7-3.9-1.8
		C48.3,77.2,47.5,77.3,46.7,77.5z"/>
	<path id="Path_3924" opacity="0.1" enable-background="new    " d="M46.8,77.1c-1.9,0.5-3.5,2-4.1,3.9c-0.5,1.1-0.1,2.3,0.8,3
		c2.4,1.8,5.8,3.1,7.4,6c1,1.9,1.7,4,2,6.1l4.1,6.1c0,0,0.6,1.9,4.8,0.4s6.4-2.3,6.4-2.3s3.2-1.7,4.7-2.4c0.2-0.1,0.4-0.2,0.6-0.2
		c0.5,0,3.9-3,4.1-3.4s-3.5-2.1-5-1.7c0,0-0.2,0.9-3,0.7s-3.8,1-3.8,1c-0.7-0.3-1.5-0.4-2.2-0.4c-0.9,0-2.5-0.8-3.6-0.7
		c0.3-0.7,0.3-1.5-0.2-2.2c-0.8-1-1.5-0.9-1.8-2.1c-0.2-0.7-0.8-2.8-1.3-4.5c-0.6-2.3-1.9-4.3-3.7-5.9c-1-1.1-2.4-1.7-3.9-1.8
		C48.3,76.7,47.5,76.9,46.8,77.1z"/>
	<path id="Path_3925" fill="#FD6F8D" d="M46.7,77.3c-1.9,0.5-3.5,2-4.1,3.9c-0.5,1.1-0.1,2.3,0.8,3c2.4,1.8,5.8,3.1,7.4,6
		c1,1.9,1.7,4,2,6.1l4.1,6.1c0,0,0.6,1.9,4.8,0.4s6.4-2.3,6.4-2.3s3.2-1.7,4.7-2.4c0.2-0.1,0.4-0.2,0.6-0.2c0.5,0,3.9-3,4.1-3.4
		s-3.5-2.1-5-1.7c0,0-0.2,0.9-3,0.7s-3.8,1-3.8,1c-0.7-0.3-1.5-0.4-2.2-0.4c-0.9,0-2.5-0.8-3.6-0.7c0.3-0.7,0.3-1.5-0.2-2.2
		c-0.8-1-1.5-0.9-1.8-2.1c-0.2-0.7-0.8-2.8-1.3-4.5c-0.6-2.3-1.9-4.3-3.7-5.9c-1-1.1-2.4-1.7-3.9-1.8C48.3,76.9,47.5,77,46.7,77.3
		L46.7,77.3z"/>
	<path id="Path_3926" opacity="0.1" enable-background="new    " d="M59.4,62.3c0.7-0.2,1.3-0.8,1.5-1.6c0-0.5-0.1-1-0.3-1.4
		c-0.9-1.6-2.7-2.4-4.4-3c-1.7-0.7-3.5-1-5.3-0.9c-1.8,0-3.6,0.8-4.8,2.2c-0.2,0.3-0.4,0.5-0.7,0.8c-0.4,0.3-0.9,0.4-1.4,0.3
		c-1.7-0.1-3.4-0.7-4.9-0.1c-1.8,0.8-2.5,3-2.7,5c-0.1,2-0.4,4.1-0.8,6.1c-0.4,2-1.7,3.8-3.4,4.9c-0.5,0.2-1.1,0.5-1.6,0.8
		c-0.5,0.3-0.9,0.9-0.9,1.5c0,0.8,0.7,1.4,1.1,2.1c0.2,0.6,0.5,1.1,0.8,1.6c0.8,0.8,2.3,0.4,3.4,0.9c1,0.5,1.4,1.6,2.1,2.3
		c1,0.8,2.2,1.3,3.4,1.3c0.7,0.1,1.4,0,2-0.2c1.2-0.6,2-1.9,2-3.3c0-1.4-0.2-2.7-0.6-4c-0.1-0.4-0.1-0.9,0-1.3
		c0.1-0.3,0.4-0.6,0.7-0.8c1.5-1.2,3.6-1.7,4.4-3.4c0.6-1.1,0.4-2.5,0.5-3.7c0-0.5,0.2-0.9,0.5-1.3c0.5-0.3,1-0.5,1.6-0.4
		c1.7-0.2,3.2-0.8,4.5-1.9c0.5-0.6,1-1.2,1.5-1.8C57.8,62.3,58.7,62.5,59.4,62.3z"/>
	<path id="Path_3927" fill="#FFE2DA" d="M59.2,62.1c0.7-0.2,1.3-0.8,1.5-1.6c0-0.5-0.1-1-0.3-1.4c-0.9-1.6-2.7-2.4-4.4-3
		c-1.7-0.7-3.5-1-5.3-0.9c-1.8,0-3.6,0.8-4.8,2.2c-0.2,0.3-0.4,0.5-0.7,0.8c-0.4,0.3-0.9,0.4-1.4,0.3c-1.7-0.1-3.4-0.7-4.9-0.1
		c-1.8,0.8-2.5,3-2.7,5c-0.1,2-0.4,4.1-0.8,6.1c-0.4,2-1.7,3.8-3.4,4.9c-0.5,0.2-1.1,0.5-1.6,0.8c-0.5,0.3-0.9,0.9-0.9,1.5
		c0,0.8,0.7,1.4,1.1,2.1c0.2,0.6,0.5,1.1,0.8,1.6c0.8,0.8,2.3,0.4,3.4,0.9c1,0.5,1.4,1.6,2.1,2.3c1,0.8,2.2,1.3,3.4,1.3
		c0.7,0.1,1.4,0,2-0.2c1.2-0.6,2-1.9,2-3.3c0-1.4-0.2-2.7-0.6-4c-0.1-0.4-0.1-0.9,0-1.3c0.1-0.3,0.4-0.6,0.7-0.8
		c1.5-1.2,3.6-1.7,4.4-3.4c0.6-1.1,0.4-2.5,0.5-3.7c0-0.5,0.2-0.9,0.5-1.3c0.5-0.3,1-0.5,1.6-0.4c1.7-0.2,3.2-0.8,4.5-1.9
		c0.5-0.6,1-1.2,1.5-1.8C57.6,62.1,58.5,62.3,59.2,62.1z"/>
	<g id="Group_2955" transform="translate(30.812 58.116)" opacity="0.1">
		<path id="Path_3928" d="M3.2,22.5c-1-0.5-2.3-0.1-3.2-0.7c0.1,0.2,0.2,0.3,0.3,0.4c0.8,0.8,2.3,0.4,3.4,0.9
			c0.2,0.1,0.5,0.3,0.6,0.5C4.1,23.1,3.7,22.8,3.2,22.5z"/>
		<path id="Path_3929" d="M29.5,1c-0.2-0.4-0.4-0.7-0.7-1C28.9,0.1,29,0.3,29,0.4c0.3,0.4,0.4,0.9,0.3,1.4c-0.2,0.7-0.7,1.3-1.5,1.6
			c-0.7,0.2-1.6,0-2.1,0.6c-0.5,0.6-1,1.2-1.5,1.8c-1.3,1.1-2.8,1.8-4.5,1.9c-0.6,0-1.1,0.1-1.6,0.4c-0.3,0.3-0.5,0.8-0.5,1.3
			c-0.1,1.3,0,2.6-0.5,3.7c-0.8,1.7-2.9,2.2-4.4,3.4c-0.3,0.2-0.5,0.5-0.7,0.8c-0.1,0.4-0.1,0.9,0,1.3c0.4,1.3,0.6,2.6,0.6,4
			c0,1.4-0.8,2.7-2,3.3c-0.6,0.2-1.3,0.3-2,0.2c-1.3,0-2.5-0.5-3.4-1.3l0,0c0.2,0.2,0.3,0.4,0.5,0.6c1,0.8,2.2,1.3,3.4,1.3
			c0.7,0.1,1.4,0,2-0.2c1.2-0.6,2-1.9,2-3.3c0-1.4-0.2-2.7-0.6-4c-0.1-0.4-0.1-0.9,0-1.3c0.1-0.3,0.4-0.6,0.7-0.8
			c1.5-1.2,3.6-1.7,4.4-3.4c0.6-1.1,0.4-2.5,0.5-3.7c0-0.5,0.2-0.9,0.5-1.3c0.5-0.3,1-0.5,1.6-0.4c1.7-0.2,3.2-0.8,4.5-1.9
			c0.5-0.6,1-1.2,1.5-1.8c0.5-0.6,1.4-0.3,2.1-0.6c0.7-0.2,1.3-0.8,1.5-1.6C29.9,1.9,29.8,1.4,29.5,1z"/>
	</g>
	<path id="Path_3930" fill="#ED1C24" d="M18.6,111c0,0,1.4,1.9-0.7,4.7s-3.8,5.2-3.1,6.9c0,0,3.1-5.2,5.7-5.3S21.4,114.2,18.6,111z"
		/>
	<path id="Path_3931" opacity="0.1" enable-background="new    " d="M18.6,111c0.1,0.2,0.2,0.4,0.3,0.6c2.5,2.9,3.8,5.6,1.4,5.7
		c-2.2,0.1-4.9,4-5.5,5c0,0.1,0,0.2,0.1,0.2c0,0,3.1-5.2,5.7-5.3S21.4,114.2,18.6,111z"/>
	<path id="Path_3932" fill="#FFD037" d="M21.2,113.4c0,0.7-0.1,1.2-0.2,1.2s-0.2-0.5-0.2-1.2s0.1-0.3,0.2-0.3S21.2,112.8,21.2,113.4
		z"/>
	<path id="Path_3933" fill="#FFD037" d="M22.1,114.2c-0.6,0.3-1.1,0.5-1.1,0.4s0.4-0.4,1-0.7s0.3-0.1,0.4,0S22.7,113.9,22.1,114.2z"
		/>
	<path id="Path_3934" fill="#ED1C24" d="M11.1,111c0,0-1.4,1.9,0.7,4.7s3.8,5.2,3.1,6.9c0,0-3.1-5.2-5.7-5.3S8.3,114.2,11.1,111z"/>
	<path id="Path_3935" opacity="0.1" enable-background="new    " d="M11.1,111c-0.1,0.2-0.2,0.4-0.3,0.6c-2.5,2.9-3.8,5.6-1.4,5.7
		c2.2,0.1,4.9,4,5.5,5c0,0.1,0,0.2-0.1,0.2c0,0-3.1-5.2-5.7-5.3S8.3,114.2,11.1,111z"/>
	<path id="Path_3936" fill="#FFD037" d="M8.5,113.4c0,0.7,0.1,1.2,0.2,1.2s0.2-0.5,0.2-1.2s-0.1-0.3-0.2-0.3S8.5,112.8,8.5,113.4z"
		/>
	<path id="Path_3937" fill="#FFD037" d="M7.5,114.2c0.6,0.3,1.1,0.5,1.1,0.4s-0.4-0.4-1-0.7s-0.3-0.1-0.4,0S7,113.9,7.5,114.2z"/>
	<ellipse id="Ellipse_1181" opacity="0.1" fill="#ED1C24" enable-background="new    " cx="14.8" cy="134.5" rx="14.8" ry="2.3"/>
	<path id="Path_3938" fill="#65617D" d="M22.5,120.1l-0.1,0.6l-0.1,0.8l0,0.3l-0.1,0.8l0,0.3l-0.1,0.8l-1.1,9.3
		c-0.1,0.8-1.5,1.5-3.1,1.5h-5.9c-1.6,0-3-0.6-3.1-1.5l-1.1-9.3L7.5,123l0-0.3l-0.1-0.8l0-0.3l-0.1-0.8l-0.1-0.6
		c-0.1-0.5,0.7-0.9,1.6-0.9h12.1C21.8,119.2,22.5,119.6,22.5,120.1z"/>
	<path id="Path_3939" fill="#9D9CB5" d="M22.4,120.7l-0.1,0.8H7.4l-0.1-0.8H22.4z"/>
	<path id="Path_3940" fill="#9D9CB5" d="M22.3,121.9l-0.1,0.8H7.5l-0.1-0.8H22.3z"/>
	<path id="Path_3941" fill="#9D9CB5" d="M22.1,123l-0.1,0.8H7.7L7.6,123H22.1z"/>
</g>
</svg>
