<?xml version="1.0" encoding="iso-8859-1"?>
<!-- Generator: Adobe Illustrator 24.0.1, SVG Export Plug-In . SVG Version: 6.00 Build 0)  -->
<svg version="1.1" id="Layer_1" xmlns="http://www.w3.org/2000/svg" xmlns:xlink="http://www.w3.org/1999/xlink" x="0px" y="0px"
	 viewBox="0 0 64 64" enable-background="new 0 0 64 64" xml:space="preserve">
<g id="Router_icon" transform="translate(-42.801 -412.4)">
	<circle id="circle" fill="#F3F3F3" cx="74.8" cy="444.4" r="32"/>
	<g id="Router_icon-2" transform="translate(56.801 426.4)">
		<path id="Path_3668" fill="none" d="M25.5,24.6h-2.5l0.7-15.3h1.2L25.5,24.6z"/>
		<circle id="Ellipse_1146" fill="#E6E9ED" cx="24.2" cy="9.3" r="1.6"/>
		<path id="Path_3669" fill="#E6E9ED" d="M26.5,34.7h2.6l1-3.2h-3.6V34.7z"/>
		<path id="Path_3670" fill="#E6E9ED" d="M8.7,34.7H6.1l-1-3.2h3.6V34.7z"/>
		<path id="Rectangle_2426" fill="none" d="M5.5,22.9h24.1c2.8,0,5,2.2,5,5l0,0c0,2.8-2.2,5-5,5H5.5c-2.8,0-5-2.2-5-5l0,0
			C0.5,25.1,2.8,22.9,5.5,22.9z"/>
		<circle id="Ellipse_1147" fill="#E6E9ED" cx="13.2" cy="27.9" r="1.6"/>
		<circle id="Ellipse_1148" fill="#E6E9ED" cx="7.4" cy="27.9" r="1.6"/>
		<path id="Path_3671" fill="#181818" d="M16.6,4.9C16.9,5,17.2,5,17.3,4.7c0,0,0,0,0,0c2.5-3.8,7.6-4.8,11.4-2.3
			c0.9,0.6,1.7,1.4,2.3,2.3c0.2,0.2,0.5,0.3,0.7,0.1c0.2-0.2,0.3-0.5,0.1-0.7c-2.8-4.3-8.6-5.4-12.9-2.6c-1,0.7-1.9,1.6-2.6,2.6
			C16.3,4.4,16.4,4.7,16.6,4.9L16.6,4.9z"/>
		<path id="Path_3672" fill="#181818" d="M30,5.9c0.3,0,0.5-0.2,0.5-0.5c0-0.1,0-0.2-0.1-0.3c-0.3-0.4-0.5-0.7-0.9-1.1
			C26.7,1.1,22,1,19,3.9c-0.1,0.1-0.1,0.1-0.2,0.2c-0.3,0.3-0.6,0.7-0.9,1.1c-0.2,0.2-0.1,0.6,0.1,0.7C18.3,6,18.6,6,18.8,5.8
			c0,0,0,0,0-0.1c0.2-0.3,0.5-0.6,0.7-0.9c2.5-2.6,6.6-2.6,9.1-0.2c0.1,0.1,0.1,0.1,0.2,0.2c0.3,0.3,0.5,0.6,0.7,0.9
			C29.7,5.8,29.8,5.9,30,5.9L30,5.9z"/>
		<path id="Path_3673" fill="#181818" d="M28,5c-0.5-0.5-1.1-0.8-1.8-1.1c-2.5-1-5.3-0.1-6.8,2.2c-0.2,0.2-0.1,0.6,0.1,0.7
			s0.6,0.1,0.7-0.1c0,0,0,0,0,0c1.4-2.1,4.3-2.7,6.5-1.3c0.2,0.1,0.4,0.3,0.5,0.4c0.3,0.3,0.6,0.6,0.8,0.9c0.2,0.2,0.5,0.3,0.7,0.2
			c0.2-0.2,0.3-0.5,0.2-0.7c0,0,0,0,0,0C28.7,5.7,28.4,5.4,28,5z"/>
		<path id="Path_3674" fill="#181818" d="M32.9,22.3h-7l-0.2-5c0-0.3-0.3-0.5-0.5-0.5s-0.5,0.3-0.5,0.5l0.2,5h-1.3L24,11.4
			c0.1,0,0.1,0,0.2,0s0.1,0,0.2,0l0.2,3.6c0,0.3,0.2,0.5,0.5,0.5h0c0.3,0,0.5-0.3,0.5-0.5c0,0,0,0,0,0l-0.2-3.9c1-0.7,1.3-2,0.6-3
			c-0.7-1-2-1.3-3-0.6s-1.3,2-0.6,3c0.2,0.2,0.4,0.4,0.6,0.6l-0.5,11.3H11.8c-0.3,0-0.5,0.2-0.5,0.5s0.2,0.5,0.5,0.5h21.1
			c0.7,0,1.3,0.6,1.3,1.3v6.5c0,0.7-0.6,1.3-1.3,1.3H2.3c-0.7,0-1.3-0.6-1.3-1.3v-6.5c0-0.7,0.6-1.3,1.3-1.3h3.5
			c0.3,0,0.5-0.2,0.5-0.5s-0.2-0.5-0.5-0.5H2.3c-1.3,0-2.3,1-2.3,2.3v6.5c0,1.3,1,2.3,2.3,2.3h2.9l0.4,1.4c0.1,0.2,0.3,0.4,0.5,0.4
			h2.6c0.3,0,0.5-0.2,0.5-0.5l0,0v-1.3h16.7v1.3c0,0.3,0.2,0.5,0.5,0.5l0,0h2.6c0.2,0,0.4-0.1,0.5-0.4l0.4-1.4h2.9
			c1.3,0,2.3-1,2.3-2.3v-6.5C35.2,23.4,34.2,22.3,32.9,22.3L32.9,22.3z M24.2,8.2c0.6,0,1.1,0.5,1.1,1.1c0,0.4-0.3,0.9-0.7,1h0
			c-0.6,0.2-1.2,0-1.5-0.6c-0.2-0.6,0-1.2,0.6-1.5C23.9,8.2,24.1,8.2,24.2,8.2L24.2,8.2z M8.2,34.2H6.5l-0.2-0.7h1.9L8.2,34.2z
			 M28.7,34.2H27v-0.7h1.9L28.7,34.2z"/>
		<path id="Path_3675" fill="#1F2D31" d="M8,23.4h1.5c0.3,0,0.5-0.2,0.5-0.5c0-0.3-0.2-0.5-0.5-0.5H8c-0.3,0-0.5,0.2-0.5,0.5
			C7.5,23.1,7.7,23.4,8,23.4L8,23.4z"/>
		<path id="Path_3676" fill="#181818" d="M15.3,27.9c0-1.2-1-2.2-2.2-2.2s-2.2,1-2.2,2.2s1,2.2,2.2,2.2l0,0
			C14.4,30,15.3,29.1,15.3,27.9z M12.1,27.9c0-0.6,0.5-1.1,1.1-1.1c0.6,0,1.1,0.5,1.1,1.1c0,0.6-0.5,1.1-1.1,1.1h0
			C12.6,29,12.1,28.5,12.1,27.9C12.1,27.9,12.1,27.9,12.1,27.9z"/>
		<path id="Path_3677" fill="#181818" d="M5.3,27.9c0,1.2,1,2.2,2.2,2.2s2.2-1,2.2-2.2c0-1.2-1-2.2-2.1-2.2
			C6.2,25.7,5.3,26.7,5.3,27.9L5.3,27.9z M7.4,26.8c0.6,0,1.1,0.5,1.1,1.1C8.5,28.5,8,29,7.4,29c-0.6,0-1.1-0.5-1.1-1.1
			C6.3,27.3,6.8,26.8,7.4,26.8C7.4,26.8,7.4,26.8,7.4,26.8z"/>
		<path id="Path_3678" fill="#181818" d="M29.4,28.4c0.3,0,0.5-0.2,0.5-0.5c0-0.3-0.2-0.5-0.5-0.5H18.7c-0.3,0-0.5,0.2-0.5,0.5
			c0,0.3,0.2,0.5,0.5,0.5H29.4z"/>
	</g>
</g>
</svg>
