<?xml version="1.0" encoding="iso-8859-1"?>
<!-- Generator: Adobe Illustrator 24.0.1, SVG Export Plug-In . SVG Version: 6.00 Build 0)  -->
<svg version="1.1" id="Layer_1" xmlns="http://www.w3.org/2000/svg" xmlns:xlink="http://www.w3.org/1999/xlink" x="0px" y="0px"
	 viewBox="0 0 64 64" enable-background="new 0 0 64 64" xml:space="preserve">
<g id="sad_face_icon" transform="translate(-42.801 -412.4)">
	<circle id="circle" opacity="0.3" fill="#FA7373" enable-background="new    " cx="74.8" cy="444.4" r="32"/>
	<g id="sad_face_icon-2" transform="translate(56.801 426.4)">
		<path id="Path_3854" fill="#181818" d="M18,1.7C27,1.7,34.3,9,34.3,18S27,34.3,18,34.3S1.7,27,1.7,18c0,0,0,0,0,0
			C1.7,9,9,1.7,18,1.7 M18,0C8.1,0,0,8.1,0,18s8.1,18,18,18s18-8.1,18-18C36,8.1,28,0,18,0C18,0,18,0,18,0z"/>
		<circle id="Ellipse_1171" fill="#181818" cx="11.3" cy="14.5" r="2.5"/>
		<circle id="Ellipse_1172" fill="#181818" cx="24.8" cy="14.5" r="2.5"/>
		<path id="Path_3855" fill="none" stroke="#181818" stroke-width="2" stroke-linecap="round" stroke-miterlimit="10" d="M26.2,25.6
			c-2.2-4.5-7.6-6.4-12.1-4.2c-1.8,0.9-3.3,2.4-4.2,4.2"/>
	</g>
</g>
</svg>
