<?xml version="1.0" encoding="iso-8859-1"?>
<!-- Generator: Adobe Illustrator 24.0.1, SVG Export Plug-In . SVG Version: 6.00 Build 0)  -->
<svg version="1.1" id="Study_Table_Socket_illustration"
	 xmlns="http://www.w3.org/2000/svg" xmlns:xlink="http://www.w3.org/1999/xlink" x="0px" y="0px" viewBox="0 0 90.8 90.7"
	 enable-background="new 0 0 90.8 90.7" xml:space="preserve">
<path id="Path_3588" fill="#32B658" d="M0,0h45C66.6,0.6,96,6.2,90,32.2c-5.8,25.5-23.3,22.4-28,38.7S0,99.2,0,83.2V0z"/>
<path id="Path_3589" fill="#43C45F" d="M0,0h34c16.3,0.5,38.5,4.9,34,25.6c-4.4,20.3-17.6,17.8-21.2,30.8C43.4,69.4,0,78.9,0,66.2V0
	z"/>
<path id="Path_3590" fill="#FFFFFF" d="M4.4,30.7c-0.1-2.2-0.2-4.4-0.2-6.6s-0.1-4.4-0.1-6.6v-3.3l0.1-3.3c0.1-2.2,0.2-4.4,0.2-6.6
	V4.1h0.1c3.3,0,6.6-0.1,9.8-0.2s6.6-0.1,9.8-0.1s6.6,0,9.8,0.1s6.6,0.2,9.8,0.3v0.1c-3.3,0.1-6.6,0.3-9.8,0.3s-6.6,0.1-9.8,0.1
	s-6.6-0.1-9.8-0.1S7.8,4.3,4.5,4.3l0.1-0.1c0,2.2,0,4.4,0.1,6.6l0.1,3.3v3.3c0,2.2,0,4.4-0.1,6.6S4.6,28.5,4.4,30.7L4.4,30.7z"/>
<path id="Rectangle_2403" fill="#FFFFFF" d="M28,23.7h18.2c4.6,0,8.4,3.8,8.4,8.4v6.5c0,4.6-3.8,8.4-8.4,8.4H28
	c-4.6,0-8.4-3.8-8.4-8.4v-6.5C19.6,27.5,23.4,23.7,28,23.7z"/>
<circle id="Ellipse_1129" fill="#126824" cx="26.5" cy="39.6" r="2"/>
<circle id="Ellipse_1130" fill="#126824" cx="35.6" cy="39.6" r="2"/>
<circle id="Ellipse_1131" fill="#126824" cx="31" cy="31.6" r="2"/>
<path id="Rectangle_2404" fill="#126824" d="M45.7,29.6h1c1.4,0,2.6,1.2,2.6,2.6V39c0,1.4-1.2,2.6-2.6,2.6h-1
	c-1.4,0-2.6-1.2-2.6-2.6v-6.8C43.1,30.7,44.2,29.6,45.7,29.6z"/>
<path id="Path_3591" fill="#27A046" d="M82.1,48.9c-7.4,8.7-16.9,10.7-20.1,22C57.4,87.3,0,99.2,0,83.2V64.2L82.1,48.9z"/>
<path id="Path_3592" fill="#1E8429" d="M10.5,82l0.6-1.2l4.2-3.7c0,0,1.2-0.3,1.1,0.9s-4.8,3.7-4.8,3.7L10.5,82z"/>
<path id="Path_3593" fill="#44C14D" d="M42.3,73.5L40.4,73L33.8,68c0,0-0.8-1.6,0.9-1.8s6.8,5.9,6.8,5.9L42.3,73.5z"/>
<path id="Path_3594" fill="#FFFFFF" d="M63,5.7c2.7,0.6,5.4,1.4,7.9,2.5c2.6,1.1,5,2.6,7.1,4.4c2.2,1.9,3.9,4.3,4.9,7
	c1,2.7,1.4,5.6,1.1,8.4L84,29.1c0,0.4-0.1,0.7-0.2,1l-0.4,2.1c-0.3,1.4-0.7,2.7-1.2,4c-0.9,2.6-2.1,5.2-3.6,7.6
	c-1.5,2.4-3.2,4.6-5.2,6.5c-2,1.9-4.2,3.7-6.3,5.4c-2.2,1.6-4.2,3.5-6,5.6c-0.8,1-1.6,2.2-2.2,3.3c-0.6,1.2-1.1,2.5-1.4,3.8
	c-0.5,1.4-1.2,2.7-2.2,3.9c-0.9,1.1-2,2.1-3.1,3c-2.2,1.7-4.7,3.2-7.2,4.4c-5.1,2.3-10.4,4.1-15.9,5.2c-5.4,1.2-11,1.7-16.6,1.4
	v-0.2c5.5-0.3,11-1.1,16.3-2.5c2.7-0.7,5.3-1.5,7.9-2.4c2.6-0.9,5.1-2,7.6-3.2c2.5-1.2,4.8-2.5,7-4.2c2.2-1.5,3.9-3.5,4.9-6
	c0.4-1.4,1-2.7,1.6-4c0.7-1.2,1.5-2.4,2.5-3.5c1.9-2.1,4.1-3.9,6.4-5.4c2.3-1.5,4.5-3.2,6.5-5.1c1-0.9,1.9-1.9,2.8-3
	c0.9-1.1,1.7-2.2,2.3-3.4c1.4-2.4,2.5-4.9,3.2-7.6c0.8-2.6,1.3-5.3,1.4-8c0.2-2.7-0.2-5.3-1.1-7.8c-1-2.5-2.5-4.7-4.4-6.6
	c-2-1.8-4.3-3.4-6.7-4.6c-2.5-1.2-5-2.3-7.6-3.1L63,5.7z"/>
</svg>
