<?xml version="1.0" encoding="iso-8859-1"?>
<!-- Generator: Adobe Illustrator 24.0.1, SVG Export Plug-In . SVG Version: 6.00 Build 0)  -->
<svg version="1.1" id="Layer_1" xmlns="http://www.w3.org/2000/svg" xmlns:xlink="http://www.w3.org/1999/xlink" x="0px" y="0px"
	 viewBox="0 0 96 96" enable-background="new 0 0 96 96" xml:space="preserve">
<g id="Temp_circle" transform="translate(-132 -378)">
	<g transform="matrix(1, 0, 0, 1, 132, 378)">
		<path id="black_bg-2" fill="#181818" d="M48,30c9.9,0,18,8.1,18,18s-8.1,18-18,18s-18-8.1-18-18S38.1,30,48,30z"/>
	</g>
	<path id="temp_icon" fill="#FFFFFF" d="M180,436.3c2.2,0,4-1.8,4-4c0-1.1-0.5-2.2-1.3-2.9v-10.5c0-1.5-1.2-2.8-2.7-2.8
		c-1.5,0-2.8,1.2-2.8,2.7c0,0,0,0.1,0,0.1v10.5c-1.6,1.5-1.7,4.1-0.1,5.7C177.9,435.8,178.9,436.3,180,436.3z M178.3,430.1
		c0.1-0.1,0.2-0.3,0.2-0.5v-10.8c0-0.8,0.7-1.5,1.6-1.5c0.8,0,1.5,0.7,1.5,1.5v10.8c0,0.2,0.1,0.4,0.2,0.5c1.2,1,1.4,2.7,0.4,3.9
		c-1,1.2-2.7,1.4-3.9,0.4c-1.2-1-1.4-2.7-0.4-3.9C178,430.4,178.1,430.2,178.3,430.1L178.3,430.1z M179.4,429.3v-5.2
		c0-0.4,0.3-0.6,0.6-0.6c0.4,0,0.6,0.3,0.6,0.6v5.2c0,0.4-0.3,0.6-0.6,0.6C179.7,429.9,179.4,429.6,179.4,429.3L179.4,429.3z"/>
</g>
</svg>
