<?xml version="1.0" encoding="iso-8859-1"?>
<!-- Generator: Adobe Illustrator 24.0.1, SVG Export Plug-In . SVG Version: 6.00 Build 0)  -->
<svg version="1.1" id="Layer_1" xmlns="http://www.w3.org/2000/svg" xmlns:xlink="http://www.w3.org/1999/xlink" x="0px" y="0px"
	 viewBox="0 0 70 70" enable-background="new 0 0 70 70" xml:space="preserve">
<g id="Tick" transform="translate(-148 -363)">
	<circle id="circle" fill="#F3F3F3" cx="183" cy="398" r="35"/>
	<path id="tick_icon" fill="#181818" d="M197.6,388.5c-0.5-0.5-1.3-0.5-1.8,0l-18.1,18l-7.9-7.8c-0.5-0.5-1.3-0.5-1.8,0
		c-0.5,0.5-0.5,1.3,0,1.8c0,0,0,0,0,0l8.9,8.7c0.5,0.5,1.3,0.5,1.8,0l19-18.8C198.1,389.8,198.1,389,197.6,388.5
		C197.6,388.5,197.6,388.5,197.6,388.5C197.1,388,198.1,389,197.6,388.5z"/>
</g>
</svg>
